<?xml version="1.0" encoding="UTF-8" standalone="no"?>
<!-- Created with Inkscape (http://www.inkscape.org/) -->

<svg
   width="64.0px"
   height="64.0px"
   viewBox="0 0 64.0 64.0"
   version="1.1"
   id="SVGRoot"
   sodipodi:docname="AlignFibreLCS.svg"
   inkscape:version="1.2.2 (b0a8486541, 2022-12-01)"
   xmlns:inkscape="http://www.inkscape.org/namespaces/inkscape"
   xmlns:sodipodi="http://sodipodi.sourceforge.net/DTD/sodipodi-0.dtd"
   xmlns="http://www.w3.org/2000/svg"
   xmlns:svg="http://www.w3.org/2000/svg">
  <sodipodi:namedview
     id="namedview2306"
     pagecolor="#505050"
     bordercolor="#eeeeee"
     borderopacity="1"
     inkscape:showpageshadow="0"
     inkscape:pageopacity="0"
     inkscape:pagecheckerboard="0"
     inkscape:deskcolor="#505050"
     inkscape:document-units="px"
     showgrid="true"
     inkscape:zoom="6.7277216"
     inkscape:cx="22.964684"
     inkscape:cy="18.802799"
     inkscape:window-width="1536"
     inkscape:window-height="891"
     inkscape:window-x="0"
     inkscape:window-y="32"
     inkscape:window-maximized="1"
     inkscape:current-layer="layer2">
    <inkscape:grid
       type="xygrid"
       id="grid2501" />
  </sodipodi:namedview>
  <defs
     id="defs2301">
    <filter
       inkscape:label="In and Out"
       inkscape:menu="Shadows and Glows"
       inkscape:menu-tooltip="Inner colorized shadow, outer black shadow"
       style="color-interpolation-filters:sRGB;"
       id="filter886"
       x="-0.15509225"
       y="-0.19090514"
       width="1.3909617"
       height="1.48124">
      <feGaussianBlur
         result="result0"
         in="SourceAlpha"
         stdDeviation="4"
         id="feGaussianBlur880" />
      <feOffset
         dx="5"
         dy="5"
         result="result4"
         id="feOffset882" />
      <feComposite
         in="SourceGraphic"
         in2="result4"
         operator="xor"
         result="result3"
         id="feComposite884" />
    </filter>
  </defs>
  <g
     inkscape:label="Layer 1"
     inkscape:groupmode="layer"
     id="layer1">
    <path
       style="display:inline;fill:#917c6f;stroke-width:0.431052;stroke-dashoffset:0.29;stroke-opacity:0.996073"
       d="m 28.358406,47.377826 c -1.005186,-0.808943 -1.44426,-1.690814 -2.126989,-4.272002 -0.29183,-1.103319 -0.594408,-2.069842 -0.672396,-2.14783 -0.174842,-0.174842 -0.175178,-0.205744 0.01311,1.20749 0.0852,0.639489 0.295933,1.648722 0.468284,2.242743 0.172352,0.59402 0.271946,1.121459 0.22132,1.172085 -0.134664,0.134662 -0.76972,-0.317577 -1.826506,-1.3007 -11.388127,-9.312512 -5.335775,6.030754 -9.827613,-10.687259 -0.386824,-1.463144 -0.417379,-1.523539 -0.488798,-0.966152 -0.110788,0.864642 0.07596,1.877661 0.534486,2.899404 0.221417,0.493384 0.363226,0.936412 0.315131,0.984507 -0.13073,0.130729 -0.915122,-0.454203 -2.408462,-1.796024 C 11.824211,34.052979 10.725589,33.078644 10.11859,32.5489 8.8055467,31.402973 8.268238,30.608602 7.8584905,29.207511 7.2684579,27.189952 7.1092813,26.754972 6.9610097,26.754972 c -0.1763195,0 -0.069185,0.783996 0.3199099,2.34106 0.2107027,0.843181 0.2273728,1.07763 0.076624,1.07763 -0.3934167,0 -2.8395918,-1.333843 -3.2699781,-1.783046 C 3.663623,27.948141 3.6391599,27.853339 3.5911405,26.466815 3.5313531,24.740502 3.722743,23.872369 4.7073016,21.403977 8.108634,14.273719 12.811634,7.3918531 19.92707,4.8835744 c 1.268064,-0.4342335 1.557669,-0.4784599 3.019504,-0.4611163 1.571741,0.018648 1.625728,0.00839 1.932303,-0.367144 0.173463,-0.2124801 0.526083,-0.6098626 0.7836,-0.8830722 0.921529,-0.9776868 1.978222,-0.5638051 4.085034,1.6000109 0.787507,0.8088157 1.551446,1.4705739 1.697641,1.4705739 0.146195,0 0.383335,-0.1063599 0.52698,-0.2363553 0.348441,-0.3153365 0.698321,-0.1821489 1.394558,0.5308627 l 0.576611,0.5905037 -0.918667,0.9566971 c -0.505268,0.5261835 -0.918668,1.029374 -0.918668,1.1182011 0,0.4106349 0.595531,0.078558 1.411589,-0.787123 l 0.894251,-0.948627 1.336778,1.1104223 c 1.577174,1.3101117 2.853254,2.5267137 3.085926,2.9420937 0.09158,0.163502 0.170262,0.497656 0.174838,0.742562 0.0078,0.417005 0.04136,0.442451 0.528554,0.400658 1.030993,-0.08844 3.291342,1.490195 4.686159,3.27283 0.447411,0.571811 0.812257,1.082983 0.810769,1.135939 -1.236933,2.291348 -0.581922,1.882723 0.751463,0.244921 0.878374,1.10035 2.008188,2.007749 2.908252,2.762664 2.130593,1.781904 2.883095,2.531964 2.883095,2.873742 -0.953679,3.570612 1.225088,-5.59144 7.670644,7.817451 1.607477,1.827021 3.649622,4.334295 3.583824,4.400094 -0.02199,0.02199 -0.72394,-0.194191 -1.559886,-0.480403 -0.905032,-0.309866 -1.955762,-0.555108 -2.597307,-0.606216 -1.269491,-0.101134 -1.496477,-0.234148 -1.371396,-0.803635 0.202649,-0.922658 -0.187817,-1.12082 -3.205699,-1.626906 -4.036039,-0.403857 -2.578685,-5.048521 -3.321859,-0.798331 -0.07622,0.198629 -0.790049,0.365024 -3.135694,0.73094 -2.074148,0.323563 -5.105273,1.371335 -7.730768,2.672302 -2.406983,1.192692 -3.691071,2.09955 -4.376362,3.090709 -0.473782,0.685243 -0.501175,0.714075 -1.527164,1.607441 -1.240311,1.079982 -2.624609,3.550624 -4.052767,7.233222 -0.388377,1.001453 -0.729256,1.820824 -0.757509,1.820824 -0.02825,0 -0.405035,-0.284618 -0.837291,-0.632484 z m 8.185211,-12.633523 c -4.12096,-2.54188 2.290427,-6.429586 -0.337932,0.502743 0.04384,0.07093 0.167112,0.128972 0.273937,0.128972 0.14984,0 0.164464,-0.14437 0.06399,-0.631715 z m -22.435661,-4.64496 c 0.01033,-0.939256 -0.207642,-1.357427 -0.355841,-0.682678 -0.138198,0.62921 0.06387,2.142978 0.230022,1.723149 0.06471,-0.163502 0.121325,-0.631714 0.125819,-1.040471 z m -0.615031,-2.097501 c -8.9952833,-18.6678947 -4.4976417,-9.333947 0,0 z M 37.97697,14.544865 c 0.286253,-0.543339 0.520461,-1.105527 0.520461,-1.249307 0,-0.242741 -0.02288,-0.241188 -0.320275,0.02174 -1.489105,1.961945 -1.665988,3.974379 -0.200186,1.227571 z M 21.035485,6.8652599 c -14.0236567,-4.5768399 -0.891286,-1.2718495 0,0 z m 9.546934,4.1398691 c 0.638772,-0.730777 0.776386,-1.046334 0.456304,-1.046334 -2.386447,4.554864 -3.694985,4.779788 -0.456304,1.046334 z M 21.971245,5.9083896 c 0.05657,-0.4916293 -0.143106,-0.5193488 -0.730121,-0.1013577 -0.586271,0.4174617 -0.542415,0.6115418 0.125694,0.5562464 0.48392,-0.040051 0.563595,-0.1000136 0.604427,-0.4548887 z"
       id="path519"
       sodipodi:nodetypes="ssssssccsssssssssssccssssssscssscsscsscccccssssccsssssssccsscssssccssccscccccssss" />
    <path
       style="display:inline;fill:#784421;stroke-width:0.431052;stroke-dashoffset:0.29;stroke-opacity:0.996073"
       d="m 35.850492,57.30355 c -0.332402,-0.729543 -1.229233,-1.564026 -1.68088,-1.564026 -0.389848,0 -0.42862,-0.04654 -0.42862,-0.514494 0,-0.37823 -0.213848,-0.828549 -0.807438,-1.700291 -1.147029,-1.68452 -1.180221,-1.759129 -1.296023,-2.913251 -0.05742,-0.572259 -0.149714,-1.375753 -0.2051,-1.785541 -0.08072,-0.597267 -0.02195,-0.980584 0.296281,-1.932303 0.461208,-1.379317 1.526019,-3.683299 2.196893,-4.753521 0.602456,-0.96108 1.891997,-2.642755 2.142411,-2.793895 0.106941,-0.06455 0.780918,-0.618151 1.497725,-1.230236 1.898259,-1.620929 5.33894,-3.2604 9.366938,-4.463311 0.7562,-0.225829 1.374909,-0.487347 1.374909,-0.58115 0,-0.0938 -0.166956,-0.327398 -0.371012,-0.519098 -0.521931,-0.49033 -0.356267,-0.538205 0.320213,-0.09254 0.686843,0.452494 1.894012,0.781579 3.609996,0.984114 3.44964,0.407157 4.422167,0.688687 4.549405,1.316975 0.198737,0.981355 0.36074,1.109318 1.634892,1.29137 1.344386,0.192087 2.823528,0.651074 3.708311,1.150712 0.535932,0.30264 0.599204,0.400573 0.641704,0.993226 0.05741,0.800489 -0.69359,7.759114 -0.855555,7.927491 -0.06354,0.06605 -0.390633,-0.0233 -0.726875,-0.198557 -0.413109,-0.215324 -0.746863,-0.288889 -1.029259,-0.226864 -0.334639,0.0735 -0.49975,0.0064 -0.828642,-0.336925 -0.434331,-0.453344 -1.083661,-0.495814 -1.242731,-0.08128 -0.05118,0.133366 -0.326406,0.203296 -0.800131,0.203296 -0.597559,0 -0.813814,-0.08051 -1.253698,-0.466733 -0.520615,-0.457105 -0.555215,-0.465068 -1.677358,-0.386055 -0.630178,0.04437 -1.445511,0.185018 -1.81185,0.312545 -0.579183,0.20162 -0.681809,0.203744 -0.78672,0.01628 -0.239278,-0.427568 -0.670415,-0.54072 -1.138329,-0.298753 -0.241199,0.124729 -1.027729,0.363687 -1.747847,0.531019 -0.720117,0.167332 -1.563767,0.47199 -1.874776,0.677018 -0.347606,0.229154 -0.674278,0.338244 -0.847882,0.283144 -0.477946,-0.151694 -3.256026,1.318683 -4.492054,2.377546 -1.37018,1.173786 -2.034247,1.98001 -2.775012,3.36906 -0.577166,1.082274 -2.244528,5.124882 -2.244528,5.441976 0,0.334302 -0.258638,0.311404 -0.417358,-0.03695 z M 56.892219,44.777418 c 0.04132,-0.125456 -0.111794,-0.185799 -0.471435,-0.185799 -0.292941,0 -0.532621,0.06131 -0.532621,0.136253 0,0.326434 0.89827,0.37076 1.004056,0.04955 z"
       id="path799" />
    <path
       style="display:inline;fill:#784421;stroke-width:0.431052;stroke-dashoffset:0.29;stroke-opacity:0.996073"
       d="M 34.369683,60.047211 C 32.245737,59.292412 26.807908,56.343648 23.856516,54.346252 21.529034,52.771096 18.506286,50.410849 15.458428,47.788794 14.109532,46.628344 11.824619,44.734944 10.380845,43.581238 8.93707,42.427531 7.471661,41.213294 7.12438,40.882934 6.5122894,40.300666 6.5010474,40.273342 6.7571475,39.990354 7.2319797,39.465671 6.9504593,38.639774 5.4122726,36.044892 4.4432133,34.410114 3.864607,32.911743 3.864607,32.037025 c 0,-0.730618 0.1437837,-0.893643 0.6713807,-0.761225 0.6142809,0.154175 3.3576864,2.081865 5.1335223,3.607138 2.825688,2.426994 4.136211,3.49597 6.160515,5.025049 1.062767,0.802772 2.479777,1.917137 3.148911,2.476366 1.528787,1.277685 2.174774,1.665 2.568539,1.540024 0.223146,-0.07082 0.302418,-0.02977 0.302418,0.156606 0,0.138924 0.13207,0.466282 0.293488,0.727462 0.322792,0.522289 3.605164,3.449262 5.448467,4.858534 1.618304,1.237251 1.770907,1.395457 2.182226,2.262321 0.47715,1.005606 3.008351,4.813625 4.534397,6.821689 0.66723,0.877984 1.130222,1.591449 1.028868,1.585475 -0.101354,-0.006 -0.536798,-0.136137 -0.967656,-0.289253 z"
       id="path659" />
    <g
       id="g446"
       transform="matrix(1.0222883,0,0,1.235533,-0.02114431,-8.61085)"
       style="display:inline;filter:url(#filter886)">
      <g
         id="g416"
         style="display:inline">
        <g
           id="g13445"
           transform="matrix(0.36802324,0,0,0.36802324,-417.53172,-284.86539)"
           style="display:inline">
          <path
             d="m 1193,797.3 c -6.3,1.8 -14.4,4.8 -17.8,6.7 -6.7,3.5 -19.9,14.8 -25.1,21.4 -4.2,5.3 -10.3,18.3 -10.9,23.3 -0.2,2.4 -0.8,4.3 -1.3,4.3 -1.4,0 -0.8,11.3 0.6,13 0.8,0.8 2.3,4.1 3.5,7.2 2.3,6.1 3.7,7.8 5,5.8 1.1,-1.8 2.2,0.4 1.5,3.2 -0.7,2.7 1.7,4.8 14,12.3 4.4,2.7 9.9,6.3 12.1,8.2 6.3,4.9 21,13.9 29.4,17.9 22.9,10.9 28.5,12.4 28.5,7.4 0,-2.1 -0.4,-2.5 -2.8,-2.2 -3,0.3 -10.5,-2.6 -26.2,-10.1 -6.5,-3.1 -19.2,-11 -27.7,-17.3 -3.7,-2.7 -10.8,-7.6 -15.9,-10.8 -5.2,-3.3 -8.8,-6.1 -8.1,-6.4 2.1,-0.7 1.3,-3.2 -3,-8.8 -3.8,-5.1 -5.4,-9.9 -3.6,-11 1.2,-0.8 10.1,4.2 17,9.4 3.5,2.6 9.3,6.6 12.8,8.7 3.6,2.1 8.6,5.4 11.3,7.3 3.9,2.8 5,3.2 6.2,2.2 1.9,-1.6 1.9,-2.9 0,-6.7 -0.8,-1.7 -2.1,-5.9 -2.9,-9.4 -0.8,-3.5 -1.4,-5.6 -1.5,-4.7 -0.2,2.8 2,12.1 3.6,15.1 1.1,2.2 1.1,2.7 0.1,2 -0.7,-0.4 -4.4,-2.8 -8.1,-5.2 -6.7,-4.3 -8.9,-7.2 -10.8,-14.1 l -0.7,-2.5 -0.1,2.5 c 0,1.4 0.6,3.6 1.5,4.8 2.7,3.9 0.7,3.7 -4.8,-0.6 -3,-2.3 -6.9,-5.1 -8.8,-6.4 -2.6,-1.8 -3.9,-3.7 -5.2,-7.8 -0.9,-3 -1.7,-4.7 -1.7,-3.8 -0.1,0.9 0.4,2.9 0.9,4.4 0.6,1.5 0.9,2.8 0.7,3 -0.2,0.2 -2.7,-0.6 -5.5,-1.8 -4.5,-2 -5.2,-2.7 -5.3,-5.3 -0.4,-5.2 0,-6.5 4.2,-15 5.2,-10.7 17.1,-22.9 28.9,-29.7 6.3,-3.7 15.2,-6 19.3,-5.3 2.7,0.5 3.8,0.3 4.8,-1.2 2.3,-3.2 4.8,-3.5 8.6,-1.2 1.9,1.2 4.5,3.3 5.8,4.7 1.9,2 2.7,2.3 3.8,1.4 1.1,-1 1.9,-0.8 3.7,0.6 l 2.3,1.8 -2.8,2.2 c -1.6,1.2 -2.6,2.5 -2.3,2.7 0.3,0.3 1.7,-0.6 3.2,-2 l 2.6,-2.4 6.6,4.6 c 4.5,3.1 6.3,5 5.9,6 -0.4,1.1 -0.1,1.3 1.1,0.9 1.9,-0.7 8.9,3.2 12.7,7.2 2.5,2.6 2.6,3 1.2,4.2 -0.8,0.7 -1.5,1.8 -1.5,2.4 0.1,0.6 1,0 2.1,-1.3 l 2,-2.4 2.2,2 c 1.2,1.1 4.8,3.7 8,5.8 6.1,4 6.3,4.4 4.6,7.8 -1,2.1 -0.9,2.1 0.8,-0.1 1.8,-2.2 2,-2.2 3.3,-0.7 0.8,0.9 3.9,3.6 7,6 5.8,4.5 20.4,18.4 19.8,19 -0.2,0.2 -2.1,-0.3 -4.3,-1.1 -2.2,-0.7 -5.6,-1.4 -7.7,-1.4 -3.1,0 -3.5,-0.3 -3.1,-1.9 0.5,-2.1 -0.5,-2.4 -10.4,-3.6 -4.6,-0.6 -5.2,-0.9 -5.6,-3.3 l -0.4,-2.7 -0.2,2.6 c -0.1,2.5 -0.4,2.6 -7,3.2 -8.3,0.7 -23.3,5.6 -30.4,10 -4.9,3 -6.2401,6.60717 -3.7401,7.30717 1.8,0.5 5.5401,-3.70717 9.6401,-5.70717 5.6,-2.7 15.5,-6 21.9,-7.4 2.9,-0.6 2.9,-0.7 1.1,-2.1 -2.5,-1.8 -1.2,-1.8 1.7,0 1.2,0.8 5.4,1.7 9.2,2 10.9,1 12.5,1.5 12.5,3.7 0,1.5 0.7,1.9 3.1,1.9 1.6,0 5.3,0.7 8.1,1.6 5,1.7 5,1.7 4.5,5.3 -0.3,2 -0.9,6.4 -1.3,9.8 -0.4,3.5 -0.9,6.3 -1.1,6.3 -0.2,0 -1.3,-0.5 -2.4,-1 -1.9,-1.1 -5.9,0.2 -5.9,1.8 0,1 8.8,4.5 9.8,3.8 2.5,-1.5 6.5,-25.6 4.3,-25.6 -1.7,0 -1.3,-2.1 0.6,-3.5 1.5,-1.1 0.6,-2.3 -7.8,-10.6 -10.3,-10.2 -23.3,-21.5 -29.5,-25.6 -2.1,-1.4 -6.4,-4.7 -9.4,-7.3 -3,-2.6 -7.5,-6 -10,-7.6 -2.4,-1.6 -7.3,-5 -10.8,-7.7 -7.1,-5.3 -13.3,-8.7 -15.8,-8.7 -0.9,0 -3.3,-1.3 -5.3,-2.9 -3.8,-3 -9.4,-6.1 -10.8,-6 -0.4,0 -6,1.5 -12.3,3.2 z"
             id="path152"
             style="display:inline;fill:#000000;stroke:none;stroke-width:0.1"
             sodipodi:nodetypes="ccccscccccccsccccccccccccscccccccccccccscccccccccccccccccccccccccccccscscccccccccccccsscccscscscccsccsccc" />
          <path
             d="m 1222.5,881.1 c -2.1,2.3 -5.2,7.3 -6.9,11 l -3.2,6.8 -3,-1.8 c -2,-1.2 -3.4,-3.2 -4.3,-6.2 -2.6,-8.6 -3.1,-9.6 -2.4,-5.4 0.3,2.2 1,4.8 1.5,5.8 1.6,3.2 0.1,3.1 -4,-0.2 -4.4,-3.5 -5.4,-3.7 -7.1,-1.7 -0.9,1.1 0.3,2.4 6.3,6.7 4.1,3 8.8,6.2 10.5,7.1 1.7,1 3.5,2.6 3.9,3.6 1.2,3.1 16.8479,21.41732 17.9479,20.71732 2.7,-1.6 -3.6479,-12.91732 -6.5479,-11.81732 -1,0.4 -1.3,0.1 -1,-0.8 0.3,-0.8 -1,-3 -2.9,-4.9 -2.1,-2.3 -3.1,-4.1 -2.7,-5.3 0.3,-1 0,-2.4 -0.6,-3.2 -1.8,-2.2 4,-13.9 9.8,-19.8 l 4.6,-4.7 h -3.1 c -2.3,0 -4,1 -6.8,4.1 z"
             id="path230"
             style="fill:#000000;stroke:none;stroke-width:0.1"
             sodipodi:nodetypes="cccsccscccccccccccccsc" />
          <path
             d="m 1267.9,891.5 c -0.3,0.2 -2.2,0.7 -4.3,1 -2.1,0.2 -4.5,1 -5.2,1.6 -0.8,0.7 -1.7,0.9 -2.1,0.6 -0.3,-0.4 -1.5,-0.1 -2.7,0.5 -1.1,0.7 -2.7,1.3 -3.3,1.4 -2.2,0.4 -7.7,4.2 -11,7.6 -3.5,3.6 -11.1257,19.93726 -9.6257,21.43726 1.7,1.7 6.1257,-3.53726 7.8257,-8.83726 2.4,-7.3 9,-14 17.1,-17.2 8.4,-3.4 18.3,-5 26.5,-4.3 5.8,0.5 7.2,0.3 9.1,-1.3 l 3.9324,1.40367 L 1290.3,892 c -1.3,0 -2.3,0.4 -2.3,0.8 0,0.5 -1.3,0.7 -3,0.4 -1.6,-0.2 -3,-0.9 -3,-1.4 0,-1.1 -7.9,-0.6 -9.8,0.6 -0.6,0.4 -1.2,0.2 -1.2,-0.3 0,-1.1 -2.2,-1.5 -3.1,-0.6 z"
             id="path232"
             style="fill:#000000;stroke:none;stroke-width:0.1"
             sodipodi:nodetypes="cccccccsccccccscscsc" />
          <path
             d="m 1283.8,891.7 c 0.7,0.3 1.6,0.2 1.9,-0.1 0.4,-0.3 -0.2,-0.6 -1.3,-0.5 -1.1,0 -1.4,0.3 -0.6,0.6 z"
             id="path234"
             style="fill:#000000;stroke:none;stroke-width:0.1" />
        </g>
      </g>
    </g>
    <path
       style="fill:none;fill-opacity:1;stroke:#d40000;stroke-width:2.035;stroke-dasharray:none"
       d="m 4.1185285,28.705573 c 0,0 7.2985775,-5.591787 26.2435545,-5.798361 19.319777,-0.210661 25.08811,4.890244 25.08811,4.890244"
       id="path4207"
       sodipodi:nodetypes="csc" />
  </g>
  <g
     inkscape:groupmode="layer"
     id="layer2"
     inkscape:label="Layer 2">
    <path
       style="display:inline;fill:#d2d2d2;fill-opacity:1;stroke:#000000;stroke-width:2.76795;stroke-dasharray:none"
       d="M 49.857268,21.195479 43.995651,4.5440699 55.910585,4.4085816 Z"
       id="path933" />
    <path
       style="display:inline;fill:#d2d2d2;fill-opacity:1;stroke:#000000;stroke-width:2.76795;stroke-dasharray:none"
       d="M 9.9456786,22.613009 4.0840612,5.9616002 15.998996,5.8261122 Z"
       id="path933-3" />
  </g>
</svg>
