<?xml version="1.0" encoding="UTF-8" standalone="no"?>
<!-- Created with Inkscape (http://www.inkscape.org/) -->

<svg
   width="64.0px"
   height="64.0px"
   viewBox="0 0 64.0 64.0"
   version="1.1"
   id="SVGRoot"
   sodipodi:docname="FEM_MaterialFibreCompositeLamina.svg"
   inkscape:version="1.2.2 (b0a8486541, 2022-12-01)"
   xmlns:inkscape="http://www.inkscape.org/namespaces/inkscape"
   xmlns:sodipodi="http://sodipodi.sourceforge.net/DTD/sodipodi-0.dtd"
   xmlns="http://www.w3.org/2000/svg"
   xmlns:svg="http://www.w3.org/2000/svg">
  <sodipodi:namedview
     id="namedview2306"
     pagecolor="#505050"
     bordercolor="#eeeeee"
     borderopacity="1"
     inkscape:showpageshadow="0"
     inkscape:pageopacity="0"
     inkscape:pagecheckerboard="0"
     inkscape:deskcolor="#505050"
     inkscape:document-units="px"
     showgrid="true"
     inkscape:zoom="4.7572176"
     inkscape:cx="51.921106"
     inkscape:cy="27.432001"
     inkscape:window-width="1536"
     inkscape:window-height="891"
     inkscape:window-x="0"
     inkscape:window-y="32"
     inkscape:window-maximized="1"
     inkscape:current-layer="layer1">
    <inkscape:grid
       type="xygrid"
       id="grid2501" />
  </sodipodi:namedview>
  <defs
     id="defs2301" />
  <g
     inkscape:label="Layer 1"
     inkscape:groupmode="layer"
     id="layer1">
    <path
       style="fill:#916f6f;stroke-width:0.215526;stroke-dashoffset:0.29;stroke-opacity:0.996073"
       d=""
       id="path1935" />
    <path
       style="fill:#916f6f;stroke-width:0.215526;stroke-dashoffset:0.29;stroke-opacity:0.996073"
       d=""
       id="path1939" />
    <g
       id="g679"
       transform="matrix(1.0523384,0,0,1.4210364,-2.7491829,-12.122426)">
      <g
         id="g9930"
         transform="matrix(0.34199581,0,0,0.34199581,-300.91467,-115.0948)">
        <path
           d="m 963.3,365 c -1.8,1.1 -3.3,2.6 -3.3,3.3 0,1.7 -8.3,7.7 -32.2,23.2 -16.1,10.5 -33.3,26.1 -36.4,33.1 -0.7,1.7 -1.6,6 -2,9.6 l -0.6,6.4 6.1,7.1 c 6,6.8 8.3,8.4 14.4,9.7 1.5,0.4 2.7,1.3 2.7,2.1 0,2 6.8,2 9.8,0 1.6,-1.2 2,-1.3 1.7,-0.2 -1,2.5 4,5.5 14,8.2 15.3,4.1 24.2,7.2 33,11.4 4.4,2.1 10,4.6 12.5,5.5 3.9,1.4 4.6,2.1 4.5,4.4 0,4 3,4 7.1,0 1.9,-1.8 6.9,-7.4 11.1,-12.3 4.1,-5 11.9,-13.1 17.2,-18 5.3,-5 13.1,-12.8 17.5,-17.5 4.3,-4.7 11,-11.5 14.9,-15.2 6.7,-6.3 7.1,-6.9 6.1,-9.5 -0.9,-2.6 -1.4,-2.8 -5.4,-2.5 -4.8,0.3 -12.7,-2 -25.8,-7.6 -5.4,-2.3 -10.2,-3.7 -13.5,-3.8 -2.9,-0.1 -6.8,-0.5 -8.7,-0.9 -3.3,-0.6 -3.6,-0.9 -3.2,-4 0.3,-2.3 -0.4,-4.5 -2.2,-7.4 -1.4,-2.2 -2.6,-4.4 -2.6,-4.9 0,-2.2 -8.1,-13.1 -10.2,-13.7 -1.3,-0.4 -5.3,-2.5 -8.9,-4.6 -7.5,-4.5 -12.5,-5 -17.6,-1.9 z m 15.1,9 c 1.4,0.5 2.6,1.3 2.6,1.8 0,0.5 -2.7,2.4 -6.1,4.2 l -6.1,3.2 -2.9,-2.8 c -3.6,-3.4 -2.4,-5.4 3.2,-5.4 2.2,0 3.9,-0.5 3.9,-1 0,-1.3 2.1,-1.3 5.4,0 z m 9.2,8.5 c 1.4,2.5 2.5,4.7 2.3,4.8 -0.2,0.1 -3.6,1.9 -7.4,3.9 l -7,3.7 -2.8,-5.2 c -1.5,-2.9 -2.4,-5.3 -2,-5.5 0.5,-0.1 3.1,-1.5 5.8,-3.2 2.8,-1.6 5.8,-2.9 6.7,-2.9 1,-0.1 2.8,1.8 4.4,4.4 z m -23.3,-0.7 2.7,2.8 -8.5,4.8 -8.5,4.8 -3.6,-2.7 -3.6,-2.7 4.9,-3.5 c 5.3,-3.8 9.9,-6.2 12.4,-6.3 0.8,0 2.7,1.3 4.2,2.8 z m 6.9,8.6 c 1.1,2.4 1.9,5 1.6,5.7 -0.3,0.8 -3.3,3.3 -6.6,5.6 -5.6,4 -6.1,4.1 -6.7,2.3 -0.4,-1.1 -2.2,-3.5 -4.2,-5.3 l -3.5,-3.4 7.8,-4.6 c 4.4,-2.5 8.2,-4.6 8.7,-4.7 0.4,0 1.7,2 2.9,4.4 z m -26.2,2.3 3.2,2.6 -6.8,4.3 c -4.1,2.6 -7.2,4 -7.9,3.4 -0.5,-0.4 -2.5,-1.4 -4.4,-2.2 l -3.4,-1.4 5.4,-3.7 c 3,-2 6.2,-3.7 7.2,-3.7 0.9,0 1.7,-0.5 1.7,-1 0,-1.7 1.7,-1.1 5,1.7 z m 46.4,0.4 c 0.4,1.9 1.3,3.3 2.6,3.6 3.4,0.9 2.2,3.2 -4,7.6 -3.4,2.3 -9.3,7 -13.3,10.5 -6.2,5.4 -38.8,28.2 -40.3,28.2 -0.3,0 -0.2,-0.5 0.1,-1 0.4,-0.6 0.1,-3.6 -0.5,-6.7 l -1.2,-5.7 3.2,-2.9 3.3,-2.9 1.6,2.6 c 0.8,1.4 2.2,2.6 3,2.6 1.1,0 1.1,-0.4 -0.2,-1.8 -3,-3.3 -2,-5.5 5.2,-11.5 3.8,-3.1 7.4,-5.7 8,-5.7 0.5,0 1.5,2.5 2.2,5.5 0.7,3 1.5,5.5 1.9,5.5 0.7,0 0.3,-2.7 -1.5,-10.5 -0.6,-2.8 -0.2,-3.3 5.4,-7.3 3.3,-2.3 6.4,-4.2 6.9,-4.2 1.2,0 2.2,3.5 2.2,7.7 0,1.8 0.5,3.3 1.1,3.3 0.7,0 0.9,-1.2 0.6,-3.3 -2,-11.3 -2.5,-9.8 4.5,-13.4 3.5,-1.8 6.8,-3.3 7.4,-3.3 0.6,0 1.4,1.4 1.8,3.1 z m -36.8,7.3 c 1.9,1.9 3.4,4.3 3.4,5.4 0,1.2 -2.8,4.3 -7.5,8.1 -4.1,3.4 -7.5,5.6 -7.5,4.9 0,-0.8 -1.6,-4.1 -3.5,-7.3 -2,-3.2 -3.2,-6.2 -2.8,-6.5 2.5,-2.2 12,-8 13.1,-8 0.8,0 2.9,1.5 4.8,3.4 z m -22.9,3.7 c 1.1,1 0.3,1.9 -3.9,4.6 -2.9,1.9 -6.1,4.2 -7,5 -1.6,1.4 -2,1.4 -4.2,-0.1 -1.4,-0.9 -3.3,-1.6 -4.3,-1.6 -1.3,-0.1 -0.4,-1.3 3,-4.4 3.3,-3 5.5,-4.2 6.8,-3.9 1.1,0.3 1.9,0 1.9,-0.7 0,-1.5 5.5,-0.6 7.7,1.1 z m 77.6,4.3 2.8,1.1 -5,3.8 c -5,3.8 -5,3.8 -12,3.1 l -7,-0.6 7.2,-4.8 c 7.3,-4.9 8,-5 14,-2.6 z m -70.5,5.7 3.4,6.4 -4.2,3.8 -4.3,3.7 -5.2,-5.5 c -2.9,-3 -5.8,-5.5 -6.4,-5.5 -2.5,0 -0.7,-2 5.2,-5.9 3.4,-2.2 6.6,-3.9 7.1,-3.8 0.5,0.2 2.5,3.2 4.4,6.8 z M 1019,412 c 2.2,1.1 5.1,2 6.5,2 3.3,0 3.2,0.8 -1,5.4 -3.2,3.4 -3.9,3.7 -7,3.2 -5.1,-1 -12.6,-4.6 -11.9,-5.7 0.6,-1 8.4,-6.9 9.1,-6.9 0.2,0 2.1,0.9 4.3,2 z m 23,5.7 c 3,0.9 5.8,1.9 6.3,2.3 0.9,0.8 -15.6,16 -17.4,16 -1.4,0 -15.2,-4 -15.8,-4.6 -0.9,-0.8 4.3,-5.4 6.1,-5.4 1.1,0 3.1,0.6 4.6,1.4 4.4,2.3 10.2,3.1 10.2,1.5 0,-0.9 -1.3,-1.5 -3.4,-1.6 -1.9,-0.1 -4.8,-0.9 -6.6,-1.8 l -3.2,-1.7 4.3,-4.4 c 4.8,-4.9 4.3,-4.8 14.9,-1.7 z m -43.1,1 c 0.3,0.2 -0.6,1.5 -2,2.8 -2.7,2.8 -1.5,2.9 -13.9,-1.2 -1.2,-0.4 -1.1,-0.7 0.5,-1.9 1.5,-1.2 3.5,-1.3 8.5,-0.8 3.6,0.3 6.7,0.8 6.9,1.1 z m -88.8,1.1 c 0.9,1.1 2.5,2.5 3.7,3.3 2.4,1.7 7.1,11.6 8.2,17.4 1.1,5.4 -0.8,10 -4.6,10.9 -1.8,0.5 -3,0.3 -3.2,-0.3 -0.2,-0.6 -0.8,-1.1 -1.3,-1.1 -2.1,0 -9.2,-6.6 -11,-10.2 -3.4,-6.7 -1.8,-16.6 3.2,-20.2 2.9,-2 3.1,-2 5,0.2 z m 98.7,1.6 c 3.1,1.2 6.6,2.6 7.6,3 1.9,0.6 1.8,0.8 -0.6,3.2 l -2.5,2.6 -8.7,-2.8 -8.7,-2.7 3.2,-2.8 c 1.8,-1.6 3.4,-2.9 3.6,-2.9 0.2,0 2.9,1.1 6.1,2.4 z m -21.9,2 c 4.7,1.4 6.2,3 3.7,3.9 -2.1,0.8 -9.6,-2.3 -9.6,-4 0,-1.6 0.4,-1.6 5.9,0.1 z m -4,3.8 c 4.7,1.9 5.1,2.3 3.6,3.7 -1.2,1.3 -1.9,1.3 -3.3,0.3 -0.9,-0.7 -3.2,-2 -4.9,-2.9 -3.4,-1.7 -4.3,-3.3 -1.9,-3.3 0.7,0 3.7,1 6.5,2.2 z m 21.8,2.2 c 5.3,1.8 6.2,2.4 5.1,3.4 -1.2,0.9 -2.7,0.9 -6.9,-0.4 -9.5,-2.7 -11.1,-3.5 -9.8,-5.1 0.7,-0.8 2,-1.1 3.1,-0.7 1.1,0.3 4.9,1.6 8.5,2.8 z m -23.9,2.7 2.4,1.8 -2.7,2.5 -2.6,2.5 -6.5,-2.5 c -3.5,-1.3 -6.7,-2.4 -6.9,-2.4 -1.8,0 0.2,-2.2 3.7,-4.3 4,-2.4 4.4,-2.4 7.3,-1 1.6,0.9 4.1,2.4 5.3,3.4 z m 24.4,5.2 c -1.9,1.8 -2.1,1.8 -8.8,-0.2 -9.1,-2.8 -10.5,-3.7 -8.1,-5.5 1.5,-1.1 3,-1 10.2,1.2 8.4,2.5 8.5,2.6 6.7,4.5 z M 930.9,436 c 0,1 -0.3,0.8 -0.9,-0.5 -1.2,-2.7 -1.2,-4.3 0,-2.5 0.5,0.8 0.9,2.2 0.9,3 z m 89.5,-0.9 c 3.9,1.1 7.7,2.2 8.3,2.4 0.7,0.2 1,1.1 0.7,2 -0.6,1.4 -0.8,1.4 -1.8,-0.1 -0.7,-0.9 -1.9,-1.5 -2.7,-1.3 -2.1,0.4 -13.8,-3.4 -13.3,-4.3 0.7,-1.1 0.7,-1.1 8.8,1.3 z m -52,2 c 3.4,1.2 6.4,2.4 6.8,2.8 0.5,0.4 -0.9,2.3 -3,4.4 l -3.7,3.6 -5.5,-1.3 c -3,-0.7 -6.6,-1.8 -7.9,-2.5 l -2.3,-1.3 3.8,-3.9 c 2.1,-2.1 4.2,-3.9 4.8,-3.9 0.5,0 3.7,1 7,2.1 z m 24.6,0.6 c 4.4,1.5 8,3 8,3.3 0,0.4 -0.8,1.4 -1.8,2.3 -1.7,1.6 -2.4,1.5 -9.8,-0.9 -4.3,-1.5 -8.1,-2.8 -8.3,-3 -0.4,-0.4 2.9,-4.4 3.6,-4.4 0.2,0 3.9,1.2 8.3,2.7 z m 22,-0.3 c 2.5,0.8 6.2,2.2 8.3,3.1 4.2,1.7 4.2,1.8 -1.1,7.6 -2.2,2.5 -2.6,2.6 -7,1.7 -6.6,-1.3 -14.2,-3.8 -14.2,-4.7 0,-0.4 0.5,-1.2 1.1,-1.8 0.7,-0.7 2.5,-0.2 6.2,1.8 7.1,3.9 8.9,3.7 4.7,-0.6 -2,-2 -3.7,-3.1 -4,-2.5 -0.6,1 -4,0.3 -4,-0.8 0,-0.8 4.2,-5.2 4.9,-5.2 0.3,0 2.6,0.7 5.1,1.4 z m -27.1,6.1 c 4.5,1.4 8.1,2.9 8.1,3.3 0,0.3 -1.6,2.3 -3.6,4.3 l -3.5,3.6 -7.8,-2.2 c -10.9,-3.1 -10.9,-3.1 -6.5,-7.6 2.1,-2.2 4.1,-3.9 4.6,-3.9 0.4,0 4.3,1.1 8.7,2.5 z m -29.2,4.7 c 2.9,1.2 5.3,2.5 5.3,2.8 0,0.3 -1.3,1.9 -3,3.5 -1.6,1.6 -3,3.6 -3,4.4 0,0.9 1.7,-0.1 4.3,-2.7 l 4.4,-4.3 7.9,3.1 c 4.3,1.7 8.3,3.6 8.9,4.1 1.1,1.1 -5.9,8.7 -9.2,10 -1.3,0.5 -2.3,1.5 -2.3,2.4 0,1.8 -0.9,1.9 -3.3,0.1 -1.8,-1.4 -13.2,-5.2 -28.5,-9.7 -8.4,-2.4 -8.5,-1.6 1.8,-10.3 7.4,-6.2 9.1,-6.6 16.7,-3.4 z m 44.7,0.2 c 1.9,0.8 6,1.9 9.1,2.6 l 5.6,1.2 -10.1,10.4 c -5.5,5.7 -10,11.1 -10,11.9 0,2.5 -3.1,6.5 -5,6.5 -1.1,0 -2,-0.9 -2.2,-2.2 -0.4,-2.8 -2.6,-3.5 -3,-0.9 -0.3,1.9 -0.6,1.9 -7.6,-1.1 l -7.4,-3.1 6.7,-6.7 6.6,-6.7 4.6,1.6 c 3.5,1.2 4.7,1.3 5,0.4 0.4,-1 1.1,-0.9 3.3,0.2 3.7,1.9 6,1.9 6,0.1 0,-1.8 -1.7,-3 -2.2,-1.6 -0.4,1.1 -11.7,-4.1 -11.8,-5.5 0,-1.1 7.1,-8.5 8.2,-8.5 0.5,0 2.4,0.6 4.2,1.4 z m -75.9,8.6 c -0.3,0.5 -1,1 -1.6,1 -0.5,0 -0.9,-0.5 -0.9,-1 0,-0.6 0.7,-1 1.6,-1 0.8,0 1.2,0.4 0.9,1 z m 58,0 c 0.3,0.6 -0.1,0.7 -0.9,0.4 -1.8,-0.7 -2.1,-1.4 -0.7,-1.4 0.6,0 1.3,0.4 1.6,1 z m 6.5,2.5 c 1.6,0.9 1.9,1.4 0.9,1.5 -0.8,0 -2.4,-0.7 -3.5,-1.5 -2.4,-1.8 -0.7,-1.9 2.6,0 z"
           id="path72"
           style="fill:#000000;stroke:none;stroke-width:0.1" />
      </g>
      <path
         style="fill:#916f6f;stroke-width:0.6096;stroke-dashoffset:0.29;stroke-opacity:0.996073"
         d="m 17.361292,30.009177 c -0.525048,-0.60815 -1.435712,-1.484099 -2.023699,-1.946555 l -1.069067,-0.840827 0.801048,-0.70058 c 0.440576,-0.385319 1.400033,-1.036313 2.132127,-1.446655 1.582179,-0.886818 1.462944,-0.955997 2.94857,1.710731 l 1.044988,1.875772 -1.066383,0.962021 c -1.839711,1.659669 -1.686492,1.638293 -2.767584,0.386093 z"
         id="path1893" />
      <path
         style="fill:#916f6f;stroke-width:0.6096;stroke-dashoffset:0.29;stroke-opacity:0.996073"
         d="m 20.600277,25.742184 -1.156138,-2.211653 0.525517,-0.403791 c 0.829138,-0.637084 3.710519,-2.316256 3.974587,-2.316256 0.355417,0 2.108099,1.676785 2.456097,2.349739 0.289611,0.560046 0.268918,0.622053 -0.489105,1.465589 -0.79743,0.88739 -3.743595,3.333286 -4.010936,3.329866 -0.07914,-10e-4 -0.664146,-0.997085 -1.300022,-2.213494 z"
         id="path1895" />
      <path
         style="fill:#916f6f;stroke-width:0.6096;stroke-dashoffset:0.29;stroke-opacity:0.996073"
         d="m 19.29768,33.990823 -0.356322,-2.144476 0.987115,-0.881039 c 0.897833,-0.801351 1.011645,-0.848883 1.258333,-0.525517 0.695063,0.91111 1.117676,1.301452 1.409047,1.301452 0.434213,0 0.39693,-0.35721 -0.103714,-0.993675 -0.231227,-0.293958 -0.420414,-0.678322 -0.420414,-0.854142 0,-0.544167 1.02656,-1.701191 2.663519,-3.002022 2.476141,-1.967699 2.280249,-1.982389 2.939658,0.220449 0.549099,1.834334 0.913063,2.401653 0.913401,1.423735 9e-5,-0.260131 -0.155054,-1.254914 -0.344763,-2.210628 -0.331881,-1.671945 -0.3299,-1.754482 0.05239,-2.182407 0.561451,-0.628475 3.693491,-2.702793 3.893933,-2.578913 0.245879,0.151961 0.599423,1.55567 0.604462,2.399948 0.0057,0.960151 0.302946,1.460745 0.657044,1.106648 0.199896,-0.199897 0.201819,-0.551223 0.0088,-1.599031 -0.348325,-1.890431 -0.31376,-2.745741 0.127088,-3.144702 0.392795,-0.355475 3.493223,-1.828295 3.848737,-1.828295 0.113317,0 0.388759,0.426286 0.612092,0.947302 0.242993,0.566878 0.619865,1.044717 0.938461,1.189879 0.29282,0.133418 0.5324,0.350086 0.5324,0.481486 0,0.312485 -1.258443,1.483019 -2.837793,2.639559 -0.693683,0.507976 -2.0685,1.593738 -3.055149,2.412805 -2.605275,2.16277 -9.558059,7.142102 -13.446266,9.62973 l -0.525689,0.33633 z"
         id="path1897" />
      <path
         style="fill:#916f6f;stroke-width:0.6096;stroke-dashoffset:0.29;stroke-opacity:0.996073"
         d="m 27.326898,23.025347 c 0,-0.169191 -0.56044,-0.906732 -1.245423,-1.638981 l -1.245423,-1.331361 2.454113,-1.393592 c 1.349762,-0.766476 2.587847,-1.424183 2.7513,-1.461571 0.336584,-0.07699 1.17101,1.239502 1.483742,2.340932 0.253436,0.89259 -1.79e-4,1.20582 -2.217311,2.738523 -1.603421,1.108444 -1.980998,1.250641 -1.980998,0.74605 z"
         id="path1899" />
      <path
         style="fill:#916f6f;stroke-width:0.6096;stroke-dashoffset:0.29;stroke-opacity:0.996073"
         d="m 31.890472,18.148112 c -0.418915,-0.886235 -0.725213,-1.670317 -0.680661,-1.742403 0.04455,-0.07209 0.985532,-0.595216 2.091066,-1.162511 l 2.010063,-1.031444 0.615556,0.58974 c 0.628011,0.601672 1.662877,2.343898 1.484026,2.498398 -0.167825,0.144974 -4.551137,2.459557 -4.657863,2.459557 -0.05529,0 -0.443272,-0.725101 -0.862187,-1.611337 z"
         id="path1901" />
      <path
         style="fill:#916f6f;stroke-width:0.6096;stroke-dashoffset:0.29;stroke-opacity:0.996073"
         d="m 29.558531,14.924085 c -0.418101,-0.462788 -0.760184,-0.938095 -0.760184,-1.056237 0,-0.310834 0.950022,-0.624813 1.890531,-0.624813 0.446671,0 0.954019,-0.141889 1.127439,-0.31531 0.402269,-0.402269 0.76316,-0.397052 1.821289,0.02633 0.776679,0.310765 0.82526,0.373212 0.537612,0.69106 -0.282535,0.312197 -3.478915,2.120406 -3.748253,2.120406 -0.05954,0 -0.450333,-0.378645 -0.868434,-0.841433 z"
         id="path1903" />
      <path
         style="fill:#916f6f;stroke-width:0.6096;stroke-dashoffset:0.29;stroke-opacity:0.996073"
         d="m 22.912553,18.786788 c -0.520262,-0.407455 -0.973396,-0.816059 -1.006964,-0.90801 -0.06981,-0.191215 3.621588,-2.629477 4.468188,-2.951354 0.308042,-0.117117 0.742832,-0.21294 0.9662,-0.21294 0.384688,0 2.08899,1.357779 2.08899,1.664251 0,0.133041 -5.297074,3.183896 -5.486047,3.159693 -0.04644,-0.0059 -0.510105,-0.344185 -1.030367,-0.75164 z"
         id="path1905" />
      <path
         style="fill:#916f6f;stroke-width:0.6096;stroke-dashoffset:0.29;stroke-opacity:0.996073"
         d="m 17.289518,22.115839 c -0.606972,-0.295411 -1.103586,-0.604262 -1.103586,-0.686335 0,-0.21746 2.485593,-1.800315 3.468414,-2.208726 0.462455,-0.192174 0.899963,-0.443491 0.972239,-0.558483 0.192171,-0.305744 0.808615,-0.03534 1.74046,0.76345 l 0.820837,0.703635 -2.175929,1.286483 c -1.196761,0.707566 -2.275586,1.275369 -2.397389,1.261786 -0.121803,-0.01358 -0.718073,-0.266398 -1.325046,-0.56181 z"
         id="path1907" />
      <path
         style="fill:#916f6f;stroke-width:0.6096;stroke-dashoffset:0.29;stroke-opacity:0.996073"
         d="m 12.242428,26.130637 c -1.301034,-0.606126 -1.282517,-0.706401 0.382678,-2.072357 0.767363,-0.629465 1.339679,-0.93552 1.749403,-0.93552 0.334916,0 0.720287,-0.15228 0.856381,-0.338399 0.220925,-0.302133 0.358405,-0.30706 1.282803,-0.04597 1.747659,0.493607 1.618194,0.662363 -2.815431,3.669875 -0.274824,0.186424 -0.587924,0.126716 -1.455834,-0.277626 z"
         id="path1909" />
      <path
         style="fill:#916f6f;stroke-width:0.6096;stroke-dashoffset:0.29;stroke-opacity:0.996073"
         d="M 11.885249,39.112333 C 11.806923,38.985599 11.430054,38.751219 11.047762,38.591487 10.228306,38.249096 8.1420114,36.222595 7.6707334,35.311244 6.5038079,33.054659 7.0581375,29.655474 8.7843487,28.482483 l 0.7364013,-0.500397 1.235716,1.074792 c 1.971079,1.714393 3.537604,5.048096 3.537604,7.528336 0,1.066614 -0.08298,1.335325 -0.578069,1.871831 -0.627003,0.679462 -1.600467,1.027898 -1.830752,0.655288 z"
         id="path1911" />
      <path
         style="fill:#916f6f;stroke-width:0.6096;stroke-dashoffset:0.29;stroke-opacity:0.996073"
         d="m 30.269795,46.031688 c -0.713284,-0.394021 -6.622966,-2.395899 -9.932277,-3.364514 -0.941676,-0.275623 -1.629103,-0.591043 -1.629103,-0.747501 0,-0.341826 3.783298,-3.514161 4.722433,-3.95981 0.385759,-0.183054 0.953791,-0.332826 1.262294,-0.332826 0.571458,0 3.60345,1.169776 3.782375,1.459282 0.05409,0.08752 -0.324112,0.654045 -0.840447,1.258948 -0.913068,1.069685 -1.175438,1.696115 -0.710391,1.696115 0.12562,0 0.81142,-0.553549 1.524,-1.230107 l 1.295599,-1.230108 1.261241,0.502352 c 3.017383,1.201821 4.309242,1.821967 4.309242,2.068616 0,0.438814 -1.87864,2.386259 -2.852515,2.956987 -0.50159,0.293952 -0.969979,0.717191 -1.040864,0.940531 -0.157111,0.495012 -0.224874,0.493955 -1.151587,-0.01796 z"
         id="path1913" />
      <path
         style="fill:#916f6f;stroke-width:0.6096;stroke-dashoffset:0.29;stroke-opacity:0.996073"
         d="m 38.13079,48.820555 c -0.356362,-1.153241 -1.014761,-1.445563 -1.338429,-0.594249 l -0.205281,0.539929 -1.109125,-0.448346 c -0.610019,-0.246591 -1.605534,-0.648214 -2.212255,-0.892496 -0.606721,-0.244282 -1.079686,-0.510069 -1.051034,-0.590638 0.02865,-0.08057 0.988779,-1.098853 2.133616,-2.262853 l 2.08152,-2.116365 1.13202,0.423543 c 1.282115,0.479701 2.092694,0.54221 2.216455,0.170925 0.06024,-0.180722 0.390403,-0.120896 1.160072,0.210207 1.632265,0.702181 2.121209,0.567435 1.850778,-0.510049 -0.115601,-0.460589 -0.213037,-0.510912 -0.757639,-0.391298 -0.479297,0.105272 -0.993001,-0.04458 -2.203828,-0.642857 -0.868369,-0.429069 -1.629378,-0.861878 -1.69113,-0.961796 -0.06175,-0.09992 0.490186,-0.799129 1.226531,-1.553802 l 1.338809,-1.372133 0.932514,0.3387 c 0.512883,0.186286 1.944892,0.597999 3.182241,0.914918 l 2.249725,0.576218 -1.169213,1.139083 c -2.441785,2.37886 -5.184371,5.570717 -5.578602,6.492447 -0.703015,1.643686 -1.895122,2.477883 -2.187745,1.530912 z"
         id="path1915" />
      <path
         style="fill:#916f6f;stroke-width:0.6096;stroke-dashoffset:0.29;stroke-opacity:0.996073"
         d="m 34.194308,39.420712 c -1.252126,-0.38076 -2.383267,-0.798967 -2.513648,-0.929348 -0.31313,-0.31313 1.857788,-2.54735 2.470782,-2.542828 0.858138,0.0063 5.367457,1.574133 5.367457,1.866161 0,0.346287 -2.259241,2.333109 -2.634196,2.316565 -0.227592,-0.01004 -1.43827,-0.329789 -2.690395,-0.71055 z"
         id="path1917" />
      <path
         style="fill:#916f6f;stroke-width:0.6096;stroke-dashoffset:0.29;stroke-opacity:0.996073"
         d="m 27.885833,37.397403 c -0.790916,-0.225489 -1.725294,-0.558529 -2.076393,-0.74009 l -0.638364,-0.330111 1.228986,-1.241945 c 0.675942,-0.683069 1.389948,-1.241945 1.586679,-1.241945 0.357355,0 3.804379,1.159227 4.367685,1.468843 0.228229,0.125444 0.0368,0.439773 -0.818768,1.344406 -1.269907,1.342739 -1.426876,1.374601 -3.649825,0.740842 z"
         id="path1919" />
      <path
         style="fill:#916f6f;stroke-width:0.6096;stroke-dashoffset:0.29;stroke-opacity:0.996073"
         d="m 31.055834,33.995007 c -2.566528,-0.963736 -2.58511,-1.034785 -0.559052,-2.137505 1.258463,-0.684941 1.531641,-0.642178 3.33228,0.521631 l 1.333289,0.861747 -0.807284,0.826733 c -0.444006,0.454704 -0.859031,0.815491 -0.922278,0.801749 -0.06325,-0.01374 -1.132876,-0.407202 -2.376955,-0.874355 z"
         id="path1921" />
      <path
         style="fill:#916f6f;stroke-width:0.6096;stroke-dashoffset:0.29;stroke-opacity:0.996073"
         d="m 37.439513,36.055649 c -1.201469,-0.394099 -2.28585,-0.817903 -2.409736,-0.941789 -0.16019,-0.16019 -0.06711,-0.383386 0.32229,-0.772782 l 0.547537,-0.547536 1.757095,0.582858 c 0.966403,0.320572 2.173124,0.760082 2.681602,0.976688 l 0.924505,0.39383 -0.488182,0.519646 c -0.2685,0.285805 -0.637231,0.516491 -0.819402,0.512636 -0.182171,-0.0039 -1.31424,-0.329453 -2.515709,-0.723551 z"
         id="path1923" />
      <path
         style="fill:#916f6f;stroke-width:0.215526;stroke-dashoffset:0.29;stroke-opacity:0.996073"
         d="m 40.689853,27.392551 c -0.04088,-0.01554 -0.835164,-0.08849 -1.765085,-0.162117 -0.929921,-0.07362 -1.690766,-0.156069 -1.690766,-0.183209 0,-0.08248 3.357411,-2.280702 3.958316,-2.591657 0.966218,-0.499996 1.38884,-0.483369 2.941494,0.115726 0.46353,0.178854 0.875289,0.34528 0.915021,0.369835 0.09548,0.05901 -2.62968,2.09192 -3.040104,2.267848 -0.298234,0.127838 -1.15265,0.246764 -1.318876,0.183574 z"
         id="path1925" />
      <path
         style="fill:#916f6f;stroke-width:0.215526;stroke-dashoffset:0.29;stroke-opacity:0.996073"
         d="m 46.375284,29.218166 c -1.221073,-0.364076 -2.410631,-0.891149 -3.028514,-1.341883 -0.173722,-0.126726 -0.315857,-0.26535 -0.315857,-0.308054 0,-0.220088 2.783931,-2.373964 3.068399,-2.373964 0.0583,0 0.520488,0.198177 1.027081,0.440393 1.185695,0.566914 1.968384,0.826584 2.645911,0.877825 0.639235,0.04835 0.806684,0.140069 0.740091,0.405398 -0.06697,0.266824 -1.401901,1.793814 -1.89108,2.163151 -0.392603,0.296421 -0.442201,0.313175 -0.9768,0.329961 -0.439603,0.0138 -0.718136,-0.02851 -1.269231,-0.192827 z"
         id="path1927" />
      <path
         style="fill:#916f6f;stroke-width:0.215526;stroke-dashoffset:0.29;stroke-opacity:0.996073"
         d="m 50.537169,33.734319 c -1.089342,-0.283803 -3.664927,-1.060779 -4.038349,-1.218247 -0.203939,-0.086 -0.272619,-0.153111 -0.241004,-0.235501 0.130012,-0.338804 1.059175,-1.180553 1.637235,-1.483206 l 0.407869,-0.213547 0.500073,0.131159 c 0.27504,0.07214 0.834445,0.28443 1.243122,0.47176 1.565297,0.717506 3.389509,0.937807 3.389509,0.409333 0,-0.145094 -0.254174,-0.405671 -0.470437,-0.482288 -0.0748,-0.0265 -0.43324,-0.08185 -0.796534,-0.123008 -1.000615,-0.113351 -2.082004,-0.489648 -2.984674,-1.038595 l -0.238835,-0.145244 1.186189,-1.194948 c 1.411271,-1.421693 1.704441,-1.606651 2.434515,-1.535914 0.708647,0.06866 3.209019,0.770483 4.450017,1.249062 0.550897,0.212448 0.576718,0.232567 0.495465,0.386034 -0.150599,0.284444 -2.141299,2.262732 -3.332513,3.311735 -1.634693,1.439539 -2.315743,1.943744 -2.617142,1.937563 -0.09341,-0.0019 -0.554436,-0.103682 -1.024506,-0.226148 z"
         id="path1929" />
      <path
         style="fill:#916f6f;stroke-width:0.215526;stroke-dashoffset:0.29;stroke-opacity:0.996073"
         d="m 43.402509,31.288247 c -1.12408,-0.361943 -2.405072,-0.769298 -2.846649,-0.905233 l -0.802866,-0.247153 0.914345,-0.79238 c 0.502891,-0.435808 1.006401,-0.864565 1.118912,-0.952793 l 0.204567,-0.160413 2.56383,1.015005 c 1.410106,0.558252 2.56383,1.046789 2.56383,1.085636 0,0.117594 -1.42578,1.588277 -1.553408,1.602331 -0.06533,0.0072 -1.03848,-0.283056 -2.162561,-0.645 z"
         id="path1931" />
      <path
         style="fill:#916f6f;stroke-width:0.215526;stroke-dashoffset:0.29;stroke-opacity:0.996073"
         d="m 38.535193,29.64667 c -0.51668,-0.12663 -3.112955,-0.971677 -3.333906,-1.085135 l -0.211891,-0.108805 0.159955,-0.170263 c 0.285879,-0.304304 0.83724,-0.551279 1.344854,-0.602409 0.750668,-0.07561 3.961287,0.265008 4.134964,0.438685 0.08964,0.08964 -0.136484,0.397524 -0.712629,0.970289 -0.623753,0.620095 -0.813676,0.696765 -1.381347,0.557638 z"
         id="path1933" />
      <path
         style="fill:#916f6f;stroke-width:0.215526;stroke-dashoffset:0.29;stroke-opacity:0.996073"
         d="m 36.811983,30.917471 c -1.170299,-0.306756 -2.179159,-0.926246 -2.179159,-1.338111 0,-0.120736 0.04924,-0.226202 0.117905,-0.252552 0.226539,-0.08693 2.177277,0.468371 2.865226,0.815623 0.652683,0.329451 0.772606,0.628969 0.326468,0.815377 -0.327333,0.136769 -0.47485,0.131505 -1.13044,-0.04034 z"
         id="path1937" />
      <path
         style="fill:#916f6f;stroke-width:0.215526;stroke-dashoffset:0.29;stroke-opacity:0.996073"
         d="m 42.287719,32.806799 c -1.4399,-0.397781 -2.977499,-0.914429 -3.325792,-1.117497 -0.377523,-0.220111 -0.419561,-0.457126 -0.122519,-0.690779 0.399771,-0.31446 0.552289,-0.291204 2.645372,0.403378 2.081995,0.690902 3.033229,1.079395 3.031382,1.238044 -0.0058,0.496482 -0.815726,0.557126 -2.228443,0.166854 z"
         id="path1941" />
      <path
         style="fill:#916f6f;stroke-width:0.215526;stroke-dashoffset:0.29;stroke-opacity:0.996073"
         d="m 41.321567,34.772246 c -1.754828,-0.473122 -3.674609,-1.128742 -4.190558,-1.431109 -0.496607,-0.291031 -0.435833,-0.583664 0.188238,-0.906384 0.477093,-0.246714 1.676502,5e-5 4.559715,0.938109 0.96443,0.313779 1.22627,0.45354 1.22627,0.654539 0,0.139148 -0.453948,0.609209 -0.719728,0.745275 -0.191913,0.09825 -0.698689,0.09805 -1.063937,-4.3e-4 z"
         id="path1943" />
      <path
         style="fill:#916f6f;stroke-width:0.215526;stroke-dashoffset:0.29;stroke-opacity:0.996073"
         d="m 46.078007,38.649721 c -2.108263,-0.442727 -4.380352,-1.182144 -4.568636,-1.486794 -0.06708,-0.108532 0.160309,-0.504666 0.367677,-0.640539 0.165542,-0.108467 0.215616,-0.108334 0.593689,0.0016 0.227094,0.06602 0.957641,0.399438 1.623437,0.740932 1.77597,0.910914 2.305973,1.043273 2.180819,0.54462 -0.102483,-0.408325 -1.642625,-1.838941 -1.979727,-1.838941 -0.07225,0 -0.172997,0.05016 -0.223882,0.111479 -0.05089,0.06131 -0.204801,0.111479 -0.342033,0.111479 -0.305123,0 -0.821569,-0.197927 -0.874179,-0.335027 -0.0494,-0.128736 0.275128,-0.575818 0.822548,-1.13317 0.741348,-0.754797 0.650354,-0.735833 1.84899,-0.385363 1.597698,0.467153 4.065596,1.417995 4.351174,1.67644 0.210022,0.190067 0.169184,0.419366 -0.150448,0.844757 -0.443253,0.589914 -1.495495,1.713529 -1.750061,1.868766 -0.308368,0.188046 -0.700853,0.171471 -1.899368,-0.08021 z"
         id="path1945" />
      <path
         style="fill:#916f6f;stroke-width:0.215526;stroke-dashoffset:0.29;stroke-opacity:0.996073"
         d="m 50.617314,35.234736 c -0.323773,-0.408798 -0.522793,-0.498068 -1.232096,-0.552654 -1.194809,-0.09195 -4.345565,-1.13324 -4.254611,-1.406102 0.06353,-0.1906 0.270148,-0.236304 0.679814,-0.150375 0.959653,0.201289 5.141413,1.452778 5.228403,1.564721 0.133882,0.172284 0.11425,0.494219 -0.0419,0.687052 l -0.134796,0.166466 z"
         id="path1947" />
      <path
         style="fill:#916f6f;stroke-width:0.215526;stroke-dashoffset:0.29;stroke-opacity:0.996073"
         d="m 35.220322,32.244179 c -0.26181,-0.169236 -0.860621,-0.522613 -1.330691,-0.785281 -0.927225,-0.51812 -1.26343,-0.787097 -1.26343,-1.010795 0,-0.129282 0.04279,-0.140273 0.427337,-0.109771 0.808908,0.06416 3.536427,1.204036 3.640564,1.521451 0.01592,0.04854 -0.106911,0.224119 -0.272968,0.390177 -0.391448,0.391447 -0.58776,0.390502 -1.200812,-0.0058 z"
         id="path1949" />
      <path
         style="fill:#916f6f;stroke-width:0.215526;stroke-dashoffset:0.29;stroke-opacity:0.996073"
         d="m 38.00867,42.322607 c -0.207506,-0.100453 -0.508499,-0.298502 -0.668875,-0.440109 -0.258409,-0.228167 -0.272964,-0.257818 -0.127905,-0.26056 0.202724,-0.0038 1.525216,0.668388 1.565698,0.79584 0.04894,0.154078 -0.358121,0.103696 -0.768918,-0.09517 z"
         id="path1951" />
      <path
         style="fill:#784421;stroke-width:0.215526;stroke-dashoffset:0.29;stroke-opacity:0.996073"
         d="m 35.597817,41.182686 c -0.272601,-0.146197 -0.323674,-0.255377 -0.13634,-0.291454 0.181824,-0.03502 0.493767,0.114187 0.581511,0.278139 0.06807,0.127192 0.05947,0.152196 -0.05238,0.152196 -0.07361,0 -0.250364,-0.0625 -0.392791,-0.138881 z"
         id="path1953" />
      <path
         style="fill:#784421;stroke-width:0.6096;stroke-dashoffset:0.29;stroke-opacity:0.996073"
         d="M 10.747974,38.242581 C 7.674692,36.190322 6.5128617,33.467124 7.4886964,30.603207 c 0.3220007,-0.94502 1.5322618,-2.435481 1.9776213,-2.435481 0.1117601,0 0.7616763,0.558476 1.4442583,1.241058 2.166723,2.166723 3.700988,6.104823 3.152427,8.091547 -0.217862,0.78903 -1.060925,1.598154 -1.66519,1.598154 -0.202462,0 -0.944889,-0.385157 -1.649839,-0.855904 z"
         id="path2024" />
    </g>
  </g>
</svg>
