<?xml version="1.0" encoding="UTF-8" standalone="no"?>
<!-- Created with Inkscape (http://www.inkscape.org/) -->

<svg
   width="64.0px"
   height="64.0px"
   viewBox="0 0 64.0 64.0"
   version="1.1"
   id="SVGRoot"
   sodipodi:docname="FEM_MaterialHomogeneousLamina.svg"
   inkscape:version="1.2.2 (b0a8486541, 2022-12-01)"
   xmlns:inkscape="http://www.inkscape.org/namespaces/inkscape"
   xmlns:sodipodi="http://sodipodi.sourceforge.net/DTD/sodipodi-0.dtd"
   xmlns="http://www.w3.org/2000/svg"
   xmlns:svg="http://www.w3.org/2000/svg">
  <sodipodi:namedview
     id="namedview2306"
     pagecolor="#505050"
     bordercolor="#eeeeee"
     borderopacity="1"
     inkscape:showpageshadow="0"
     inkscape:pageopacity="0"
     inkscape:pagecheckerboard="0"
     inkscape:deskcolor="#505050"
     inkscape:document-units="px"
     showgrid="true"
     inkscape:zoom="4.7572176"
     inkscape:cx="33.843312"
     inkscape:cy="30.585105"
     inkscape:window-width="1536"
     inkscape:window-height="891"
     inkscape:window-x="0"
     inkscape:window-y="32"
     inkscape:window-maximized="1"
     inkscape:current-layer="g3121">
    <inkscape:grid
       type="xygrid"
       id="grid2501" />
  </sodipodi:namedview>
  <defs
     id="defs2301" />
  <g
     inkscape:label="Layer 1"
     inkscape:groupmode="layer"
     id="layer1">
    <g
       id="g3121"
       transform="matrix(0.27805074,0,0,0.27805074,39.566139,56.242652)">
      <g
         id="g890"
         transform="matrix(1.2151944,0,0,1.1208125,5.0716683,9.2113064)">
        <path
           d="m -48.808931,-166.74625 c -34.666666,35.2 -67.704209,72.268125 -67.599999,76.000003 0.30164,10.802208 1.41083,12.081883 4.34416,6.615216 3.46667,-6.666666 77.122505,-89.281879 82.589172,-92.215219 1.733333,-0.93333 4.266666,-0.53333 8.666666,1.33334 3.6,1.46666 12.3999999,4.8 19.733333,7.6 7.3333332,2.8 14.533333,5.73333 16,6.66666 1.466666,0.93334 6.933333,2.66667 11.999999,4 5.2,1.2 14,4.26667 19.733333,6.8 15.283509,12.49443 19.846111,10.87274 19.846111,7.5394 0,-2 -19.846111,-15.40606 -34.24611,-19.80606 -10.533334,-3.2 -21.066667,-7.06667 -35.4666662,-13.46667 -4.1333333,-1.73333 -8.1333328,-3.2 -8.9333328,-3.2 -2.133334,0 -11.2,-4.26666 -14,-6.53333 -2.133333,-1.73333 -4,-0.26667 -22.666666,18.66666 z"
           id="path2"
           style="fill:#000000;stroke:none;stroke-width:0.133333"
           sodipodi:nodetypes="cscccssccsccscc" />
        <path
           d="m 60.1244,-139.01291 c -0.533334,2.53333 -2.533334,5.06666 -5.733334,7.2 -5.066666,3.33333 -46.2666652,44.533329 -52.9333317,52.933329 -1.99999993,2.533333 -7.0666665,8.266667 -11.1999997,12.666667 -8.5333336,9.066666 -6.9333336,8.799999 -27.3333326,3.733333 -5.866667,-1.6 -14.266666,-3.333333 -18.666666,-4.133333 -4.4,-0.666667 -12.8,-3.066667 -18.533333,-5.333334 -5.733333,-2.266666 -12.4,-4.533333 -14.666666,-4.933333 -4.533334,-0.933333 -17.999997,-6 -20.266667,-7.6 -0.8,-0.533333 -3.46667,-0.133333 -5.86667,1.066667 l -4.26666,2.266667 0.66666,8.799999 c 0.4,4.8 1.33334,17.066667 2.26667,27.333333 0.93333,12.933333 1.06667,18.933333 0,20.133333 -1.86667,2.266666 0.53333,8.533333 3.6,9.466666 1.33333,0.4 5.73333,2.133334 9.73333,3.866667 4.000004,1.7333331 10.400003,3.7333331 14.133337,4.5333331 3.866666,0.6666666 8.933333,2.5333332 11.333333,3.9999999 7.199999,4.1333332 22.799999,9.0666664 34.133332,10.7999997 10.266667,1.6 16.4,3.3333333 17.733333,5.0666663 1.466667,2.133334 9.066666,3.866667 11.2,2.666667 3.066666,-1.733333 2.666666,-3.333333 -1.466667,-5.333333 -3.466666,-1.6000003 -3.733333,-2.266667 -3.866666,-11.7333334 -0.133334,-5.4666665 -0.666667,-17.0666666 -1.2,-25.5999996 -0.933334,-13.999999 -0.8,-15.733333 1.2,-16.533333 1.199999,-0.533333 3.066666,-2.533333 4.133333,-4.533333 1.066666,-2 3.466666,-5.6 5.466666,-7.866666 3.4666669,-4.133334 3.6000002,-4.266667 5.4666668,-1.466667 3.86666658,5.466667 8.7999998,2.133333 5.06666655,-3.466667 C -2.2755989,-64.879581 -2.6755989,-63.946248 8.7910675,-77.546247 18.257734,-88.612914 51.591066,-122.74625 54.5244,-124.34625 c 2.133333,-1.06666 2.266666,-0.26666 1.6,11.06667 -0.4,6.8 -0.8,19.2 -0.8,27.599999 v 15.333333 l -16.266667,17.466667 c -10.399999,11.066666 -19.999999,22.933332 -26.266666,32.666665 -5.5999995,8.4 -12.79999931,18 -16.2666659,21.19999987 C -9.8755987,7.1204171 -20.888536,15.189132 -17.688536,16.389132 -12.755203,18.255799 6.3910675,2.3204172 23.3244,-24.879582 c 2.266667,-3.733333 6.4,-9.066667 9.2,-12 2.8,-2.933333 8.933333,-9.6 13.466667,-14.933333 6.799999,-7.733333 9.066666,-9.466666 11.999999,-9.333333 3.2,0.266667 3.6,-0.266667 4.4,-5.733333 0.533333,-3.333333 0.4,-9.466667 -0.266667,-13.6 -1.599999,-11.733333 0.8,-47.466669 3.333334,-50.266669 2.933333,-3.2 1.466666,-12.13333 -2.133334,-12.13333 -1.733333,0 -2.666666,1.2 -3.199999,3.86667 z m -160.26666,65.333329 c 3.866663,1.333333 10.666663,3.6 15.066663,4.933333 4.4,1.333334 11.333333,3.733334 15.333333,5.333333 4,1.6 10.933333,3.333334 15.333333,3.866667 7.866667,0.933333 31.066666,6.533333 32.399999,8 0.4,0.4 -0.266666,0.666667 -1.466666,0.666667 -1.466667,0 -2.666667,1.999999 -3.733334,5.599999 -1.466666,5.466667 -1.333333,11.2 0.933334,39.5999994 0.8,10.6666664 0.8,11.1999997 -1.6,10.2666664 -1.466667,-0.6666667 -7.6,-2 -13.866667,-3.0666666 -12.399999,-2.13333329 -25.999999,-6.5333332 -33.333332,-10.7999997 -2.533333,-1.4666665 -8.8,-3.7333335 -13.866666,-4.7999995 -4.933334,-1.2 -11.466667,-3.6 -14.399997,-5.333334 -4.4,-2.666666 -4.93334,-3.333333 -3.06667,-4.8 2.53333,-2.133333 2.66667,-5.333333 0.13333,-5.333333 -2.13333,0 -3.46666,-5.733333 -3.46666,-14.399999 0,-3.333334 -0.66667,-11.066667 -1.6,-16.933333 -2.26667,-16.266667 -1.46667,-17.2 11.2,-12.8 z"
           id="path4"
           style="fill:#000000;stroke:none;stroke-width:0.133333"
           sodipodi:nodetypes="ccccccsccccccccscccccccccscccccssccccccscccccsccssccsccccccccsscc" />
        <path
           d="m -100.40893,-52.879581 c 0,2.933333 0.533334,3.466666 3.066667,3.066666 1.866666,-0.266667 2.933333,-1.333333 2.933333,-3.066666 0,-1.733334 -1.066667,-2.8 -2.933333,-3.066667 -2.533333,-0.4 -3.066667,0.133333 -3.066667,3.066667 z"
           id="path6"
           style="fill:#000000;stroke:none;stroke-width:0.133333" />
        <path
           d="m -83.475597,-51.146248 c -2.533333,2.666666 -2.933333,5.6 -1.066667,5.6 3.733334,0 8.133334,-2.8 8.133334,-5.333333 0,-3.466667 -4.133334,-3.6 -7.066667,-0.266667 z"
           id="path8"
           style="fill:#000000;stroke:none;stroke-width:0.133333" />
        <path
           d="m -70.408931,-49.012915 c -2.399999,5.733333 -2.399999,6.133333 -0.266666,6.133333 2.8,-0.133333 7.866666,-5.2 7.333333,-7.6 -0.8,-4.399999 -4.933333,-3.599999 -7.066667,1.466667 z"
           id="path10"
           style="fill:#000000;stroke:none;stroke-width:0.133333" />
        <path
           d="m -105.34226,-40.746248 c -0.93334,2.666666 1.2,6.533333 3.73333,6.533333 2.933333,0 2.4,-7.866667 -0.53333,-8.4 -1.2,-0.266667 -2.66667,0.533333 -3.2,1.866667 z"
           id="path12"
           style="fill:#000000;stroke:none;stroke-width:0.133333" />
        <path
           d="m -55.742264,-33.279582 c -1.333334,4.533333 -1.6,7.333333 -0.666667,8.266667 1.466667,1.466666 1.2,1.866666 5.866667,-6.266667 3.733333,-6.666666 3.6,-8.933333 -0.533334,-8.933333 -1.866666,0 -3.066666,1.733333 -4.666666,6.933333 z"
           id="path14"
           style="fill:#000000;stroke:none;stroke-width:0.133333" />
        <path
           d="m -94.142263,-31.279582 c -0.533334,0.4 -0.933334,2 -0.933334,3.333333 0,3.066667 5.066667,3.333334 6.266667,0.266667 1.066667,-2.8 -3.2,-5.733333 -5.333333,-3.6 z"
           id="path16"
           style="fill:#000000;stroke:none;stroke-width:0.133333" />
        <path
           d="m -47.475598,-28.746249 c -1.333333,1.333334 -1.2,5.6 0.266667,6.4 2.4,1.466667 5.6,-0.8 5.2,-3.733333 -0.4,-2.8 -3.733333,-4.4 -5.466667,-2.666667 z"
           id="path18"
           style="fill:#000000;stroke:none;stroke-width:0.133333" />
        <path
           d="m -78.40893,-25.012915 c -2.133334,1.599999 -2.266667,2.133333 -0.8,3.999999 2.266666,2.666667 6.8,0.533334 6.8,-3.2 0,-3.066666 -2.4,-3.466666 -6,-0.799999 z"
           id="path20"
           style="fill:#000000;stroke:none;stroke-width:0.133333" />
        <path
           d="m -55.475598,-17.812916 c -3.733333,2.266667 -4.933333,6.933334 -1.866666,6.933334 2.533333,0 7.6,-3.866667 7.6,-6 0,-2.933334 -1.866667,-3.333334 -5.733334,-0.933334 z"
           id="path22"
           style="fill:#000000;stroke:none;stroke-width:0.133333" />
        <path
           d="m 43.057733,-100.61291 c -0.533333,0.53333 -2.533333,0.93333 -4.533333,1.066663 -2.666667,0 -3.733333,0.8 -4,2.933333 -0.4,2.266667 0.266667,3.066667 2.266667,3.066667 1.466666,0 3.066666,-0.666667 3.466666,-1.333333 0.666667,-1.066667 1.466667,-0.933334 2.8,0.133333 1.6,1.333333 2.4,1.2 4.133334,-0.533333 1.199999,-1.066667 1.733333,-3.066667 1.333333,-4.133334 -0.933333,-2.266666 -3.733333,-2.799996 -5.466667,-1.199996 z"
           id="path30"
           style="fill:#000000;stroke:none;stroke-width:0.133333" />
        <path
           d="m 26.791067,-86.746247 c -0.4,0.8 0.133333,2.4 1.2,3.6 1.733333,1.6 2.533333,1.733333 4.133333,0.4 1.066667,-0.933334 1.6,-2.533334 1.2,-3.6 -0.8,-2.266667 -5.2,-2.533334 -6.533333,-0.4 z"
           id="path48"
           style="fill:#000000;stroke:none;stroke-width:0.133333" />
        <path
           d="m 43.591067,-77.012914 c -0.8,1.066666 -1.333334,3.066666 -1.2,4.4 0.133333,1.333333 -0.133334,3.466666 -0.666667,4.666666 -0.533333,1.2 -0.666667,2.933334 -0.133333,3.733334 1.6,2.533333 4.666666,1.333333 5.333333,-2.4 0.533333,-2 1.333333,-4.666667 2.133333,-5.866667 2,-3.733333 1.466667,-6.4 -1.333333,-6.4 -1.333333,0 -3.2,0.8 -4.133333,1.866667 z"
           id="path58"
           style="fill:#000000;stroke:none;stroke-width:0.133333" />
        <path
           d="m 28.9244,-73.946248 c 0,2 -0.266666,2 -1.2,0.533334 -1.733333,-2.666667 -5.466666,-0.8 -5.466666,2.666666 0,2.533334 0.533333,2.666667 5.733333,1.866667 6.533333,-1.066667 8.266666,-2.4 7.2,-5.2 -1.2,-2.933333 -6.266667,-2.8 -6.266667,0.133333 z"
           id="path60"
           style="fill:#000000;stroke:none;stroke-width:0.133333" />
        <path
           d="m 12.924401,-69.679581 c -1.466667,1.066667 -1.6,2.133333 -0.666667,4.933333 3.066667,8.266667 9.866666,7.466667 7.733333,-0.933333 -1.333333,-4.666667 -3.733333,-6.133333 -7.066666,-4 z"
           id="path62"
           style="fill:#000000;stroke:none;stroke-width:0.133333" />
        <path
           d="m 24.391067,-60.879581 c -3.066667,2.266666 -1.866667,6 1.866667,6 1.466666,0 2.666666,-0.4 2.666666,-1.066667 0,-0.533333 0.4,-2.266667 0.8,-4 0.933334,-3.466667 -1.466666,-3.866667 -5.333333,-0.933333 z"
           id="path64"
           style="fill:#000000;stroke:none;stroke-width:0.133333" />
        <path
           d="m -11.742265,-44.212915 c -1.2,1.866667 0.4,4 3.0666662,4 1.6,0 1.7333333,0.4 0.5333334,1.6 -0.9333333,0.933333 -1.6,2.8 -1.6,4.133333 0,2.133333 0.6666667,2.4 3.8666666,1.866667 1.9999999,-0.4 4.3999999,-0.133334 5.19999984,0.666666 1.06666664,1.066667 1.99999996,1.066667 3.59999996,-0.266666 2.6666665,-2.133334 2.6666665,-8 0,-8 -1.0666667,0 -2,0.533333 -2,1.2 0,0.666667 -0.93333331,1.466667 -2,2 -1.5999999,0.533333 -1.8666666,0 -1.1999999,-2.533333 0.6666666,-2.533334 0.2666666,-3.333334 -1.3333333,-3.333334 -1.2,0 -2.1333333,-0.666666 -2.1333333,-1.333333 0,-0.8 -1.2,-1.333333 -2.5333333,-1.333333 -1.4666666,0 -3.0666662,0.533333 -3.4666662,1.333333 z"
           id="path66"
           style="fill:#000000;stroke:none;stroke-width:0.133333" />
        <path
           d="m 7.5910675,-28.346249 c 0,3.2 1.7333333,4.4 4.6666665,3.333334 3.066667,-1.2 1.866667,-5.066667 -1.733333,-5.6 -2.1333335,-0.4 -2.9333335,0.266666 -2.9333335,2.266666 z"
           id="path68"
           style="fill:#000000;stroke:none;stroke-width:0.133333" />
        <path
           d="m -17.208932,-20.079582 c -1.2,2.133333 2.666667,5.466666 5.2,4.4 3.5999999,-1.333334 2.7999999,-5.866667 -0.933333,-5.866667 -1.866667,0 -3.733334,0.666667 -4.266667,1.466667 z"
           id="path70"
           style="fill:#000000;stroke:none;stroke-width:0.133333" />
        <path
           style="fill:#a05a2c;stroke-width:0.6096;stroke-dashoffset:0.29;stroke-opacity:0.996073"
           d="m 30.690209,39.095361 c -1.329559,-0.334556 -3.64709,-0.854634 -5.15007,-1.155728 -1.502979,-0.301092 -4.388069,-1.097328 -6.41131,-1.769412 -2.023242,-0.672084 -4.624552,-1.527057 -5.78069,-1.899938 -1.156138,-0.372882 -2.66108,-0.930837 -3.344315,-1.239897 L 8.7615792,32.468456 10.413665,30.475745 C 16.257883,23.426581 30.315502,7.9515265 31.403943,7.3690103 32.065792,7.0147994 32.815346,7.25364 39.387829,9.9130268 c 2.557785,1.0349422 6.009563,2.3059172 7.67062,2.8243882 4.112679,1.283704 5.127144,1.726127 6.988663,3.047853 0.880269,0.625014 1.753592,1.230981 1.94072,1.346595 0.310775,0.192008 0.311683,0.267904 0.01047,0.876622 -0.181367,0.366528 -0.903608,1.117257 -1.60498,1.668287 -1.940492,1.524536 -11.662021,11.318121 -15.001282,15.112471 -1.627956,1.849821 -3.35349,3.718035 -3.834519,4.151587 -1.082904,0.97602 -1.544426,0.990674 -4.86732,0.154531 z"
           id="path1596"
           transform="matrix(3.5964659,0,0,3.5964659,-142.29827,-202.27478)" />
        <path
           style="fill:#a05a2c;stroke-width:0.6096;stroke-dashoffset:0.29;stroke-opacity:0.996073"
           d="m 28.315761,56.644979 c -3.912567,-0.811005 -6.597755,-1.646411 -9.042673,-2.813322 -0.976727,-0.466172 -2.804004,-1.144272 -4.060615,-1.506887 -2.56639,-0.740573 -4.662279,-1.627967 -5.099001,-2.158904 -0.2502249,-0.304207 -0.2454435,-0.406532 0.03358,-0.718634 0.533032,-0.596221 0.555675,-1.520057 0.03726,-1.520057 -0.5344289,0 -0.8723594,-1.225426 -1.0144374,-3.678621 -0.073654,-1.271751 -0.2952994,-3.617702 -0.492545,-5.213223 -0.3966089,-3.208172 -0.3269961,-3.574672 0.69808,-3.675278 0.3499371,-0.03435 3.3121804,0.835843 6.9570834,2.04371 3.491214,1.156938 6.991159,2.205913 7.777656,2.331056 4.082205,0.649539 10.328996,2.274003 8.845185,2.300171 -0.384142,0.0068 -0.841017,0.749268 -1.10337,1.793151 -0.22948,0.913089 -0.150594,4.881384 0.185954,9.354207 0.160934,2.138855 0.24903,3.959773 0.19577,4.046483 -0.126408,0.205795 -0.06231,0.215346 -3.917924,-0.583852 z m -4.132089,-3.462631 c 0.364692,0 1.671778,-1.31171 1.671778,-1.677692 0,-0.710891 -0.529801,-0.912357 -1.361449,-0.517715 -0.860466,0.408318 -1.371241,1.034709 -1.371241,1.681628 0,0.551392 0.205094,0.770927 0.584281,0.62542 0.160012,-0.0614 0.374496,-0.111641 0.476631,-0.111641 z m -5.04211,-2.745423 c 0.547462,-0.547462 0.482007,-1.526139 -0.109585,-1.638518 -0.580595,-0.110289 -1.79501,0.592456 -1.79501,1.038717 0,0.491599 0.558697,1.032948 1.066049,1.032948 0.222969,0 0.600315,-0.194916 0.838546,-0.433147 z m 8.485632,-0.527799 c 0.428396,-0.428396 0.420868,-1.113074 -0.01756,-1.597537 -0.69099,-0.763535 -1.543972,-0.337189 -1.543972,0.771724 0,1.080466 0.854817,1.532533 1.561537,0.825813 z m -2.864051,-0.878364 c 0.796387,-1.128988 1.536374,-2.827902 1.472464,-3.380587 -0.05362,-0.463671 -0.184157,-0.572275 -0.753759,-0.627091 -0.632761,-0.06089 -0.721739,0.0079 -1.091681,0.844228 -0.618396,1.397988 -0.892733,2.842864 -0.632201,3.329673 0.297518,0.555916 0.521962,0.5188 1.005177,-0.166223 z m -10.090701,-0.09459 c 0.58963,-0.589629 0.145406,-1.639613 -0.693683,-1.639613 -0.242789,0 -0.554946,0.113511 -0.693682,0.252248 -0.269779,0.269779 -0.344355,1.267231 -0.112111,1.499476 0.232245,0.232244 1.229697,0.157668 1.499476,-0.112111 z m -2.864652,-2.58106 c 0.345773,-0.758889 -0.01401,-1.876022 -0.632858,-1.965039 -1.059222,-0.152362 -1.4273589,0.943098 -0.64933,1.932202 0.545713,0.693761 0.976029,0.704782 1.282188,0.03284 z m 9.447838,-2.817552 c 1.139551,-1.13955 1.061376,-2.229977 -0.149913,-2.09108 -0.455462,0.05223 -0.718896,0.277298 -1.065359,0.910212 -0.253152,0.462455 -0.524766,1.100959 -0.603586,1.418897 -0.12998,0.524299 -0.09001,0.578069 0.429725,0.578069 0.385372,0 0.8403,-0.267265 1.389133,-0.816098 z m -4.133363,-0.112276 c 1.257158,-0.525274 1.712984,-1.812502 0.750058,-2.118123 -0.880158,-0.279352 -2.505218,1.260412 -2.191916,2.076866 0.160083,0.417168 0.517688,0.4274 1.441858,0.04126 z M 13.24077,42.149215 c 0.392298,-0.47269 0.08694,-1.339812 -0.525983,-1.493647 -0.819441,-0.205666 -1.153407,0.03137 -1.153407,0.818665 0,0.389008 0.06306,0.770349 0.140138,0.847425 0.257915,0.257915 1.276821,0.143767 1.539252,-0.172443 z"
           id="path1667"
           transform="matrix(3.5964659,0,0,3.5964659,-142.29827,-202.27478)" />
        <path
           style="fill:#a05a2c;stroke-width:0.6096;stroke-dashoffset:0.29;stroke-opacity:0.996073"
           d="M 34.705347,58.668935 C 34.26467,58.228258 34.24913,58.067189 33.823396,49.527527 l -0.239845,-4.810962 0.631474,-0.590162 c 0.347311,-0.324591 1.061678,-1.237284 1.587483,-2.028207 0.525805,-0.790923 1.148699,-1.612425 1.384209,-1.825559 0.41906,-0.379244 0.444192,-0.373476 1.177299,0.270201 0.855939,0.751524 0.998885,0.783685 1.455178,0.327391 0.430649,-0.430648 0.416888,-0.670531 -0.09304,-1.62194 -0.546811,-1.02023 -0.454764,-1.196654 2.271606,-4.353942 2.342865,-2.713168 12.07459,-12.72165 12.690246,-13.051139 0.38854,-0.20794 0.394655,-0.03113 0.252887,7.312403 l -0.14528,7.525495 -2.939009,3.153103 c -4.728028,5.072446 -6.371609,7.107607 -9.931055,12.297104 -1.67647,2.444213 -5.899339,6.936828 -6.520325,6.936828 -0.165371,0 -0.480317,-0.179642 -0.699881,-0.399206 z m 1.823883,-6.864851 c 1.177564,-0.824799 -0.05543,-1.996204 -1.512587,-1.437039 -0.551903,0.211785 -0.402856,1.082055 0.245566,1.43383 0.727596,0.394726 0.708122,0.394678 1.267021,0.0032 z m 6.651098,-2.533054 c 0.396169,-0.152024 0.441365,-0.992914 0.06974,-1.297605 -0.256244,-0.210093 -0.837138,-0.329415 -1.366345,-0.280662 -0.273869,0.02523 -0.374766,1.313577 -0.122621,1.565722 0.175015,0.175016 0.977351,0.182106 1.419222,0.01255 z m -2.615427,-2.120924 c 0.606015,-0.770424 0.523906,-2.031745 -0.1384,-2.126031 -0.293479,-0.04178 -0.542259,0.09074 -0.690568,0.367862 -0.391445,0.731419 -0.839441,0.545432 -0.703532,-0.292074 0.104822,-0.645943 0.05907,-0.739956 -0.41842,-0.859799 -0.294861,-0.074 -0.587283,-0.267906 -0.649827,-0.430895 -0.117195,-0.305405 -0.889771,-0.393728 -1.476063,-0.168745 -0.583025,0.223727 -0.405686,1.123171 0.278142,1.4107 0.555195,0.233441 0.583827,0.29343 0.31531,0.660649 -0.162434,0.222143 -0.295334,0.669593 -0.295334,0.994338 0,0.580864 0.02026,0.590444 1.248836,0.590444 0.686859,0 1.307297,0.09459 1.37875,0.210206 0.228707,0.370055 0.692513,0.226349 1.151106,-0.356655 z m 7.230895,-6.816655 c 0.343888,-1.719438 0.01758,-2.033006 -1.287517,-1.23727 -0.513339,0.312989 -0.683173,0.565367 -0.683173,1.015214 0,0.776988 0.122944,0.878952 1.059793,0.878952 0.704894,0 0.792095,-0.06289 0.910897,-0.656896 z m -2.579921,-0.972207 c 0.22888,-0.598165 -0.0367,-1.967432 -0.489251,-2.522483 -0.464289,-0.569446 -2.054621,-0.105157 -2.054621,0.599835 0,0.364243 0.639363,1.74155 0.986527,2.125162 0.526308,0.581563 1.295606,0.481525 1.557345,-0.202514 z m 7.080593,-0.735724 c 0.37675,-0.456971 1.14182,-2.755229 1.172099,-3.520966 0.02692,-0.68078 -0.021,-0.740574 -0.641687,-0.80067 -0.927007,-0.08975 -1.536394,0.548879 -1.536394,1.61013 0,0.445203 -0.10151,1.10065 -0.225577,1.456549 -0.384241,1.102235 0.562282,2.066741 1.231559,1.254957 z m -3.898801,-1.639474 c 0.432192,-0.120028 0.884837,-0.403279 1.005879,-0.629448 0.518431,-0.968697 -0.991852,-1.951988 -1.684439,-1.096678 -0.255599,0.315651 -0.439826,0.377197 -0.697474,0.23301 -0.704633,-0.394333 -1.743186,0.789033 -1.309014,1.491539 0.175338,0.283703 1.666028,0.284578 2.685048,0.0016 z m 0.257567,-3.764884 c 0.790714,-0.873729 -0.111619,-1.91409 -1.276136,-1.471341 -0.620132,0.235774 -0.656961,0.888454 -0.08254,1.462871 0.529138,0.529138 0.88547,0.53136 1.358679,0.0085 z M 50.69996,30.03813 c 0.323481,-0.173122 0.559225,-0.164043 0.932872,0.03593 0.441023,0.236029 0.563029,0.208383 1.034319,-0.234371 1.034526,-0.971887 0.333033,-2.191358 -0.999484,-1.737497 -0.38087,0.129726 -1.051569,0.297237 -1.490441,0.372248 -0.845587,0.144524 -1.372583,0.829645 -1.128144,1.466643 0.146334,0.38134 1.023343,0.432897 1.650878,0.09705 z"
           id="path1669"
           transform="matrix(3.5964659,0,0,3.5964659,-142.29827,-202.27478)" />
      </g>
    </g>
  </g>
</svg>
