<?xml version="1.0" encoding="UTF-8" standalone="no"?>
<!-- Created with Inkscape (http://www.inkscape.org/) -->

<svg
   width="64.0px"
   height="64.0px"
   viewBox="0 0 64.0 64.0"
   version="1.1"
   id="SVGRoot"
   sodipodi:docname="CompositeMouldCommand.svg"
   inkscape:version="1.2.2 (b0a8486541, 2022-12-01)"
   xmlns:inkscape="http://www.inkscape.org/namespaces/inkscape"
   xmlns:sodipodi="http://sodipodi.sourceforge.net/DTD/sodipodi-0.dtd"
   xmlns="http://www.w3.org/2000/svg"
   xmlns:svg="http://www.w3.org/2000/svg">
  <sodipodi:namedview
     id="namedview2306"
     pagecolor="#505050"
     bordercolor="#eeeeee"
     borderopacity="1"
     inkscape:showpageshadow="0"
     inkscape:pageopacity="0"
     inkscape:pagecheckerboard="0"
     inkscape:deskcolor="#505050"
     inkscape:document-units="px"
     showgrid="true"
     inkscape:zoom="2.0765917"
     inkscape:cx="28.893499"
     inkscape:cy="27.689603"
     inkscape:window-width="1536"
     inkscape:window-height="891"
     inkscape:window-x="0"
     inkscape:window-y="32"
     inkscape:window-maximized="1"
     inkscape:current-layer="layer1">
    <inkscape:grid
       type="xygrid"
       id="grid2501" />
  </sodipodi:namedview>
  <defs
     id="defs2301">
    <inkscape:perspective
       sodipodi:type="inkscape:persp3d"
       inkscape:vp_x="-31.753988 : 32.519307 : 1"
       inkscape:vp_y="0 : 1000 : 0"
       inkscape:vp_z="-57.942042 : 49.569435 : 1"
       inkscape:persp3d-origin="32 : 21.333333 : 1"
       id="perspective293" />
  </defs>
  <g
     inkscape:label="Layer 1"
     inkscape:groupmode="layer"
     id="layer1">
    <g
       id="g297"
       transform="matrix(1.1593053,0,0,1.1634124,-4.9487644,-6.5462927)">
      <path
         d="m 48.327011,7.048416 c -1.21186,0.209744 -4.84744,0.37288 -9.43852,0.442795 -4.10167,0.06991 -9.97452,0.233049 -13.05078,0.396184 -3.07625,0.139829 -7.48089,0.23305 -9.78808,0.163136 -8.3898,-0.186441 -11.09317,-0.06992 -11.65249,0.536013 -0.20974,0.233051 -0.23304,0.955504 -0.0932,2.749987 0.0932,1.351688 0.30297,3.961844 0.41949,5.826242 0.13983,1.864399 0.39619,4.730909 0.58263,6.408867 0.37287,3.379221 0.93219,10.160966 0.93219,11.769009 0.0233,0.582624 0.0932,1.165249 0.20975,1.328383 0.0932,0.13983 0.27966,1.281773 0.39619,2.563547 0.13982,1.258468 0.39618,2.959731 0.60592,3.79871 0.18644,0.838979 0.44279,3.286 0.53602,5.476668 0.23305,4.730909 0.58262,5.919462 1.70126,5.733022 0.0932,0 0.4661,0.09322 0.81567,0.23305 0.34958,0.13983 2.54024,0.442794 4.84744,0.675844 2.30719,0.256354 5.45336,0.605929 6.99149,0.815674 1.51482,0.18644 3.96184,0.349575 5.43005,0.349575 1.44491,0 3.61227,0.09322 4.77753,0.233049 1.18855,0.116525 4.40463,0.349575 7.15462,0.4661 18.08465,0.885588 18.03805,0.885588 20.22872,0.582624 0.81566,-0.09322 1.53812,-0.302965 1.58473,-0.4661 0.0699,-0.139829 -0.0466,-0.885588 -0.25636,-1.654653 -0.18643,-0.745759 -0.51271,-3.052951 -0.69914,-5.103788 -0.18644,-2.050837 -0.51271,-4.358029 -0.72246,-5.127093 -1.32838,-4.940654 -1.21185,-4.241505 -2.56354,-15.730855 -1.16525,-10.067745 -1.44491,-12.141888 -2.09745,-15.031704 -1.00212,-4.404639 -0.86228,-4.124979 -2.58685,-5.453363 -0.86229,-0.65254 -1.3983,-1.188553 -1.18855,-1.188553 0.39618,0 0.62923,-0.41949 0.4894,-0.88559 -0.13983,-0.349574 -0.9555,-0.32627 -3.56566,0.09322 z m 1.11864,1.514823 c -0.23305,0.116526 -0.41949,0.442794 -0.41949,0.675845 0,0.489404 0.44279,0.582624 1.28177,0.256354 0.58263,-0.23305 1.04873,-0.06992 0.9089,0.32627 -0.0699,0.18644 0.23305,0.512708 0.76906,0.815674 0.83898,0.466098 0.9555,0.652539 1.32838,2.167362 1.04873,4.26481 3.16948,18.783805 3.16948,21.813451 0,0.885589 -0.0466,0.955503 -0.86229,1.165249 -1.25846,0.326269 -5.24361,1.188553 -5.54658,1.188553 -0.23305,0 -1.11864,-2.656767 -1.84109,-5.499973 -0.20974,-0.792369 -0.86229,-2.447022 -1.46821,-3.65888 -0.62924,-1.211858 -1.49152,-2.959731 -1.93431,-3.868625 -0.81568,-1.677958 -2.84321,-4.194894 -4.52117,-5.639803 l -0.9089,-0.792369 -2.70337,-0.02331 c -5.66311,-0.06992 -12.28172,-0.302966 -12.70121,-0.4661 -0.81568,-0.32627 -4.2182,3.84532 -5.75632,7.061406 -0.8856,1.841092 -1.375,4.754214 -1.375,8.156738 v 2.633462 l -1.67796,0.04661 c -2.28388,0.04661 -2.74998,0.06992 -5.24361,0.279661 l -2.14406,0.163134 -0.11653,-0.769064 C 7.450091,33.033451 7.310271,31.635153 7.077221,28.116103 6.937381,26.13518 6.634421,22.872485 6.401371,20.891562 5.795441,15.974214 5.585701,9.798397 6.028491,9.611957 c 0.86228,-0.32627 3.49575,-0.372879 8.15674,-0.163134 2.93642,0.116524 5.91946,0.13983 6.99149,0.0233 2.16736,-0.233049 9.15885,-0.4661 18.41093,-0.60593 3.58896,-0.06992 7.0614,-0.186438 7.69064,-0.302964 0.65253,-0.116525 1.49152,-0.209744 1.86439,-0.209744 0.58263,-0.02331 0.62924,0 0.30297,0.209744 z m -14.0529,10.347407 3.49574,0.09322 1.91101,1.911009 c 1.53813,1.538128 2.12076,2.353801 2.98304,4.055064 0.58263,1.165248 1.04873,2.237276 1.04873,2.353802 0,0.13983 0.37287,0.838978 0.81567,1.608042 0.4661,0.74576 1.07203,2.307192 1.3983,3.472441 0.30296,1.165248 0.72245,2.703377 0.93219,3.402526 0.27966,0.908893 0.39619,2.353802 0.41949,5.010568 0.0233,3.682185 -0.18644,5.243618 -0.86228,6.758441 -0.44279,0.978809 -0.81567,2.703377 -0.67584,3.076256 0.0699,0.18644 0.34957,0.302965 0.60592,0.256355 0.37288,-0.04661 0.58263,-0.396185 0.88559,-1.421604 0.20975,-0.745759 0.51271,-1.468213 0.62924,-1.631347 0.4894,-0.605929 0.83897,-3.216086 0.86228,-6.245732 v -3.169476 l 2.09745,-0.41949 c 1.16525,-0.209744 2.42372,-0.489404 2.79659,-0.582624 2.05084,-0.559319 1.8877,-0.652539 2.21398,1.351689 0.13982,0.978808 0.67584,3.402525 1.18855,5.383448 0.65254,2.610156 0.9555,4.451249 1.14194,6.874965 0.13984,1.794483 0.32627,3.65888 0.4428,4.12498 l 0.18644,0.862284 -1.35169,0.27966 c -0.74576,0.163134 -1.79448,0.233049 -2.3538,0.139829 -0.55932,-0.06992 -2.3538,-0.163134 -4.03176,-0.163134 -1.65466,0 -4.49786,-0.163135 -6.29234,-0.349575 -1.79449,-0.18644 -4.40464,-0.326269 -5.82624,-0.326269 -1.39831,-0.02331 -3.61228,-0.116526 -4.89405,-0.23305 -1.28177,-0.116525 -4.59107,-0.32627 -7.34107,-0.4661 -2.74998,-0.116525 -5.6398,-0.326269 -6.40886,-0.466099 -0.76906,-0.13983 -3.33261,-0.442795 -5.70972,-0.675844 -2.3771,-0.256355 -4.6843,-0.629234 -5.1504,-0.815674 -1.02541,-0.41949 -1.14194,-0.885589 -1.14194,-4.800824 0,-1.957617 -0.13983,-3.355915 -0.55932,-5.243618 -0.30296,-1.421603 -0.62923,-3.355915 -0.72246,-4.35803 l -0.16313,-1.771177 1.84109,-0.18644 c 1.00212,-0.09322 3.02965,-0.186439 4.49786,-0.186439 l 2.68008,-0.02331 0.13982,1.188554 c 0.18644,1.444907 1.18856,4.055064 2.07415,5.336838 0.34957,0.512709 0.83897,1.258468 1.07202,1.654652 1.56144,2.540242 3.56567,4.987264 4.12498,4.987264 0.16314,0 0.39619,0.09322 0.53602,0.209744 0.11652,0.116525 0.74576,0.256355 1.37499,0.32627 0.65254,0.04661 2.95973,0.396184 5.12709,0.745759 3.56567,0.582624 4.52117,0.652539 9.43852,0.629234 3.00634,0 5.54658,-0.02331 5.66311,-0.02331 0.25635,-0.02331 0.20974,-0.908893 -0.0699,-1.072029 -0.11653,-0.06992 -2.86652,-0.163134 -6.1059,-0.209744 -5.82625,-0.06992 -7.50421,-0.23305 -12.25842,-1.188553 -0.9322,-0.18644 -2.02753,-0.349575 -2.47033,-0.349575 -0.4894,0 -0.9322,-0.18644 -1.23516,-0.536014 -0.9555,-1.048724 -2.8199,-3.588965 -3.21609,-4.381335 -0.23304,-0.442794 -0.62923,-1.118638 -0.93219,-1.491517 -0.27966,-0.396185 -0.81568,-1.374994 -1.16525,-2.213973 -0.60593,-1.444908 -0.65255,-1.747873 -0.74576,-6.105902 -0.13983,-5.499972 0.0699,-7.038101 1.35168,-9.601647 1.49152,-3.006341 3.12287,-4.963958 4.52117,-5.453362 0.41949,-0.13983 2.12075,-0.186441 4.19489,-0.13983 1.93431,0.04661 5.08048,0.13983 6.99149,0.209744 z"
         id="path342"
         style="fill:#000000;stroke:none;stroke-width:0.0233049" />
      <path
         style="fill:#c3bb88;stroke-width:1.39652;stroke-dashoffset:0.29;stroke-opacity:0.996073"
         d="M 49.850114,35.996484 C 49.739165,35.665413 49.079435,33.660927 48.384045,31.54207 46.755064,26.578554 44.630021,22.619167 42.062127,19.76305 l -2.04804,-2.277912 -8.284652,-0.336307 -8.284654,-0.336308 -1.575029,1.526579 c -0.866266,0.839617 -2.28508,2.853558 -3.152921,4.475423 -1.376433,2.572346 -1.603022,3.509339 -1.774712,7.338788 l -0.196818,4.389943 -4.159015,0.266724 C 10.298827,34.956679 8.2910633,34.931515 8.1245877,34.754062 7.6946471,34.295771 6.2591209,17.8295 6.2597404,13.363243 L 6.2602582,9.6311664 14.567139,9.6026002 C 19.135924,9.5868887 28.616603,9.4037067 35.635316,9.195529 46.712632,8.8669716 48.466404,8.9122227 48.925505,9.5384446 c 0.290891,0.3967812 0.775868,0.5687814 1.077726,0.3822233 0.301858,-0.1865585 1.083299,0.1595621 1.736536,0.7691571 0.972342,0.90738 1.364688,2.112524 2.163757,6.646275 1.485762,8.42991 2.550858,17.421564 2.110348,17.815779 -0.401875,0.35964 -4.487756,1.446553 -5.437827,1.446553 -0.288313,0 -0.614983,-0.270876 -0.725931,-0.601948 z"
         id="path994" />
      <path
         style="fill:#c3bb88;stroke-width:1.39652;stroke-dashoffset:0.29;stroke-opacity:0.996073"
         d="M 47.433494,55.846801 C 43.725495,55.624526 36.682705,55.205295 31.782849,54.915177 21.366832,54.298449 11.090671,53.092464 10.233114,52.386153 9.8632907,52.081555 9.6311664,50.674108 9.6311664,48.736343 c 0,-1.734714 -0.3417956,-4.978072 -0.7595457,-7.207462 C 8.4538706,39.299492 8.2551045,37.332293 8.4299183,37.157329 8.6047321,36.982364 10.525607,36.764696 12.698528,36.673621 l 3.950767,-0.165591 0.639566,2.495457 c 0.701229,2.73605 4.800987,9.255656 6.534569,10.391542 2.329936,1.526633 19.335236,2.878027 23.192073,1.843051 1.503619,-0.403494 2.623488,-3.633347 2.929717,-8.449705 l 0.264724,-4.163562 2.88564,-0.567715 c 1.587102,-0.312243 3.03964,-0.388951 3.227867,-0.170463 0.781179,0.906769 3.623515,17.372331 3.095919,17.934557 -0.382901,0.408039 -5.426417,0.418815 -11.985876,0.02561 z"
         id="path996" />
      <path
         style="fill:#800000;stroke-width:1.39652;stroke-dashoffset:0.29;stroke-opacity:0.996073"
         d="M 36.116874,49.826786 C 35.719588,49.74783 33.124523,49.406397 30.350061,49.068045 24.70545,48.379672 24.403367,48.191742 21.354428,43.471732 18.97122,39.78233 18.780804,39.006939 18.728743,32.77975 c -0.04417,-5.282997 0.0446,-5.857941 1.30043,-8.422674 0.741307,-1.513947 2.095298,-3.408915 3.008867,-4.21104 l 1.661035,-1.458408 7.033185,0.336527 7.033185,0.336528 1.835992,1.756668 c 2.063632,1.974472 5.268478,8.271933 6.65236,13.071757 1.117948,3.877467 1.166529,9.349203 0.11624,13.092405 l -0.785795,2.800552 -4.872515,-0.05586 C 39.031843,49.99548 36.51416,49.905742 36.116874,49.826786 Z"
         id="path1138" />
    </g>
  </g>
</svg>
