<?xml version="1.0" encoding="UTF-8" standalone="no"?>
<!-- Created with Inkscape (http://www.inkscape.org/) -->

<svg
   width="64.0px"
   height="64.0px"
   viewBox="0 0 64.0 64.0"
   version="1.1"
   id="SVGRoot"
   sodipodi:docname="TransferLCS.svg"
   inkscape:version="1.2.2 (b0a8486541, 2022-12-01)"
   xmlns:inkscape="http://www.inkscape.org/namespaces/inkscape"
   xmlns:sodipodi="http://sodipodi.sourceforge.net/DTD/sodipodi-0.dtd"
   xmlns="http://www.w3.org/2000/svg"
   xmlns:svg="http://www.w3.org/2000/svg">
  <sodipodi:namedview
     id="namedview2306"
     pagecolor="#505050"
     bordercolor="#eeeeee"
     borderopacity="1"
     inkscape:showpageshadow="0"
     inkscape:pageopacity="0"
     inkscape:pagecheckerboard="0"
     inkscape:deskcolor="#505050"
     inkscape:document-units="px"
     showgrid="true"
     inkscape:zoom="4.7572176"
     inkscape:cx="22.80745"
     inkscape:cy="18.603311"
     inkscape:window-width="1536"
     inkscape:window-height="891"
     inkscape:window-x="0"
     inkscape:window-y="32"
     inkscape:window-maximized="1"
     inkscape:current-layer="layer1">
    <inkscape:grid
       type="xygrid"
       id="grid2501" />
  </sodipodi:namedview>
  <defs
     id="defs2301">
    <marker
       style="overflow:visible"
       id="Arrow4"
       refX="0"
       refY="0"
       orient="auto-start-reverse"
       inkscape:stockid="Arrow4"
       markerWidth="4"
       markerHeight="4.8000002"
       viewBox="0 0 5 6"
       inkscape:isstock="true"
       inkscape:collect="always"
       preserveAspectRatio="xMidYMid">
      <path
         style="fill:context-stroke;fill-rule:evenodd;stroke:none"
         d="m 1,0 -3,3 h -2 l 3,-3 -3,-3 h 2 z"
         id="path1741" />
    </marker>
  </defs>
  <g
     inkscape:label="Layer 1"
     inkscape:groupmode="layer"
     id="layer1">
    <g
       id="g1357"
       transform="matrix(0.96152655,0,0,0.73840081,0.0364987,16.386459)">
      <path
         style="fill:#8b7d75;fill-opacity:1;stroke-width:0.431052;stroke-dashoffset:0.29;stroke-opacity:0.996073"
         d="m 28.358406,47.377826 c -1.005186,-0.808943 -1.44426,-1.690814 -2.126989,-4.272002 -0.29183,-1.103319 -0.594408,-2.069842 -0.672396,-2.14783 -0.174842,-0.174842 -0.175178,-0.205744 0.01311,1.20749 0.0852,0.639489 0.295933,1.648722 0.468284,2.242743 0.172352,0.59402 0.271946,1.121459 0.22132,1.172085 -0.134664,0.134662 -0.76972,-0.317577 -1.826506,-1.3007 -0.951881,-0.885533 -1.443653,-1.125075 -1.968052,-0.958638 -0.272959,0.08663 -0.284465,0.05586 -0.147836,-0.395335 0.124996,-0.41278 0.05567,-0.779787 -0.443375,-2.347265 -0.325345,-1.021892 -0.804324,-2.861296 -1.064397,-4.087566 -0.541995,-2.555545 -0.832044,-3.138407 -0.693608,-1.393827 0.115342,1.453531 0.757533,4.497224 1.21449,5.756127 0.195206,0.537789 0.333254,0.999464 0.306774,1.025944 -0.107465,0.107465 -3.508973,-2.634739 -4.581769,-3.693698 -1.342248,-1.324943 -1.825231,-2.230445 -2.44984,-4.593001 -0.386824,-1.463144 -0.417379,-1.523539 -0.488798,-0.966152 -0.110788,0.864642 0.07596,1.877661 0.534486,2.899404 0.221417,0.493384 0.363226,0.936412 0.315131,0.984507 -0.13073,0.130729 -0.915122,-0.454203 -2.408462,-1.796024 C 11.824211,34.052979 10.725589,33.078644 10.11859,32.5489 8.8055467,31.402973 8.268238,30.608602 7.8584905,29.207511 7.2684579,27.189952 7.1092813,26.754972 6.9610097,26.754972 c -0.1763195,0 -0.069185,0.783996 0.3199099,2.34106 0.2107027,0.843181 0.2273728,1.07763 0.076624,1.07763 -0.3934167,0 -2.8395918,-1.333843 -3.2699781,-1.783046 C 3.663623,27.948141 3.6391599,27.853339 3.5911405,26.466815 3.5313531,24.740502 3.722743,23.872369 4.7073016,21.403977 6.4781367,16.964308 8.8189471,13.447389 12.32686,9.9560731 c 2.706164,-2.6933598 4.870098,-4.1376033 7.60021,-5.0724987 1.268064,-0.4342335 1.557669,-0.4784599 3.019504,-0.4611163 1.571741,0.018648 1.625728,0.00839 1.932303,-0.367144 0.173463,-0.2124801 0.526083,-0.6098626 0.7836,-0.8830722 0.921529,-0.9776868 1.978222,-0.5638051 4.085034,1.6000109 0.787507,0.8088157 1.551446,1.4705739 1.697641,1.4705739 0.146195,0 0.383335,-0.1063599 0.52698,-0.2363553 0.348441,-0.3153365 0.698321,-0.1821489 1.394558,0.5308627 l 0.576611,0.5905037 -0.918667,0.9566971 c -0.505268,0.5261835 -0.918668,1.029374 -0.918668,1.1182011 0,0.4106349 0.595531,0.078558 1.411589,-0.787123 l 0.894251,-0.948627 1.336778,1.1104223 c 1.577174,1.3101117 2.853254,2.5267137 3.085926,2.9420937 0.09158,0.163502 0.170262,0.497656 0.174838,0.742562 0.0078,0.417005 0.04136,0.442451 0.528554,0.400658 1.030993,-0.08844 3.291342,1.490195 4.686159,3.27283 0.447411,0.571811 0.812257,1.082983 0.810769,1.135939 -0.0015,0.05295 -0.20215,0.39062 -0.445916,0.750364 -0.740989,1.093537 -0.520014,1.669769 0.256487,0.668831 0.228301,-0.294288 0.533397,-0.678891 0.677993,-0.854672 l 0.262899,-0.319602 0.401975,0.501373 c 0.221087,0.275757 1.348912,1.293337 2.506277,2.261291 2.130593,1.781904 2.883095,2.531964 2.883095,2.873742 0,0.103557 -0.133949,0.577612 -0.297663,1.053456 -0.163713,0.475843 -0.264045,0.898787 -0.222958,0.939874 0.08904,0.08904 0.05526,0.128229 0.657912,-0.763334 0.265511,-0.392796 0.52739,-0.693789 0.581957,-0.668874 0.221033,0.100922 5.551262,5.664971 6.951396,7.256329 1.607477,1.827021 3.649622,4.334295 3.583824,4.400094 -0.02199,0.02199 -0.72394,-0.194191 -1.559886,-0.480403 -0.905032,-0.309866 -1.955762,-0.555108 -2.597307,-0.606216 -1.269491,-0.101134 -1.496477,-0.234148 -1.371396,-0.803635 0.202649,-0.922658 -0.187817,-1.12082 -3.205699,-1.626906 -2.641135,-0.442904 -2.649509,-0.449094 -2.906448,-2.148415 l -0.112371,-0.743194 -0.116021,0.954132 c -0.06381,0.524772 -0.147971,1.037388 -0.187019,1.139146 -0.07622,0.198629 -0.790049,0.365024 -3.135694,0.73094 -2.074148,0.323563 -5.105273,1.371335 -7.730768,2.672302 -2.406983,1.192692 -3.691071,2.09955 -4.376362,3.090709 -0.473782,0.685243 -0.501175,0.714075 -1.527164,1.607441 -1.240311,1.079982 -2.624609,3.550624 -4.052767,7.233222 -0.388377,1.001453 -0.729256,1.820824 -0.757509,1.820824 -0.02825,0 -0.405035,-0.284618 -0.837291,-0.632484 z M 25.7145,34.112589 c 0,-2.427766 -0.05343,-3.790288 -0.148638,-3.790288 -0.09521,0 -0.148639,1.362522 -0.148639,3.790288 0,2.427765 0.05343,3.790287 0.148639,3.790287 0.09521,0 0.148638,-1.362522 0.148638,-3.790287 z m 10.829117,0.631714 c -0.07163,-0.347443 -0.270108,-1.635026 -0.441063,-2.861295 -0.402062,-2.884009 -0.602968,-3.336521 -0.494944,-1.114791 0.07842,1.612916 0.423374,4.196156 0.598075,4.478829 0.04384,0.07093 0.167112,0.128972 0.273937,0.128972 0.14984,0 0.164464,-0.14437 0.06399,-0.631715 z M 20.066229,31.957327 c 0,-0.495462 -0.06606,-0.891832 -0.148639,-0.891832 -0.08258,0 -0.148639,0.39637 -0.148639,0.891832 0,0.495462 0.06606,0.891833 0.148639,0.891833 0.08258,0 0.148639,-0.396371 0.148639,-0.891833 z m -5.958273,-1.857984 c 0.01033,-0.939256 -0.207642,-1.357427 -0.355841,-0.682678 -0.138198,0.62921 0.06387,2.142978 0.230022,1.723149 0.06471,-0.163502 0.121325,-0.631714 0.125819,-1.040471 z m 5.646179,-1.808667 c 0.01864,-0.779671 -0.119956,-1.201851 -0.30087,-0.916453 -0.153174,0.241637 -0.16652,1.098345 -0.02769,1.777548 0.09899,0.484287 0.106194,0.488791 0.208142,0.130059 0.05808,-0.204378 0.112272,-0.650398 0.12042,-0.991154 z m 23.565596,-2.269352 c -0.450051,-3.758442 -0.767401,-4.595779 -0.609205,-1.607412 0.09108,1.720465 0.304456,3.131471 0.690182,4.563952 0.343951,1.277339 0.319618,0.38888 -0.08098,-2.95654 z m -29.87172,-0.864219 c -0.258942,-1.443477 -0.516858,-1.815064 -0.515844,-0.743193 7.14e-4,0.750827 0.407262,3.352093 0.560758,3.58793 0.22189,0.340923 0.192488,-1.521338 -0.04491,-2.844737 z m 22.172049,1.061629 c -0.110023,-1.926375 -0.297934,-2.572501 -0.474472,-1.631467 -0.108211,0.576808 0.0164,2.98211 0.167119,3.225989 0.04447,0.07195 0.15399,0.130825 0.243375,0.130825 0.113926,0 0.133055,-0.515882 0.06398,-1.725347 z m 15.660302,0.387599 c 0,-0.327005 -0.06689,-0.594555 -0.148639,-0.594555 -0.08175,0 -0.148638,0.26755 -0.148638,0.594555 0,0.327005 0.06689,0.594555 0.148638,0.594555 0.08175,0 0.148639,-0.26755 0.148639,-0.594555 z M 26.28928,25.603021 c 0.486077,-2.091452 1.060743,-5.38589 1.054295,-6.044062 -0.0059,-0.606552 -0.0063,-0.606907 -0.215339,-0.222365 -0.284448,0.523223 -1.413736,6.382694 -1.413736,7.33537 0,0.127406 0.06132,0.231646 0.136255,0.231646 0.07494,0 0.272276,-0.585265 0.438525,-1.300589 z m -6.966245,-2.721429 c 0,-1.183261 -0.0572,-1.923531 -0.148639,-1.923531 -0.09178,0 -0.148638,0.770891 -0.148638,2.015396 0,1.305746 0.05234,1.983048 0.148638,1.92353 0.0867,-0.05358 0.148639,-0.893375 0.148639,-2.015395 z m 16.568471,-1.440455 c -0.04828,-0.347443 -0.150575,-0.631715 -0.227318,-0.631715 -0.162814,0 -0.191559,1.830729 -0.03126,1.991027 0.184065,0.184065 0.351064,-0.693813 0.258581,-1.359312 z m 7.638482,-0.297278 c 0.558914,-1.104116 0.542481,-2.033083 -0.02488,-1.406162 -0.39688,0.438548 -0.645263,1.963558 -0.319811,1.963558 0.03439,0 0.189498,-0.250828 0.344686,-0.557396 z M 12.93157,19.100077 c 0,-1.139564 -0.05747,-1.857984 -0.148639,-1.857984 -0.09117,0 -0.148639,0.71842 -0.148639,1.857984 0,1.139564 0.05747,1.857984 0.148639,1.857984 0.09117,0 0.148639,-0.71842 0.148639,-1.857984 z m 23.466637,0.01103 c 0.199929,-0.793995 0.220902,-2.166291 0.03311,-2.166291 -0.228799,0 -0.711863,2.538063 -0.536933,2.821105 0.160958,0.260436 0.328044,0.04328 0.503826,-0.654817 z M 19.323035,17.316412 c 0,-0.941378 -0.05898,-1.560707 -0.148639,-1.560707 -0.08965,0 -0.148638,0.619329 -0.148638,1.560707 0,0.941378 0.05898,1.560707 0.148638,1.560707 0.08965,0 0.148639,-0.619329 0.148639,-1.560707 z m 8.699875,0.01277 c 0.120147,-0.404577 0.216322,-0.974282 0.213722,-1.266012 -0.0045,-0.500142 -0.01726,-0.513841 -0.224336,-0.240005 -0.279384,0.369457 -0.502304,1.140221 -0.603837,2.087809 -0.07494,0.699432 -0.06563,0.72584 0.158186,0.448499 0.1308,-0.162083 0.336119,-0.625712 0.456265,-1.030291 z m 9.95406,-2.784317 c 0.286253,-0.543339 0.520461,-1.105527 0.520461,-1.249307 0,-0.242741 -0.02288,-0.241188 -0.320275,0.02174 -0.333413,0.294771 -1.46738,2.555044 -1.458044,2.906235 0.0083,0.31291 0.682913,-0.587364 1.257858,-1.678664 z M 13.242772,12.85725 c 0.501382,-2.531852 0.497802,-2.499249 0.265904,-2.42195 -0.505765,0.168589 -1.138672,3.14049 -0.927297,4.354254 l 0.103541,0.594555 0.117034,-0.445917 c 0.06437,-0.245253 0.262737,-1.181677 0.440818,-2.080942 z m 6.157887,1.374908 c 0.497623,-1.998195 1.679177,-7.322547 1.634826,-7.3668981 -0.304921,-0.3049217 -0.844706,1.1879305 -1.397342,3.8645451 -0.55734,2.699409 -0.70073,3.836791 -0.483706,3.836791 0.08961,0 0.200414,-0.150497 0.246222,-0.334438 z m 9.672316,-0.668874 c 0.594755,-1.376292 0.84066,-1.793043 1.509444,-2.558155 0.638772,-0.730777 0.776386,-1.046334 0.456304,-1.046334 -0.563094,0 -2.361506,2.756781 -2.593838,3.976086 -0.151286,0.793971 0.219092,0.574844 0.62809,-0.371597 z m -7.10173,-7.6548944 c 0.05657,-0.4916293 -0.143106,-0.5193488 -0.730121,-0.1013577 -0.586271,0.4174617 -0.542415,0.6115418 0.125694,0.5562464 0.48392,-0.040051 0.563595,-0.1000136 0.604427,-0.4548887 z"
         id="path519" />
      <path
         style="fill:#604839;fill-opacity:1;stroke-width:0.431052;stroke-dashoffset:0.29;stroke-opacity:0.996073"
         d="m 35.850492,57.30355 c -0.332402,-0.729543 -1.229233,-1.564026 -1.68088,-1.564026 -0.389848,0 -0.42862,-0.04654 -0.42862,-0.514494 0,-0.37823 -0.213848,-0.828549 -0.807438,-1.700291 -1.147029,-1.68452 -1.180221,-1.759129 -1.296023,-2.913251 -0.05742,-0.572259 -0.149714,-1.375753 -0.2051,-1.785541 -0.08072,-0.597267 -0.02195,-0.980584 0.296281,-1.932303 0.461208,-1.379317 1.526019,-3.683299 2.196893,-4.753521 0.602456,-0.96108 1.891997,-2.642755 2.142411,-2.793895 0.106941,-0.06455 0.780918,-0.618151 1.497725,-1.230236 1.898259,-1.620929 5.33894,-3.2604 9.366938,-4.463311 0.7562,-0.225829 1.374909,-0.487347 1.374909,-0.58115 0,-0.0938 -0.166956,-0.327398 -0.371012,-0.519098 -0.521931,-0.49033 -0.356267,-0.538205 0.320213,-0.09254 0.686843,0.452494 1.894012,0.781579 3.609996,0.984114 3.44964,0.407157 4.422167,0.688687 4.549405,1.316975 0.198737,0.981355 0.36074,1.109318 1.634892,1.29137 1.344386,0.192087 2.823528,0.651074 3.708311,1.150712 0.535932,0.30264 0.599204,0.400573 0.641704,0.993226 0.05741,0.800489 -0.69359,7.759114 -0.855555,7.927491 -0.06354,0.06605 -0.390633,-0.0233 -0.726875,-0.198557 -0.413109,-0.215324 -0.746863,-0.288889 -1.029259,-0.226864 -0.334639,0.0735 -0.49975,0.0064 -0.828642,-0.336925 -0.434331,-0.453344 -1.083661,-0.495814 -1.242731,-0.08128 -0.05118,0.133366 -0.326406,0.203296 -0.800131,0.203296 -0.597559,0 -0.813814,-0.08051 -1.253698,-0.466733 -0.520615,-0.457105 -0.555215,-0.465068 -1.677358,-0.386055 -0.630178,0.04437 -1.445511,0.185018 -1.81185,0.312545 -0.579183,0.20162 -0.681809,0.203744 -0.78672,0.01628 -0.239278,-0.427568 -0.670415,-0.54072 -1.138329,-0.298753 -0.241199,0.124729 -1.027729,0.363687 -1.747847,0.531019 -0.720117,0.167332 -1.563767,0.47199 -1.874776,0.677018 -0.347606,0.229154 -0.674278,0.338244 -0.847882,0.283144 -0.477946,-0.151694 -3.256026,1.318683 -4.492054,2.377546 -1.37018,1.173786 -2.034247,1.98001 -2.775012,3.36906 -0.577166,1.082274 -2.244528,5.124882 -2.244528,5.441976 0,0.334302 -0.258638,0.311404 -0.417358,-0.03695 z M 56.892219,44.777418 c 0.04132,-0.125456 -0.111794,-0.185799 -0.471435,-0.185799 -0.292941,0 -0.532621,0.06131 -0.532621,0.136253 0,0.326434 0.89827,0.37076 1.004056,0.04955 z"
         id="path799" />
      <path
         style="fill:#5c493d;fill-opacity:1;stroke-width:0.431052;stroke-dashoffset:0.29;stroke-opacity:0.996073"
         d="M 34.369683,60.047211 C 32.245737,59.292412 26.807908,56.343648 23.856516,54.346252 21.529034,52.771096 18.506286,50.410849 15.458428,47.788794 14.109532,46.628344 11.824619,44.734944 10.380845,43.581238 8.93707,42.427531 7.471661,41.213294 7.12438,40.882934 6.5122894,40.300666 6.5010474,40.273342 6.7571475,39.990354 7.2319797,39.465671 6.9504593,38.639774 5.4122726,36.044892 4.4432133,34.410114 3.864607,32.911743 3.864607,32.037025 c 0,-0.730618 0.1437837,-0.893643 0.6713807,-0.761225 0.6142809,0.154175 3.3576864,2.081865 5.1335223,3.607138 2.825688,2.426994 4.136211,3.49597 6.160515,5.025049 1.062767,0.802772 2.479777,1.917137 3.148911,2.476366 1.528787,1.277685 2.174774,1.665 2.568539,1.540024 0.223146,-0.07082 0.302418,-0.02977 0.302418,0.156606 0,0.138924 0.13207,0.466282 0.293488,0.727462 0.322792,0.522289 3.605164,3.449262 5.448467,4.858534 1.618304,1.237251 1.770907,1.395457 2.182226,2.262321 0.47715,1.005606 3.008351,4.813625 4.534397,6.821689 0.66723,0.877984 1.130222,1.591449 1.028868,1.585475 -0.101354,-0.006 -0.536798,-0.136137 -0.967656,-0.289253 z"
         id="path659" />
      <g
         id="g446"
         transform="matrix(1.0222883,0,0,1.235533,-0.02114431,-8.61085)">
        <g
           id="g416">
          <g
             id="g13445"
             transform="matrix(0.36802324,0,0,0.36802324,-417.53172,-284.86539)">
            <path
               d="m 1193,797.3 c -6.3,1.8 -14.4,4.8 -17.8,6.7 -6.7,3.5 -19.9,14.8 -25.1,21.4 -4.2,5.3 -10.3,18.3 -10.9,23.3 -0.2,2.4 -0.8,4.3 -1.3,4.3 -1.4,0 -0.8,11.3 0.6,13 0.8,0.8 2.3,4.1 3.5,7.2 2.3,6.1 3.7,7.8 5,5.8 1.1,-1.8 2.2,0.4 1.5,3.2 -0.7,2.7 1.7,4.8 14,12.3 4.4,2.7 9.9,6.3 12.1,8.2 6.3,4.9 21,13.9 29.4,17.9 22.9,10.9 28.5,12.4 28.5,7.4 0,-2.1 -0.4,-2.5 -2.8,-2.2 -3,0.3 -10.5,-2.6 -26.2,-10.1 -6.5,-3.1 -19.2,-11 -27.7,-17.3 -3.7,-2.7 -10.8,-7.6 -15.9,-10.8 -5.2,-3.3 -8.8,-6.1 -8.1,-6.4 2.1,-0.7 1.3,-3.2 -3,-8.8 -3.8,-5.1 -5.4,-9.9 -3.6,-11 1.2,-0.8 10.1,4.2 17,9.4 3.5,2.6 9.3,6.6 12.8,8.7 3.6,2.1 8.6,5.4 11.3,7.3 3.9,2.8 5,3.2 6.2,2.2 1.9,-1.6 1.9,-2.9 0,-6.7 -0.8,-1.7 -2.1,-5.9 -2.9,-9.4 -0.8,-3.5 -1.4,-5.6 -1.5,-4.7 -0.2,2.8 2,12.1 3.6,15.1 1.1,2.2 1.1,2.7 0.1,2 -0.7,-0.4 -4.4,-2.8 -8.1,-5.2 -6.7,-4.3 -8.9,-7.2 -10.8,-14.1 l -0.7,-2.5 -0.1,2.5 c 0,1.4 0.6,3.6 1.5,4.8 2.7,3.9 0.7,3.7 -4.8,-0.6 -3,-2.3 -6.9,-5.1 -8.8,-6.4 -2.6,-1.8 -3.9,-3.7 -5.2,-7.8 -0.9,-3 -1.7,-4.7 -1.7,-3.8 -0.1,0.9 0.4,2.9 0.9,4.4 0.6,1.5 0.9,2.8 0.7,3 -0.2,0.2 -2.7,-0.6 -5.5,-1.8 -4.5,-2 -5.2,-2.7 -5.3,-5.3 -0.4,-5.2 0,-6.5 4.2,-15 5.2,-10.7 17.1,-22.9 28.9,-29.7 6.3,-3.7 15.2,-6 19.3,-5.3 2.7,0.5 3.8,0.3 4.8,-1.2 2.3,-3.2 4.8,-3.5 8.6,-1.2 1.9,1.2 4.5,3.3 5.8,4.7 1.9,2 2.7,2.3 3.8,1.4 1.1,-1 1.9,-0.8 3.7,0.6 l 2.3,1.8 -2.8,2.2 c -1.6,1.2 -2.6,2.5 -2.3,2.7 0.3,0.3 1.7,-0.6 3.2,-2 l 2.6,-2.4 6.6,4.6 c 4.5,3.1 6.3,5 5.9,6 -0.4,1.1 -0.1,1.3 1.1,0.9 1.9,-0.7 8.9,3.2 12.7,7.2 2.5,2.6 2.6,3 1.2,4.2 -0.8,0.7 -1.5,1.8 -1.5,2.4 0.1,0.6 1,0 2.1,-1.3 l 2,-2.4 2.2,2 c 1.2,1.1 4.8,3.7 8,5.8 6.1,4 6.3,4.4 4.6,7.8 -1,2.1 -0.9,2.1 0.8,-0.1 1.8,-2.2 2,-2.2 3.3,-0.7 0.8,0.9 3.9,3.6 7,6 5.8,4.5 20.4,18.4 19.8,19 -0.2,0.2 -2.1,-0.3 -4.3,-1.1 -2.2,-0.7 -5.6,-1.4 -7.7,-1.4 -3.1,0 -3.5,-0.3 -3.1,-1.9 0.5,-2.1 -0.5,-2.4 -10.4,-3.6 -4.6,-0.6 -5.2,-0.9 -5.6,-3.3 l -0.4,-2.7 -0.2,2.6 c -0.1,2.5 -0.4,2.6 -7,3.2 -8.3,0.7 -23.3,5.6 -30.4,10 -4.9,3 -6.2401,6.60717 -3.7401,7.30717 1.8,0.5 5.5401,-3.70717 9.6401,-5.70717 5.6,-2.7 15.5,-6 21.9,-7.4 2.9,-0.6 2.9,-0.7 1.1,-2.1 -2.5,-1.8 -1.2,-1.8 1.7,0 1.2,0.8 5.4,1.7 9.2,2 10.9,1 12.5,1.5 12.5,3.7 0,1.5 0.7,1.9 3.1,1.9 1.6,0 5.3,0.7 8.1,1.6 5,1.7 5,1.7 4.5,5.3 -0.3,2 -0.9,6.4 -1.3,9.8 -0.4,3.5 -0.9,6.3 -1.1,6.3 -0.2,0 -1.3,-0.5 -2.4,-1 -1.9,-1.1 -5.9,0.2 -5.9,1.8 0,1 8.8,4.5 9.8,3.8 2.5,-1.5 6.5,-25.6 4.3,-25.6 -1.7,0 -1.3,-2.1 0.6,-3.5 1.5,-1.1 0.6,-2.3 -7.8,-10.6 -10.3,-10.2 -23.3,-21.5 -29.5,-25.6 -2.1,-1.4 -6.4,-4.7 -9.4,-7.3 -3,-2.6 -7.5,-6 -10,-7.6 -2.4,-1.6 -7.3,-5 -10.8,-7.7 -7.1,-5.3 -13.3,-8.7 -15.8,-8.7 -0.9,0 -3.3,-1.3 -5.3,-2.9 -3.8,-3 -9.4,-6.1 -10.8,-6 -0.4,0 -6,1.5 -12.3,3.2 z"
               id="path152"
               style="fill:#000000;stroke:none;stroke-width:0.1"
               sodipodi:nodetypes="ccccscccccccsccccccccccccscccccccccccccscccccccccccccccccccccccccccccscscccccccccccccsscccscscscccsccsccc" />
            <path
               d="m 1191,806 c -1.3,0.8 -1.2,1 0.3,1 0.9,0 1.7,-0.5 1.7,-1 0,-1.2 -0.1,-1.2 -2,0 z"
               id="path156"
               style="fill:#000000;stroke:none;stroke-width:0.1" />
            <path
               d="m 1189,809.9 c -1.2,2.4 -4.1,14.4 -3.5,14.9 0.2,0.3 0.7,-0.9 1,-2.4 0.4,-1.6 1.5,-5.5 2.4,-8.7 1.9,-5.9 1.9,-7.1 0.1,-3.8 z"
               id="path158"
               style="fill:#000000;stroke:none;stroke-width:0.1" />
            <path
               d="m 1214.3,817.2 c -2.4,2.7 -4.6,6.8 -4,7.4 0.2,0.3 1,-0.9 1.7,-2.6 0.7,-1.7 2.4,-4 3.8,-5 1.3,-1.1 2,-2 1.5,-2 -0.5,0 -1.9,1 -3,2.2 z"
               id="path160"
               style="fill:#000000;stroke:none;stroke-width:0.1" />
            <path
               d="m 1169,818.6 c -0.6,1.4 -0.9,4 -0.9,5.7 0.1,3 0.2,3 0.9,-0.8 0.4,-2.2 1,-4.8 1.5,-5.8 0.4,-0.9 0.4,-1.7 0.1,-1.7 -0.4,0 -1.1,1.2 -1.6,2.6 z"
               id="path162"
               style="fill:#000000;stroke:none;stroke-width:0.1" />
            <path
               d="m 1235.3,823.2 c -0.6,0.7 -1.6,2.4 -2.2,3.8 -1.2,2.4 -1.2,2.4 0.4,0.5 2,-2.4 3.7,-5.5 3.2,-5.5 -0.3,0 -0.9,0.6 -1.4,1.2 z"
               id="path164"
               style="fill:#000000;stroke:none;stroke-width:0.1" />
            <path
               d="m 1185.3,831 c 0,3 0.2,4.3 0.4,2.7 0.2,-1.5 0.2,-3.9 0,-5.5 -0.2,-1.5 -0.4,-0.2 -0.4,2.8 z"
               id="path170"
               style="fill:#000000;stroke:none;stroke-width:0.1" />
            <path
               d="m 1208.1,830.1 c -0.6,1.8 -0.9,3.4 -0.7,3.6 0.2,0.2 0.9,-1 1.5,-2.8 0.6,-1.8 0.9,-3.4 0.7,-3.6 -0.2,-0.2 -0.9,1 -1.5,2.8 z"
               id="path172"
               style="fill:#000000;stroke:none;stroke-width:0.1" />
            <path
               d="m 1168.3,835 c 0,3.6 0.2,5 0.4,3.2 0.2,-1.7 0.2,-4.7 0,-6.5 -0.2,-1.7 -0.4,-0.3 -0.4,3.3 z"
               id="path176"
               style="fill:#000000;stroke:none;stroke-width:0.1" />
            <path
               d="m 1230.5,833 c -0.4,1.7 -0.5,3.4 -0.2,3.6 0.2,0.3 0.7,-1 1.1,-2.7 0.3,-1.8 0.4,-3.4 0.2,-3.6 -0.2,-0.3 -0.7,1 -1.1,2.7 z"
               id="path178"
               style="fill:#000000;stroke:none;stroke-width:0.1" />
            <path
               d="m 1206.7,835.7 c -0.9,1.7 -3.9,15.3 -3.5,16.3 0.2,0.7 1.3,-2.9 2.4,-7.9 1.9,-8.5 2.1,-10.2 1.1,-8.4 z"
               id="path188"
               style="fill:#000000;stroke:none;stroke-width:0.1" />
            <path
               d="m 1249.5,838.1 c -1,3 -0.2,3.2 1.2,0.3 0.6,-1.3 0.7,-2.4 0.3,-2.4 -0.5,0 -1.2,0.9 -1.5,2.1 z"
               id="path190"
               style="fill:#000000;stroke:none;stroke-width:0.1" />
            <path
               d="m 1185.3,843.5 c 0,3.8 0.2,5.3 0.4,3.2 0.2,-2 0.2,-5.2 0,-7 -0.2,-1.7 -0.4,-0.1 -0.4,3.8 z"
               id="path192"
               style="fill:#000000;stroke:none;stroke-width:0.1" />
            <path
               d="m 1229.2,841 c 0,1.9 0.2,2.7 0.5,1.7 0.2,-0.9 0.2,-2.5 0,-3.5 -0.3,-0.9 -0.5,-0.1 -0.5,1.8 z"
               id="path196"
               style="fill:#000000;stroke:none;stroke-width:0.1" />
            <path
               d="m 1248.2,845.5 c -0.1,2.2 0.5,6.2 1.3,9 1.3,4.3 1.4,4.5 0.8,1 -0.3,-2.2 -1,-6.3 -1.3,-9 -0.7,-4.9 -0.7,-4.9 -0.8,-1 z"
               id="path206"
               style="fill:#000000;stroke:none;stroke-width:0.1" />
            <path
               d="m 1169.2,847 c 0,1.4 0.4,3.8 0.8,5.5 0.7,2.7 0.8,2.7 0.8,0.5 0,-1.4 -0.4,-3.9 -0.8,-5.5 -0.7,-2.7 -0.8,-2.7 -0.8,-0.5 z"
               id="path210"
               style="fill:#000000;stroke:none;stroke-width:0.1" />
            <path
               d="m 1228.1,849.2 c 0,2.6 0.3,4.9 0.7,5.2 0.4,0.2 0.6,-1.2 0.4,-3.2 -0.6,-6.2 -1,-6.9 -1.1,-2 z"
               id="path212"
               style="fill:#000000;stroke:none;stroke-width:0.1" />
            <path
               d="m 1270.1,851.6 c 0,1.1 0.3,1.4 0.6,0.6 0.3,-0.7 0.2,-1.6 -0.1,-1.9 -0.3,-0.4 -0.6,0.2 -0.5,1.3 z"
               id="path216"
               style="fill:#000000;stroke:none;stroke-width:0.1" />
            <path
               d="m 1186.3,855.5 c 0,2.2 0.2,3 0.4,1.7 0.2,-1.2 0.2,-3 0,-4 -0.3,-0.9 -0.5,0.1 -0.4,2.3 z"
               id="path218"
               style="fill:#000000;stroke:none;stroke-width:0.1" />
            <path
               d="m 1202.4,868 c 0,7.4 0.1,10.5 0.3,6.7 0.2,-3.7 0.2,-9.7 0,-13.5 -0.2,-3.7 -0.3,-0.6 -0.3,6.8 z"
               id="path220"
               style="fill:#000000;stroke:none;stroke-width:0.1" />
            <path
               d="m 1171.3,859.5 c 0,2.2 0.2,3 0.4,1.7 0.2,-1.2 0.2,-3 0,-4 -0.3,-0.9 -0.5,0.1 -0.4,2.3 z"
               id="path222"
               style="fill:#000000;stroke:none;stroke-width:0.1" />
            <path
               d="m 1229.5,862.4 c 0.3,3.8 1,7.4 1.6,8 0.8,0.8 0.9,0.4 0.4,-1.4 -0.5,-1.4 -1.2,-5 -1.6,-8 -0.8,-5.3 -0.8,-5.2 -0.4,1.4 z"
               id="path224"
               style="fill:#000000;stroke:none;stroke-width:0.1" />
            <path
               d="m 1187.2,863.5 c 0,1.6 0.2,2.2 0.5,1.2 0.2,-0.9 0.2,-2.3 0,-3 -0.3,-0.6 -0.5,0.1 -0.5,1.8 z"
               id="path226"
               style="fill:#000000;stroke:none;stroke-width:0.1" />
            <path
               d="m 1222.5,881.1 c -2.1,2.3 -5.2,7.3 -6.9,11 l -3.2,6.8 -3,-1.8 c -2,-1.2 -3.4,-3.2 -4.3,-6.2 -2.6,-8.6 -3.1,-9.6 -2.4,-5.4 0.3,2.2 1,4.8 1.5,5.8 1.6,3.2 0.1,3.1 -4,-0.2 -4.4,-3.5 -5.4,-3.7 -7.1,-1.7 -0.9,1.1 0.3,2.4 6.3,6.7 4.1,3 8.8,6.2 10.5,7.1 1.7,1 3.5,2.6 3.9,3.6 1.2,3.1 16.8479,21.41732 17.9479,20.71732 2.7,-1.6 -3.6479,-12.91732 -6.5479,-11.81732 -1,0.4 -1.3,0.1 -1,-0.8 0.3,-0.8 -1,-3 -2.9,-4.9 -2.1,-2.3 -3.1,-4.1 -2.7,-5.3 0.3,-1 0,-2.4 -0.6,-3.2 -1.8,-2.2 4,-13.9 9.8,-19.8 l 4.6,-4.7 h -3.1 c -2.3,0 -4,1 -6.8,4.1 z"
               id="path230"
               style="fill:#000000;stroke:none;stroke-width:0.1"
               sodipodi:nodetypes="cccsccscccccccccccccsc" />
            <path
               d="m 1267.9,891.5 c -0.3,0.2 -2.2,0.7 -4.3,1 -2.1,0.2 -4.5,1 -5.2,1.6 -0.8,0.7 -1.7,0.9 -2.1,0.6 -0.3,-0.4 -1.5,-0.1 -2.7,0.5 -1.1,0.7 -2.7,1.3 -3.3,1.4 -2.2,0.4 -7.7,4.2 -11,7.6 -3.5,3.6 -11.1257,19.93726 -9.6257,21.43726 1.7,1.7 6.1257,-3.53726 7.8257,-8.83726 2.4,-7.3 9,-14 17.1,-17.2 8.4,-3.4 18.3,-5 26.5,-4.3 5.8,0.5 7.2,0.3 9.1,-1.3 l 3.9324,1.40367 L 1290.3,892 c -1.3,0 -2.3,0.4 -2.3,0.8 0,0.5 -1.3,0.7 -3,0.4 -1.6,-0.2 -3,-0.9 -3,-1.4 0,-1.1 -7.9,-0.6 -9.8,0.6 -0.6,0.4 -1.2,0.2 -1.2,-0.3 0,-1.1 -2.2,-1.5 -3.1,-0.6 z"
               id="path232"
               style="fill:#000000;stroke:none;stroke-width:0.1"
               sodipodi:nodetypes="cccccccsccccccscscsc" />
            <path
               d="m 1283.8,891.7 c 0.7,0.3 1.6,0.2 1.9,-0.1 0.4,-0.3 -0.2,-0.6 -1.3,-0.5 -1.1,0 -1.4,0.3 -0.6,0.6 z"
               id="path234"
               style="fill:#000000;stroke:none;stroke-width:0.1" />
          </g>
        </g>
      </g>
    </g>
    <g
       id="g2546"
       transform="translate(0.20066151,0.86462731)">
      <path
         style="fill:#ff0000;stroke:#ff0000;stroke-width:2.7"
         d="M 39.035851,23.969637 56.725063,12.488072"
         id="path1098"
         sodipodi:nodetypes="cc" />
      <path
         style="fill:#00ff00;stroke:#00ff00;stroke-width:2.7"
         d="M 39.023105,23.28164 58.312738,37.25587"
         id="path1208"
         sodipodi:nodetypes="cc" />
      <path
         style="fill:#0000ff;stroke:#0000ff;stroke-width:2.7"
         d="M 38.648616,23.271248 44.290458,1.8280714"
         id="path1264"
         sodipodi:nodetypes="cc" />
    </g>
    <path
       style="fill:none;fill-opacity:1;stroke:#1a1a1a;stroke-width:2.7;stroke-dasharray:2.70000005,2.70000005;stroke-dashoffset:0;marker-end:url(#Arrow4)"
       d="M 14.34716,43.681173 C 18.799957,21.932148 39.725232,24.512392 39.725232,24.512392"
       id="path1676"
       sodipodi:nodetypes="cc" />
  </g>
</svg>
