<?xml version="1.0" encoding="UTF-8" standalone="no"?>
<!-- Created with Inkscape (http://www.inkscape.org/) -->

<svg
   width="64.0px"
   height="64.0px"
   viewBox="0 0 64.0 64.0"
   version="1.1"
   id="SVGRoot"
   sodipodi:docname="drawing6.svg"
   inkscape:version="1.2.2 (b0a8486541, 2022-12-01)"
   xmlns:inkscape="http://www.inkscape.org/namespaces/inkscape"
   xmlns:sodipodi="http://sodipodi.sourceforge.net/DTD/sodipodi-0.dtd"
   xmlns="http://www.w3.org/2000/svg"
   xmlns:svg="http://www.w3.org/2000/svg">
  <sodipodi:namedview
     id="namedview2306"
     pagecolor="#505050"
     bordercolor="#eeeeee"
     borderopacity="1"
     inkscape:showpageshadow="0"
     inkscape:pageopacity="0"
     inkscape:pagecheckerboard="0"
     inkscape:deskcolor="#505050"
     inkscape:document-units="px"
     showgrid="true"
     inkscape:zoom="1.6819304"
     inkscape:cx="124.26198"
     inkscape:cy="46.078006"
     inkscape:window-width="1536"
     inkscape:window-height="891"
     inkscape:window-x="0"
     inkscape:window-y="32"
     inkscape:window-maximized="1"
     inkscape:current-layer="layer1">
    <inkscape:grid
       type="xygrid"
       id="grid2501" />
  </sodipodi:namedview>
  <defs
     id="defs2301" />
  <g
     inkscape:label="Layer 1"
     inkscape:groupmode="layer"
     id="layer1">
    <g
       id="g21044"
       transform="matrix(0.28596486,0,0,0.28596486,-176.36236,-410.71695)">
      <path
         d="m 815.2,1471.9 c -2.4,1.4 -7.9,20.1 -8.9,29.8 l -0.6,6.2 5.9,0.3 5.9,0.3 0.6,4.5 c 1.5,10.1 3,26.3 2.5,26.8 -0.3,0.2 -6.6,0.5 -14.1,0.6 l -13.6,0.1 -0.5,-2.5 c -2.2,-9.4 -3.5,-13.5 -5.2,-15.4 -1,-1.1 -2.9,-3.8 -4.1,-5.8 -1.2,-2 -4.4,-5.7 -7.1,-8.1 -6.2,-5.6 -16.7,-8.7 -23,-6.8 -2,0.6 -6.4,1.1 -9.6,1 -5,0 -5.5,-0.2 -3.4,-1 1.4,-0.6 3.9,-0.8 5.6,-0.4 3.5,0.6 6,-1.4 5,-4.1 -1,-2.7 -11.5,-1.3 -22.1,3 -11.4,4.7 -13.2,5.7 -25.9,15.6 -21.2,16.4 -31.7,31.9 -34.8,51.4 -0.8,5.6 -0.9,8.5 0,11.2 1,3.4 1,3.6 -1.1,3 -5,-1.5 -8.5,-1.7 -14,-0.8 -8.2,1.3 -8.5,0.9 -9.7,-13.3 -0.5,-6.6 -1,-12.5 -1,-13.1 0,-0.6 1.8,-1.8 4,-2.7 3.1,-1.2 4,-2.1 4,-3.9 0,-1.3 -1.8,-5.4 -4,-9.1 -3.6,-5.9 -4,-7.3 -4,-13.2 0,-5.2 -0.3,-6.7 -1.6,-7.2 -1,-0.4 -2.2,0 -2.8,0.8 -0.6,0.9 -1.8,1.8 -2.6,2.1 -1.6,0.6 -8.1,24.6 -8,29.5 0,2.4 4.4,4 7.9,2.8 1.8,-0.5 2,0.1 2.6,8.2 0.4,4.8 1.1,11.5 1.5,14.7 0.5,3.2 0.8,6.2 0.5,6.6 -0.2,0.3 0.2,2.4 1,4.6 1.6,4.6 4.1,5.7 5.1,2 0.5,-2.1 1.4,-2.6 5.1,-3.2 2.5,-0.4 7.4,-0.4 10.8,-0.1 3.5,0.3 6.6,0.2 7.2,-0.4 0.6,-0.6 1.9,0.7 3.6,3.8 8.6,16 21,24.5 41.4,28.7 17.8,3.7 25.2,3 38.8,-3.5 22,-10.4 42.5,-40.3 42.5,-61.7 0,-7 0,-7 3,-7.7 1.6,-0.4 3.4,-0.4 4,0 1.8,1.1 22.3,0.9 25.1,-0.3 4.4,-1.8 4.6,-5.6 0.4,-7.2 -1.9,-0.7 -2.3,-1.8 -2.9,-8.7 -0.3,-4.3 -0.9,-10.4 -1.3,-13.6 l -0.6,-5.7 h 4.1 c 6.8,0 6.9,-1.9 0.6,-14.8 -3,-6.1 -5.4,-11.8 -5.4,-12.7 0,-0.8 -0.4,-1.5 -0.9,-1.5 -0.5,0 -1.2,-2 -1.5,-4.4 -0.7,-4.4 -2.2,-6.1 -4.4,-4.7 z m 2,22.8 c 0.3,4.3 0.4,7.9 0.4,8 -0.1,0.1 -1.4,-0.1 -2.9,-0.4 -2.8,-0.6 -2.8,-0.6 -2.2,-5.7 1.7,-11.8 4.1,-12.8 4.7,-1.9 z m 7.4,9.1 c -0.8,0.8 -1.2,0.1 -2,-3.3 l -0.6,-3 1.6,2.8 c 0.8,1.6 1.3,3.1 1,3.5 z m -59.3,4.3 c 6.2,1.6 17.7,15.1 20.4,23.8 1.2,4 1.1,4.9 -0.3,8.1 -3.3,7.1 -9.5,14.1 -16.7,18.8 -11.4,7.4 -29.5,16 -38.2,18.2 -19.5,4.8 -41.8,4.5 -54.1,-0.6 -3.1,-1.3 -3.4,-1.8 -3.4,-5.8 0,-12.4 10.4,-32 22.3,-42.1 11.5,-9.8 22.3,-17.4 23.8,-17 0.9,0.3 3.2,-0.1 5.2,-1 4.5,-1.9 5.7,-1.9 3.2,-0.1 -1.1,0.8 -1.6,2 -1.2,2.9 0.5,1.4 1.1,1.5 3.4,0.5 1.5,-0.6 8,-1.2 14.3,-1.3 6.3,-0.1 12.5,-0.5 13.8,-0.9 2.4,-0.8 3.1,-3.6 0.8,-3.6 -0.8,0 -1.8,-0.5 -2.2,-1.1 -0.7,-1.2 0.1,-1.1 8.9,1.2 z M 637,1539.5 c 0,7.8 -0.2,8.5 -2,8.5 -1.1,0 -1.8,-0.5 -1.5,-1.3 0.2,-0.6 0.9,-4.5 1.5,-8.5 0.7,-3.9 1.4,-7.2 1.6,-7.2 0.2,0 0.4,3.8 0.4,8.5 z m 7,6.7 c 0,0.5 -0.4,0.8 -1,0.8 -0.5,0 -1,-1 -1,-2.3 0,-1.8 0.2,-1.9 1,-0.7 0.5,0.8 1,1.8 1,2.2 z m 146,6.3 c -0.1,8.2 -2.6,16.1 -8.9,27 -8.5,14.8 -18.1,24.2 -32.2,31.2 -7.3,3.7 -7.6,3.8 -18.9,3.7 -24.6,-0.2 -42.6,-8.9 -51.6,-25 -2,-3.6 -3.4,-6.7 -3.2,-6.9 0.2,-0.2 2.6,0.3 5.3,1.1 2.8,0.8 10.6,1.8 17.5,2.1 21.9,0.9 40.5,-3.2 57.1,-12.8 4.8,-2.7 9,-4.9 9.3,-4.9 0.4,0 4.1,-2.3 8.2,-5.1 4.9,-3.3 9,-7 11.7,-10.8 4.5,-6.2 5.7,-6.2 5.7,0.4 z"
         id="path324"
         style="fill:#000000;stroke:none;stroke-width:0.1" />
    </g>
  </g>
</svg>
