<?xml version="1.0" encoding="UTF-8" standalone="no"?>
<!-- Created with Inkscape (http://www.inkscape.org/) -->

<svg
   width="64.0px"
   height="64.0px"
   viewBox="0 0 64.0 64.0"
   version="1.1"
   id="SVGRoot"
   sodipodi:docname="FEM_MaterialCompositeLaminate.svg"
   inkscape:version="1.2.2 (b0a8486541, 2022-12-01)"
   xmlns:inkscape="http://www.inkscape.org/namespaces/inkscape"
   xmlns:sodipodi="http://sodipodi.sourceforge.net/DTD/sodipodi-0.dtd"
   xmlns="http://www.w3.org/2000/svg"
   xmlns:svg="http://www.w3.org/2000/svg">
  <sodipodi:namedview
     id="namedview2306"
     pagecolor="#505050"
     bordercolor="#eeeeee"
     borderopacity="1"
     inkscape:showpageshadow="0"
     inkscape:pageopacity="0"
     inkscape:pagecheckerboard="0"
     inkscape:deskcolor="#505050"
     inkscape:document-units="px"
     showgrid="true"
     inkscape:zoom="6.7277216"
     inkscape:cx="26.754972"
     inkscape:cy="37.977196"
     inkscape:window-width="1536"
     inkscape:window-height="891"
     inkscape:window-x="0"
     inkscape:window-y="32"
     inkscape:window-maximized="1"
     inkscape:current-layer="layer1">
    <inkscape:grid
       type="xygrid"
       id="grid2501" />
  </sodipodi:namedview>
  <defs
     id="defs2301" />
  <g
     inkscape:label="Layer 1"
     inkscape:groupmode="layer"
     id="layer1">
    <g
       id="g466"
       transform="matrix(1.0451858,0,0,1.2100287,-0.91697971,-6.7716233)">
      <g
         id="g11627"
         transform="matrix(0.35753548,0,0,0.35753548,-311.83798,-197.62463)">
        <path
           d="m 956.3,570.1 c -0.6,0.6 -1,1.7 -0.7,2.3 0.2,0.6 -2.4,2.7 -5.7,4.6 -3.3,1.9 -12.1,8.2 -19.4,14 -7.3,5.8 -15.9,12.3 -19.1,14.5 -8.7,6 -26.8,20.6 -27.3,21.9 -0.2,0.6 -1,1.5 -1.7,1.9 -0.8,0.4 -1.4,1.6 -1.4,2.7 0,1.4 1.4,2.2 5.8,3.5 3.1,0.9 8,2.5 10.7,3.5 9.7,3.6 12.5,4.2 13.8,3.2 0.7,-0.5 4.1,-1.3 7.6,-1.7 3.5,-0.4 7.7,-1.1 9.3,-1.5 1.5,-0.5 2.8,-0.7 2.8,-0.6 0,0.5 -12.9,10.6 -13.6,10.6 -0.3,0 -1.5,-1.1 -2.6,-2.5 -1.1,-1.4 -2.4,-2.2 -3,-1.9 -0.5,0.4 -0.1,1.5 1.1,2.8 2.8,2.9 2.7,3.6 -1,7.4 -1.8,1.8 -2.9,3.6 -2.5,3.9 0.4,0.4 2,-0.7 3.7,-2.5 1.6,-1.8 3.1,-3.2 3.3,-3.2 0.2,0 2.8,2.8 5.9,6.3 l 5.5,6.3 -5.6,-0.7 c -7.7,-0.9 -13.8,-2.6 -15.6,-4.4 -0.8,-0.8 -2.4,-4.4 -3.6,-7.9 -1.1,-3.6 -2.8,-7 -3.7,-7.8 -1.5,-1.1 -1.6,-1.1 -0.8,0.7 0.4,1.1 1.8,4.8 3.1,8.2 l 2.3,6.2 -3.2,-0.5 c -7.7,-1.3 -12.7,-2.7 -12.7,-3.5 0,-0.5 1.6,-2.7 3.6,-4.9 3.5,-3.9 12.7378,-14.04025 9.8378,-14.04025 -2.6,0 -21.7378,20.14025 -20.8378,22.34025 0.5,1.3 5.3,2.8 16.4,5.2 3.6,0.8 9,2.3 12,3.4 3,1.1 6.7,2 8.3,2.1 1.5,0 6.2,0.9 10.5,1.9 4.2,1 10.3,2.5 13.5,3.2 3.1,0.6 5.7,1.5 5.7,1.8 0,0.4 0.9,0.7 1.9,0.8 1.1,0.1 4.5,1.4 7.6,2.8 5.2,2.5 5.8,2.6 7.4,1.1 1,-0.9 2.9,-1.6 4.3,-1.6 1.5,0 7.2,-3.1 13.9,-7.6 6.2,-4.1 15.8,-10.3 21.3,-13.6 5.4,-3.3 11,-7.3 12.4,-8.9 1.3,-1.6 4.5,-4.4 7.1,-6.1 4.3,-2.9 10.3,-7.8 14.4,-11.5 2.4,-2.3 1.6,-3.8 -1.9,-3.8 -1.7,0 -4.1,-0.7 -5.3,-1.5 -2.4,-1.6 -2.4,-1.6 8.8,-12 6.5,-6.1 11,-11 10.9,-11.9 -0.2,-1.1 -2.1,-1.8 -6.1,-2.3 -3.6,-0.5 -7.9,-1.9 -11,-3.7 -10.5,-6.1 -18.2,-9.2 -43.4,-17.5 -14.2,-4.7 -26.6,-9 -27.5,-9.6 -2.3,-1.3 -4.1,-1.3 -5.5,0.1 z m 16.4,10 c 4.8,1.6 11.1,3.7 13.8,4.4 7.6,2.2 30.1,10.2 33.5,12 1.7,0.9 5.2,2.9 7.8,4.6 2.6,1.6 6.6,3.5 8.8,4 l 4.2,1.1 -7.7,7.2 c -8.6,8.2 -19.3,17.3 -23.3,20 -3,2 -12.37805,6.31475 -9.97805,7.21475 C 1001.2219,641.21475 1020,633.1 1023,629.5 c 1.2,-1.5 1.5,-1.4 3.5,0.7 l 2.1,2.2 -3.1,2.6 c -1.6,1.4 -4.8,3.9 -7,5.4 -2.2,1.6 -5,4.2 -6.3,5.7 -1.2,1.6 -6.2,5.2 -11,8 -4.8,2.9 -13.6,8.6 -19.7,12.7 -14,9.5 -16.1,10.4 -20.9,9 -2,-0.6 -3.6,-1.7 -3.6,-2.4 0,-0.7 -0.7,-1.7 -1.6,-2.2 -1.3,-0.7 -0.8,-1.7 3,-5.7 l 4.6,-4.8 2.4,2.6 c 2.7,2.9 4.1,3.3 5.1,1.7 0.3,-0.6 -0.1,-1 -0.9,-1 -0.8,0 -2.2,-1 -3.1,-2.2 -1.5,-2.2 -1.4,-2.4 2.2,-5.5 5.6,-4.8 6.5,-4.8 11,-0.5 l 4,3.8 -3.4,3.8 c -1.9,2.1 -3.2,4 -2.9,4.3 0.3,0.3 3.8,-2.9 7.8,-7.1 5.9,-6.4 7.6,-7.6 9.5,-7.1 2.4,0.6 3.3,-1 1.1,-1.8 -0.9,-0.3 -0.8,-1 0.6,-2.6 1.6,-1.8 1.7,-2.1 0.3,-2.1 -0.8,0 -1.8,0.6 -2,1.2 -0.3,0.9 -1.4,0.2 -3.1,-1.8 -3.2,-4 -11.5,-10.8 -12.3,-10.1 -0.3,0.3 0.7,1.7 2.2,3 l 2.8,2.3 -4.2,3.3 -4.2,3.4 -3.3,-3.2 c -1.8,-1.7 -4.6,-4.9 -6.2,-7.1 -1.6,-2.2 -3.2,-4 -3.6,-4 -2,0 -0.3,2.7 5.4,9.1 3.3,3.8 5.9,7.1 5.7,7.2 -0.2,0.2 -2.3,1.8 -4.5,3.5 -5,3.8 -5.8,3.9 -7.2,0.8 -0.6,-1.4 -2.8,-4.3 -4.8,-6.6 l -3.7,-4.1 3.7,-3.1 c 4.8,-3.9 3.8,-5 -1.1,-1.2 -2.1,1.6 -4.7,2.7 -5.8,2.5 -1.5,-0.2 -1.7,0 -0.9,0.9 0.9,0.9 0.1,2.1 -3.1,5.1 -2.3,2.1 -4.7,3.9 -5.3,3.9 -0.6,0 -2.6,-2.5 -4.4,-5.5 -1.8,-3 -3.6,-5.5 -4,-5.5 -1.6,0 -0.7,2.4 2.7,7 1.9,2.6 3.5,5.1 3.5,5.5 0,0.4 -1.8,2.7 -4,5.2 -2.2,2.5 -4,5.1 -4,5.7 0.1,0.6 2,-1 4.3,-3.7 2.3,-2.6 4.7,-4.7 5.2,-4.7 1.5,0.1 10.6,15 9.1,15 -0.7,0 -3.5,-0.7 -6.2,-1.5 -2.7,-0.8 -6,-1.5 -7.4,-1.5 -3,0 -6.9,-3.2 -13.4,-11.2 l -4.7,-5.6 8.4,-6.6 c 4.7,-3.6 8.9,-6.6 9.5,-6.6 0.5,0 1.2,-0.7 1.6,-1.5 0.3,-0.8 1.4,-1.5 2.6,-1.5 3.1,0 25.5,-11.3 28.9,-14.5 1.2,-1.2 2,-0.5 5.5,4.5 8.8,12.5 14.6,17 22,17 2.4,0 3.9,-0.7 5,-2.2 0.8,-1.2 1.3,-2.4 1.1,-2.8 -0.3,-0.4 -3,-1 -6.2,-1.2 -5.3,-0.5 -6,-0.8 -10.1,-5.4 -2.5,-2.7 -6.1,-7.3 -8,-10.2 -3.3,-5 -3.6,-5.2 -5.4,-3.6 -1,1 -1.8,1.2 -1.8,0.7 0,-0.6 0.7,-1.6 1.5,-2.3 0.8,-0.7 1.5,-1.6 1.5,-2.1 0,-1.8 -3.7,-0.8 -7,1.9 -7.1,5.7 -19.6,12.1 -31,15.9 -4.1,1.4 -8.5,3.4 -9.7,4.6 -1.3,1.1 -2.6,1.7 -3,1.3 -0.4,-0.4 -0.2,-1 0.4,-1.4 0.6,-0.4 -4,-0.7 -10.2,-0.7 -6.6,0 -12.2,-0.5 -13.6,-1.2 -1.3,-0.6 -4.1,-1.4 -6.1,-1.8 -2.1,-0.3 -3.8,-0.9 -3.8,-1.4 0,-1.2 10,-9.4 22.6,-18.7 6.6,-4.7 15.3,-11.4 19.4,-14.7 4.1,-3.4 9.4,-7.7 11.9,-9.5 2.9,-2.1 4.6,-4 4.6,-5.4 0,-1.2 0.6,-2.3 1.3,-2.5 0.7,-0.3 1,0.1 0.6,1.1 -0.8,2.1 -0.3,2 5.2,-0.9 2.6,-1.4 5.5,-2.5 6.5,-2.5 1,0 5.8,1.4 10.6,3.1 z m 18.3,68.4 c 1.2,2.3 1.1,2.8 -1.5,5.5 -1.6,1.7 -3.8,3 -4.8,3 -2,0 -8,-5.7 -7.5,-7.2 0.2,-0.4 2.1,-2 4.3,-3.6 3.5,-2.7 4.1,-2.8 6,-1.6 1.2,0.8 2.8,2.5 3.5,3.9 z m -34.5,0.7 c 1.5,1.8 3.5,4.7 4.3,6.5 l 1.6,3.3 -4.9,5 c -2.6,2.7 -5.2,4.7 -5.7,4.4 -0.9,-0.6 -7.7,-11 -8.5,-13.2 -0.6,-1.4 7.2,-9.1 9.4,-9.2 0.6,0 2.3,1.4 3.8,3.2 z"
           id="path108"
           style="fill:#000000;stroke:none;stroke-width:0.1"
           sodipodi:nodetypes="scsscccscccscssscccccscccsccccccscsccscccscccscccccssccccccsccscccccccccccccccscccccscccccsccccsscccccccsscccccccccccssscsscccssscccscsccsccccccssscccsssccscccscccscccsccccsccccccs" />
        <path
           d="m 1014.7515,648.23865 c -2.8,1.6 3.8485,5.46135 9.1485,7.96135 l 4.9,2.2 -4.6,3.1 c -4.5,2.9 -20.5,15.5 -24.7,19.4 -1.1,1 -3.1,3.8 -4.4,6.1 l -2.4,4.3 4.7,-3.4 c 2.5,-1.9 9.9,-7.6 16.3,-12.7 6.5,-5.1 14.4,-10.6 17.6,-12.3 5.6,-2.9 7.2,-5.4 4.2,-6.5 -0.8,-0.4 -1.5,-1.2 -1.5,-2 0,-1.4 -1.2,-1.8 -3.7,-1.5 -0.7,0.1 -2.6,-0.5 -4.2,-1.4 -3.5,-1.8 -9.1485,-4.56135 -11.3485,-3.26135 z"
           id="path136"
           style="fill:#000000;stroke:none;stroke-width:0.1"
           sodipodi:nodetypes="cccccccccccsccc" />
        <path
           d="m 885.8,680.2 c -7.7,7.8 -10.8,11.7 -10.8,13.4 0,3.1 1.9,3.1 4.5,-0.1 2,-2.4 2.1,-2.4 7.4,-1 3,0.8 5.5,1.4 5.6,1.2 0.1,-0.1 0.5,-1.4 0.9,-2.9 0.6,-2.5 0.3,-2.8 -2.9,-3.4 l -3.6,-0.6 4.4,-4.7 c 4.6,-5 14.40424,-16.98624 13.00424,-18.38624 C 903.80424,663.31376 891.8,674 885.8,680.2 Z"
           id="path138"
           style="fill:#000000;stroke:none;stroke-width:0.1"
           sodipodi:nodetypes="csccccccccc" />
        <path
           d="m 987.6,689.2 c -3.6,2.9 -6.5,5.9 -6.6,6.5 0,0.7 -0.6,1.3 -1.3,1.3 -0.7,0 -2.8,1.6 -4.7,3.5 -2.5,2.6 -3,3.5 -1.7,3.5 0.9,0 1.7,0.5 1.7,1.1 0,0.6 -1.1,0.8 -2.8,0.5 -2.4,-0.6 -3.2,-0.1 -6.5,4.3 -2,2.8 -3.7,5.3 -3.7,5.6 0,1.7 6.1,-1.3 9.4,-4.7 2.2,-2.1 7.2,-6.9 11.3,-10.6 4.1,-3.7 8.4,-8.7 9.8,-11.4 1.4,-2.6 6.70459,-5.86577 6.50459,-5.86577 -0.2,0 -7.80459,3.46577 -11.40459,6.26577 z"
           id="path140"
           style="fill:#000000;stroke:none;stroke-width:0.1"
           sodipodi:nodetypes="ccscssccscscsc" />
        <path
           d="m 892.09867,690.57606 c -1.1,3 3.20133,4.32394 8.00133,5.32394 7,1.5 10.56136,2.22818 11.46136,-0.37182 1.1,-2.8 -1.66136,-3.72818 -6.76136,-4.52818 -2.4,-0.4 -5.5,-1 -6.9,-1.4 -1.9,-0.5 -5.50133,0.0761 -5.80133,0.97606 z"
           id="path142"
           style="fill:#000000;stroke:none;stroke-width:0.1"
           sodipodi:nodetypes="cccccc" />
        <path
           d="m 910.5,695.1 c -0.4,1.1 -0.5,2.2 -0.3,2.3 0.1,0.2 3.7,1.5 7.8,2.9 6.9,2.4 11.71459,2.68031 12.91459,1.18031 2.1,-2.9 -2.81459,-3.88031 -10.21459,-6.28031 -8.8,-2.7 -9.4,-2.7 -10.2,-0.1 z"
           id="path144"
           style="fill:#000000;stroke:none;stroke-width:0.1"
           sodipodi:nodetypes="cccccc" />
        <path
           d="m 929.2,700 c -1.4,2.3 -0.8,4 1.4,4 0.8,0 3.8,1.3 6.6,2.9 l 5.2,3 5.23594,-1.44757 C 949.14459,708.03534 944.9,704.7 944.8,704.6 c -0.2,-0.1 -2.5,-1.3 -5.3,-2.7 -7.5,-4 -8.8,-4.2 -10.3,-1.9 z"
           id="path146"
           style="fill:#000000;stroke:none;stroke-width:0.1"
           sodipodi:nodetypes="csccsccc" />
        <path
           d="m 945,707.9 c -0.8,1.7 -0.8,2.2 0.2,2.6 0.7,0.2 4.2,1.5 7.8,2.8 l 6.5,2.4 6.22716,-0.98947 C 967.42716,712.41053 963,711.1 957.3,709 c -9.1,-3.4 -10.9,-3.5 -12.3,-1.1 z"
           id="path148"
           style="fill:#000000;stroke:none;stroke-width:0.1"
           sodipodi:nodetypes="ccccccc" />
      </g>
      <path
         style="fill:#c87137;stroke-width:0.431052;stroke-dashoffset:0.29;stroke-opacity:0.996073"
         d="m 32.031647,56.381941 c -1.855525,-0.742289 -4.349311,-1.534249 -4.831161,-1.534249 -0.28968,0 -0.62999,-0.120958 -0.807531,-0.287025 -0.491663,-0.459885 -4.280897,-2.35487 -4.923201,-2.462077 -0.322306,-0.0538 -1.689655,-0.454674 -3.038551,-0.890838 -1.348897,-0.436164 -2.887308,-0.875519 -3.418691,-0.976344 -0.531384,-0.100826 -1.13337,-0.266213 -1.337749,-0.367526 -0.576204,-0.285634 -5.1794798,-1.148347 -5.5846964,-1.046644 -0.260612,0.06541 -0.3608526,0.0293 -0.3608526,-0.129992 0,-0.278774 -0.362549,-0.474206 -1.1175269,-0.602402 -1.208745,-0.205247 -1.2105629,-0.141682 0.04389,-1.534652 2.0836963,-2.313779 4.3471259,-5.164615 4.5256279,-5.700123 0.04642,-0.139255 0.538376,-0.03969 1.892941,0.383097 1.006622,0.314188 2.43982,0.66216 3.184883,0.773271 2.501905,0.373108 9.525394,2.00088 10.269148,2.379991 0.247363,0.126087 0.884521,0.36533 1.415904,0.53165 0.531384,0.166319 1.534695,0.55746 2.229581,0.869201 1.862438,0.835531 1.958009,0.846086 2.772994,0.306262 0.383166,-0.253798 0.885972,-0.461451 1.117347,-0.461451 0.608859,0 3.099,-1.343052 5.919816,-3.192841 1.348896,-0.884558 3.623069,-2.34411 5.053716,-3.243449 2.097037,-1.318247 4.463639,-2.884688 5.856233,-3.876208 0.120917,-0.08609 0.439898,0.05336 0.933977,0.408324 0.41269,0.296488 1.461667,0.87886 2.331063,1.294161 0.869394,0.4153 1.580716,0.775519 1.580716,0.800487 0,0.02497 -0.449527,0.337523 -0.998949,0.694568 -2.223301,1.444828 -8.184603,6.168132 -9.554401,7.570217 -0.548008,0.560925 -1.264459,1.070176 -2.173276,1.544755 -1.434141,0.748901 -3.355217,2.298145 -4.025042,3.245981 -0.219166,0.31013 -0.61397,0.666129 -0.877342,0.791107 -0.533384,0.253107 -2.28858,1.943086 -2.28858,2.203543 0,0.09162 0.212974,0.246978 0.473275,0.345229 0.649419,0.245129 0.433352,0.383658 -0.548364,0.351577 -1.035785,-0.03385 -1.216339,0.06717 -2.011238,1.125253 -0.356275,0.474234 -0.684752,0.90312 -0.72995,0.953079 -0.0452,0.04996 -0.483503,-0.06971 -0.97401,-0.265932 z"
         id="path2265" />
      <path
         style="fill:#916f6f;stroke-width:0.431052;stroke-dashoffset:0.29;stroke-opacity:0.996073"
         d="m 31.656659,43.925434 c -0.724816,-0.231752 -1.334358,-0.705989 -1.334358,-1.038161 0,-0.11351 -0.174602,-0.343723 -0.388005,-0.511585 l -0.388005,-0.305205 0.277137,-0.437706 c 0.152425,-0.24074 0.806215,-0.981386 1.452866,-1.645883 l 1.175731,-1.208174 0.755962,0.734156 c 0.959155,0.931488 1.327925,1.127823 1.722115,0.916859 0.440716,-0.235865 0.361231,-0.563843 -0.192739,-0.795308 -0.498616,-0.208335 -1.293649,-1.023633 -1.293649,-1.326624 0,-0.231496 1.422204,-1.552506 2.221522,-2.063456 1.012964,-0.647517 1.271468,-0.581065 2.736876,0.703553 0.706436,0.619281 1.282882,1.171103 1.28099,1.22627 -0.0019,0.05517 -0.435231,0.594937 -0.962977,1.19949 -0.92325,1.057618 -1.236469,1.578234 -1.057305,1.757398 0.127778,0.127778 1.874998,-1.456491 3.01717,-2.73578 0.557246,-0.624141 1.336896,-1.391586 1.732556,-1.705434 0.610761,-0.484472 0.828256,-0.570632 1.440455,-0.570632 0.882933,0 1.072795,-0.236775 0.534219,-0.66622 l -0.400991,-0.319739 0.451334,-0.56793 c 0.248234,-0.312362 0.451334,-0.659064 0.451334,-0.77045 0,-0.306018 -0.503049,-0.242964 -0.965831,0.121061 l -0.411367,0.32358 -1.132225,-1.203022 c -1.827873,-1.942167 -3.879806,-3.52448 -4.102743,-3.16376 -0.129808,0.210033 0.286201,0.77892 0.973501,1.331249 0.330443,0.265551 0.580514,0.536337 0.555717,0.601748 -0.0248,0.06541 -0.647075,0.59232 -1.382837,1.17091 l -1.337749,1.051981 -1.088567,-1.072806 c -0.598713,-0.590043 -1.429844,-1.507574 -1.84696,-2.038958 -1.50537,-1.917764 -2.04387,-2.331965 -2.04387,-1.572092 0,0.410953 0.478288,1.068812 2.47886,3.409533 0.778242,0.910563 1.472225,1.76249 1.542185,1.893171 0.100123,0.187026 -0.14819,0.44428 -1.16657,1.208568 -2.095865,1.572935 -2.178153,1.586483 -2.769319,0.455958 -0.404834,-0.774191 -0.918464,-1.458585 -2.13231,-2.841231 l -0.783725,-0.892712 1.106105,-0.914939 c 1.044693,-0.86414 1.388296,-1.280919 1.206171,-1.463044 -0.09846,-0.09846 -0.748873,0.230743 -1.99804,1.011295 -0.687124,0.429356 -1.117444,0.597325 -1.530282,0.597325 -0.571568,0 -0.573892,0.0024 -0.480461,0.500451 0.07924,0.422383 0.02017,0.584408 -0.378669,1.038659 -0.259905,0.296016 -0.908554,0.885145 -1.441443,1.309178 -0.761462,0.605914 -1.021035,0.739086 -1.212462,0.622046 -0.133966,-0.08191 -0.752867,-0.912963 -1.375336,-1.846788 -0.622469,-0.933826 -1.277762,-1.772486 -1.456207,-1.86369 -0.308353,-0.1576 -0.285395,-0.190095 0.462888,-0.655168 0.433033,-0.269139 0.954552,-0.674367 1.15893,-0.900505 0.258839,-0.286398 0.664768,-0.483156 1.337748,-0.64842 1.191669,-0.292639 7.326684,-3.310624 9.053862,-4.453847 0.963064,-0.637455 1.296104,-0.789605 1.44957,-0.66224 0.109582,0.09095 0.962376,1.182052 1.895096,2.424681 2.811625,3.745824 4.584677,5.106442 6.843202,5.251385 0.899857,0.05775 1.21531,0.01524 1.742024,-0.234736 0.353749,-0.167891 1.264943,-0.542824 2.024874,-0.833183 2.002106,-0.764981 4.876004,-2.233785 5.868551,-2.999324 0.969394,-0.747682 1.122978,-0.735115 1.795748,0.146931 l 0.396766,0.520187 -0.931091,0.775863 c -0.512101,0.426724 -1.432747,1.14649 -2.045881,1.59948 -0.613135,0.452989 -1.790421,1.461546 -2.616189,2.241237 -1.062413,1.00313 -2.095633,1.787027 -3.533769,2.681049 -1.117803,0.694886 -4.054094,2.591241 -6.525093,4.214122 -6.161482,4.046688 -6.891,4.383067 -8.43504,3.889378 z"
         id="path2267" />
      <path
         style="fill:#916f6f;stroke-width:0.431052;stroke-dashoffset:0.29;stroke-opacity:0.996073"
         d="m 39.075761,36.504972 c -0.701976,-0.551084 -1.470162,-1.47221 -1.470162,-1.76286 0,-0.191055 2.594531,-2.041591 2.862399,-2.041591 0.731479,0 2.191318,1.506549 2.191318,2.261432 0,0.333088 -1.236286,1.691711 -1.808764,1.987751 -0.626049,0.323742 -0.875536,0.261225 -1.774791,-0.444732 z"
         id="path2269" />
      <path
         style="fill:#916f6f;stroke-width:0.431052;stroke-dashoffset:0.29;stroke-opacity:0.996073"
         d="m 28.20579,40.912811 c -0.303589,-0.342924 -2.078574,-3.095155 -2.406848,-3.731978 -0.150144,-0.291267 -0.220424,-0.645896 -0.16878,-0.851662 0.10948,-0.436202 1.943603,-2.273346 2.648708,-2.653071 0.514772,-0.277223 0.523025,-0.276852 0.973286,0.04376 0.614859,0.437818 1.735289,1.954508 2.359424,3.193874 l 0.512468,1.017625 -0.863714,0.909345 c -1.239827,1.305329 -2.396035,2.332222 -2.625915,2.332222 -0.109091,0 -0.301974,-0.117053 -0.428629,-0.260117 z"
         id="path2271" />
      <path
         style="fill:#916f6f;stroke-width:0.431052;stroke-dashoffset:0.29;stroke-opacity:0.996073"
         d="m 25.417223,41.681883 c -1.021891,-0.272917 -2.093125,-0.499079 -2.380519,-0.502583 -1.14965,-0.01402 -2.518439,-1.149726 -5.164446,-4.285031 -1.22497,-1.451491 -1.384491,-1.701799 -1.184091,-1.857984 3.139181,-2.446571 4.554532,-3.524874 4.626655,-3.524874 0.04903,0 0.08916,0.197656 0.08916,0.439236 0,0.304098 0.36585,0.977735 1.18911,2.189498 0.654011,0.962645 1.187411,1.818465 1.185336,1.901824 -0.0021,0.08336 -0.34348,0.552887 -0.758676,1.043394 -1.014655,1.198703 -2.061686,2.603507 -2.061686,2.766169 0,0.364877 0.502317,-0.003 1.88368,-1.379709 1.354991,-1.350379 1.543828,-1.489862 1.766661,-1.304926 0.509652,0.422973 2.707543,3.94094 2.960931,4.739295 0.122576,0.386204 0.141077,0.388133 -2.15211,-0.224309 z"
         id="path2273" />
      <path
         style="fill:#916f6f;stroke-width:0.431052;stroke-dashoffset:0.29;stroke-opacity:0.996073"
         d="M 17.910967,40.046726 C 15.92377,39.78024 13.899123,39.299106 13.080208,38.898752 12.303936,38.519246 11.85791,37.750052 10.822376,35.005014 10.437626,33.9851 10.045695,33.21047 9.779962,32.944736 L 9.3541185,32.518893 9.7562964,31.977992 c 0.2211978,-0.297495 0.4163306,-0.560963 0.4336276,-0.585484 0.0173,-0.02452 0.431767,0.09027 0.921042,0.255098 1.786685,0.601891 2.219878,0.646269 3.153744,0.323085 0.466877,-0.161572 1.645499,-0.403191 2.619159,-0.53693 0.973661,-0.133739 2.204306,-0.333378 2.734769,-0.443641 0.530462,-0.110264 0.984084,-0.180872 1.008048,-0.156907 0.05072,0.05072 -2.318809,1.964042 -3.580989,2.891537 l -0.86527,0.635832 -0.870201,-0.830031 c -0.874081,-0.833732 -1.095495,-0.953822 -1.261967,-0.684463 -0.111055,0.179689 0.132286,0.649584 0.7093,1.36967 0.569259,0.710408 0.498848,0.962129 -0.633373,2.264349 -0.492437,0.566374 -0.895339,1.118195 -0.895339,1.22627 0,0.465659 0.651803,0.138541 1.533581,-0.769652 0.515928,-0.531384 0.979805,-0.966152 1.030837,-0.966152 0.08339,0 3.169822,3.413504 3.66231,4.050405 0.110626,0.143065 0.142782,0.252233 0.07146,0.242596 -0.07132,-0.0096 -0.798554,-0.107218 -1.616068,-0.216848 z"
         id="path2275" />
      <path
         style="fill:#916f6f;stroke-width:0.431052;stroke-dashoffset:0.29;stroke-opacity:0.996073"
         d="M 8.9824094,37.83603 C 6.9516069,37.419699 5.7969105,37.045202 5.7969105,36.802895 c 0,-0.192151 0.3716578,-0.656059 2.2148634,-2.764626 0.6074353,-0.694886 1.1131984,-1.277704 1.1239178,-1.295152 0.028829,-0.04692 2.0122133,5.227904 2.0122133,5.351501 0,0.15578 -0.34555,0.114517 -2.1654956,-0.258588 z"
         id="path2277" />
      <path
         style="fill:#6f916f;stroke-width:0.431052;stroke-dashoffset:0.29;stroke-opacity:0.996073"
         d="m 46.486959,30.007343 c -0.142957,-0.08003 -1.008925,-0.243921 -1.924375,-0.364199 -1.199557,-0.157608 -1.832732,-0.317906 -2.266937,-0.573912 -0.737025,-0.43455 -2.484419,-2.439887 -4.102582,-4.70819 -0.664513,-0.9315 -1.338078,-1.75491 -1.49681,-1.8298 -0.214976,-0.101427 -0.404218,-0.05069 -0.741786,0.198887 -0.644442,0.476457 -0.663032,0.31256 -0.04628,-0.40798 0.29169,-0.340775 0.506432,-0.736937 0.477203,-0.88036 -0.08446,-0.414432 -1.039939,-0.307634 -1.809887,0.202299 -0.356064,0.23582 -1.418894,0.948591 -2.361841,1.583935 -1.930948,1.301045 -5.026922,2.88962 -7.465318,3.830531 -0.899265,0.347002 -2.237013,0.865238 -2.972775,1.151637 -0.735762,0.286398 -1.746301,0.778455 -2.245643,1.093459 -1.028123,0.648579 -1.31268,0.7154 -1.173048,0.275457 0.05189,-0.163502 0.03968,-0.300129 -0.02714,-0.303615 -0.06682,-0.0035 -1.793681,-0.06596 -3.837464,-0.138836 C 10.930458,29.009655 10.718243,28.985254 9.3765794,28.548439 8.6067288,28.297794 7.9044108,28.092347 7.8158728,28.091891 7.382697,28.089661 6.5401042,27.759432 6.5401042,27.591894 c 0,-0.393541 3.1274834,-2.93839 8.9183238,-7.256888 5.509903,-4.108989 11.484836,-8.903995 11.709524,-9.397132 0.09987,-0.219181 0.181575,-0.518773 0.181575,-0.665758 0,-0.146986 0.142132,-0.3946664 0.315849,-0.5504016 l 0.315849,-0.283155 -0.104701,0.4830759 c -0.09107,0.4201837 -0.0656,0.4830757 0.195672,0.4830757 0.165206,0 1.049954,-0.367881 1.966107,-0.8175129 0.916153,-0.4496321 1.857022,-0.817513 2.090819,-0.817513 0.233799,0 1.845921,0.4608987 3.582497,1.0242194 1.736574,0.5633205 4.762707,1.5396605 6.724739,2.1696455 6.143727,1.972675 9.687881,3.358428 11.965418,4.678439 2.690977,1.559633 3.156888,1.785884 4.459161,2.165418 0.613135,0.178692 1.114791,0.359789 1.114791,0.402439 0,0.106184 -3.323339,3.215057 -5.500363,5.145405 -2.284552,2.025694 -4.738579,4.036453 -5.498903,4.505645 -1.691131,1.043586 -2.229982,1.291734 -2.489503,1.146447 z"
         id="path2348" />
    </g>
  </g>
</svg>
