<?xml version="1.0" encoding="UTF-8" standalone="no"?>
<!-- Created with Inkscape (http://www.inkscape.org/) -->

<svg
   width="64.0px"
   height="64.0px"
   viewBox="0 0 64.0 64.0"
   version="1.1"
   id="SVGRoot"
   sodipodi:docname="FEM_MaterialLaminate.svg"
   inkscape:version="1.2.2 (b0a8486541, 2022-12-01)"
   xmlns:inkscape="http://www.inkscape.org/namespaces/inkscape"
   xmlns:sodipodi="http://sodipodi.sourceforge.net/DTD/sodipodi-0.dtd"
   xmlns="http://www.w3.org/2000/svg"
   xmlns:svg="http://www.w3.org/2000/svg">
  <sodipodi:namedview
     id="namedview2306"
     pagecolor="#505050"
     bordercolor="#eeeeee"
     borderopacity="1"
     inkscape:showpageshadow="0"
     inkscape:pageopacity="0"
     inkscape:pagecheckerboard="0"
     inkscape:deskcolor="#505050"
     inkscape:document-units="px"
     showgrid="true"
     inkscape:zoom="6.7277216"
     inkscape:cx="26.97793"
     inkscape:cy="38.125834"
     inkscape:window-width="1536"
     inkscape:window-height="891"
     inkscape:window-x="0"
     inkscape:window-y="32"
     inkscape:window-maximized="1"
     inkscape:current-layer="layer1">
    <inkscape:grid
       type="xygrid"
       id="grid2501" />
  </sodipodi:namedview>
  <defs
     id="defs2301" />
  <g
     inkscape:label="Layer 1"
     inkscape:groupmode="layer"
     id="layer1">
    <path
       id="path108"
       style="fill:#000000;stroke:none;stroke-width:0.0402081"
       d="m 31.416016,0.27929688 c -0.340993,0.005408 -0.638808,0.15614824 -0.900391,0.45898437 -0.224215,0.25957379 -0.373826,0.73456605 -0.261719,0.99414065 0.07474,0.2595733 -0.89769,1.1682516 -2.130859,1.9902343 -1.233168,0.821984 -4.522092,3.5474272 -7.25,6.0566407 -2.727909,2.5092081 -5.94092,5.3216671 -7.136719,6.2734371 -3.251076,2.595745 -10.0143275,8.912194 -10.2011718,9.47461 -0.074738,0.259565 -0.3751386,0.649226 -0.6367187,0.822265 -0.2989492,0.173051 -0.5214844,0.69209 -0.5214844,1.167969 0,0.60568 0.5217944,0.951267 2.1660157,1.513672 1.1584277,0.389365 2.9910462,1.082997 4,1.515625 0.087453,0.03758 0.13427,0.05377 0.21875,0.08984 -2.3166048,2.259052 -6.8043229,7.929673 -6.5351563,8.691406 0.1868431,0.562404 1.9809853,1.211705 6.1289063,2.25 1.3452708,0.346103 3.3633142,0.994824 4.4843752,1.470703 1.121061,0.475891 2.503669,0.86494 3.101562,0.908203 0.560537,0 2.316981,0.389638 3.923828,0.822266 1.56949,0.432616 3.849122,1.081937 5.044922,1.384765 1.15843,0.259577 2.128907,0.64952 2.128906,0.779297 0,0.173051 0.337247,0.302453 0.710938,0.345703 0.41106,0.04326 1.681414,0.605271 2.839844,1.210938 1.943169,1.081559 2.167719,1.125505 2.765625,0.476562 0.373679,-0.389353 1.084254,-0.693359 1.607422,-0.693359 0.560524,0 2.689665,-1.340306 5.193359,-3.287109 2.31686,-1.773752 5.903708,-4.455152 7.958984,-5.882813 2.017908,-1.427649 4.111611,-3.159369 4.634766,-3.851562 0.485798,-0.692205 1.68076,-1.903216 2.652344,-2.638672 1.606847,-1.25461 3.84875,-3.373909 5.380859,-4.974609 0.896846,-0.995045 0.59891,-1.644532 -0.708984,-1.644532 -0.635275,0 -1.532039,-0.302346 -1.980469,-0.648437 -0.896846,-0.692205 -0.896217,-0.692122 3.289062,-5.191407 2.428968,-2.638996 4.109635,-4.759071 4.072266,-5.148437 -0.07474,-0.475891 -0.784545,-0.77978 -2.279297,-0.996094 -1.345263,-0.216275 -2.952898,-0.82089 -4.111328,-1.599609 C 55.140745,9.7809243 52.264562,8.4384282 42.847656,4.8476562 37.541316,2.8143289 32.906634,0.95488629 32.570312,0.6953125 32.140579,0.41410754 31.756997,0.27388903 31.416016,0.27929688 Z m 1.265625,3.44335932 c 0.373679,0 2.169198,0.6063386 3.96289,1.3417969 1.793693,0.6921967 4.147297,1.6014607 5.15625,1.9042969 2.840016,0.95177 11.247053,4.412688 12.517578,5.191406 0.635275,0.389366 1.944431,1.254767 2.916016,1.990235 0.971585,0.692193 2.466943,1.514166 3.289063,1.730468 l 1.568359,0.47461 -2.876953,3.115234 c -3.213706,3.547515 -7.21228,7.484259 -8.707032,8.652344 -0.587162,0.453175 -1.818295,1.1797 -2.738281,1.826172 0.0244,-0.114063 0.03323,-0.212493 0.0098,-0.267578 -0.112176,-0.173051 -1.120619,-0.433006 -2.316406,-0.519532 -1.980538,-0.216302 -2.243282,-0.345871 -3.775391,-2.335937 -0.934215,-1.168084 -2.27828,-3.159453 -2.988281,-4.414063 -1.233168,-2.163105 -1.344947,-2.248845 -2.017578,-1.55664 -0.373691,0.432616 -0.673829,0.519048 -0.673829,0.302734 0,-0.259577 0.261606,-0.691301 0.560547,-0.994141 0.298953,-0.302828 0.560547,-0.693842 0.560547,-0.910156 0,-0.778719 -1.382066,-0.345818 -2.615234,0.822266 -2.653171,2.465945 -7.323966,5.234943 -11.583984,6.878906 -1.532121,0.60568 -3.176583,1.471092 -3.625,1.990234 -0.485799,0.475891 -0.971618,0.735551 -1.121094,0.5625 -0.149477,-0.17304 -0.07578,-0.432416 0.148437,-0.605468 0.224215,-0.173051 -1.493687,-0.302735 -3.810547,-0.302735 -2.466325,0 -4.5588695,-0.216692 -5.0820309,-0.519531 C 8.9533548,27.820501 7.9075299,27.473832 7.1601562,27.300781 6.3754147,27.170993 5.7402344,26.911626 5.7402344,26.695312 c 0,-0.519142 3.7368608,-4.066448 8.4453126,-8.089843 2.466324,-2.033328 5.715926,-4.931726 7.248047,-6.359375 1.532109,-1.470924 3.51305,-3.3306541 4.447265,-4.1093752 1.083692,-0.9085084 1.71875,-1.7302653 1.71875,-2.3359376 0,-0.5191466 0.224746,-0.9955068 0.486329,-1.0820312 0.261572,-0.1297873 0.374085,0.041982 0.224609,0.4746094 -0.298953,0.9085084 -0.111917,0.8659343 1.943359,-0.3886719 0.971585,-0.6056723 2.054044,-1.0820312 2.427735,-1.0820313 z m 2.86914,18.6015628 c 0.33457,-0.03245 0.747589,0.543683 1.728516,2.166015 3.288445,5.407792 5.455426,7.353516 8.220703,7.353516 0.727803,0 1.228597,-0.210829 1.613281,-0.632812 1.49613,-0.371562 7.312633,-3.367329 8.326172,-4.775391 0.448429,-0.648931 0.561224,-0.605773 1.308594,0.302734 l 0.785156,0.953125 -1.158203,1.125 c -0.597894,0.605679 -1.795068,1.686996 -2.617188,2.335938 -0.822109,0.692193 -1.867728,1.815901 -2.353515,2.464844 -0.448429,0.692193 -2.317635,2.24959 -4.111328,3.460937 -1.793693,1.25461 -5.081849,3.722343 -7.361328,5.496094 -5.231614,4.10992 -6.016854,4.498245 -7.810547,3.892578 -0.747382,-0.259577 -1.34375,-0.734281 -1.34375,-1.037109 0,-0.30284 -0.261346,-0.736812 -0.597656,-0.953126 -0.120824,-0.07532 -0.199535,-0.158336 -0.228516,-0.267578 0.125662,0.651915 -0.632593,1.123331 -1.458984,0.421875 -0.160611,-0.136317 -0.314576,-0.281627 -0.435547,-0.455078 0.02143,0.129409 0.01446,0.214844 -0.04492,0.214844 -0.261584,0 -1.307453,-0.302346 -2.316407,-0.648437 -1.008942,-0.346102 -2.242468,-0.650391 -2.765624,-0.650391 -0.951245,0 -2.151009,-1.011406 -3.97461,-3.427735 -0.01976,0.04421 -0.04206,0.08 -0.06836,0.103516 -0.148213,0.132516 -0.32261,0.231003 -0.492188,0.335938 l 1.470703,1.951172 -2.09375,-0.302735 c -2.877384,-0.389354 -5.155482,-1.125578 -5.828125,-1.904297 -0.101571,-0.11759 -0.243418,-0.407777 -0.396484,-0.755859 -0.268877,-0.12963 -0.530152,-0.275572 -0.773437,-0.447266 -0.06957,-0.05263 -0.133342,-0.109907 -0.195313,-0.167969 l 0.355469,1.111329 -1.1953128,-0.216797 c -2.877387,-0.562416 -4.7460937,-1.16757 -4.7460937,-1.513672 0,-0.216314 0.5983307,-1.167371 1.3457031,-2.119141 0.8399973,-1.083619 2.5513922,-3.269711 3.390625,-4.703125 2.5942864,1.067593 3.5484524,1.272509 3.9707034,0.896485 0.261572,-0.216314 1.531949,-0.563278 2.839843,-0.736329 1.307907,-0.17304 2.876705,-0.475385 3.47461,-0.648437 0.560525,-0.216314 1.046875,-0.303028 1.046875,-0.259766 0,0.05387 -0.332097,0.392861 -0.785156,0.830079 0.06438,-0.04386 0.131285,-0.08497 0.199218,-0.123047 0.24067,-0.134897 0.463519,-0.19237 0.658203,-0.19336 0.206929,-0.0011 0.382071,0.06175 0.511719,0.164063 0.643773,-0.52286 1.096425,-0.851563 1.208985,-0.851563 0.186834,0 0.450132,-0.302347 0.599609,-0.648437 0.112107,-0.346103 0.522286,-0.648438 0.970703,-0.648438 1.158431,0 9.528302,-4.889051 10.798828,-6.273437 0.112107,-0.129789 0.216606,-0.207935 0.328125,-0.21875 z m -2.109375,7.908203 c 0.375295,0.559986 0.869624,1.240547 1.521485,2.08789 0.795459,1.06046 1.447635,1.987673 1.814453,2.554688 0.09689,-0.09113 0.192306,-0.183899 0.287109,-0.277344 -0.423621,-0.496137 -0.850132,-0.990008 -1.271484,-1.488281 -0.798255,-0.947211 -1.591611,-1.899182 -2.351563,-2.876953 z m -11.552734,1.324219 c -0.02604,0.193968 -0.141681,0.394426 -0.367188,0.560547 0.03292,0.10892 0.08267,0.235696 0.138672,0.36914 0.05058,-0.302029 0.244976,-0.497412 0.490235,-0.541016 -0.08677,-0.127267 -0.199805,-0.317159 -0.261719,-0.388671 z m 6.242187,0.310547 c 0.0518,0.076 0.106478,0.149962 0.160157,0.224609 0.104333,-0.07078 0.20826,-0.142216 0.3125,-0.212891 -0.09699,0.01543 -0.186914,0.02239 -0.25586,0.0078 -0.09205,-0.01421 -0.150743,-0.01556 -0.216797,-0.01953 z m -9.011718,0.335937 c -1.071445,0.982343 -2.290537,2.054579 -2.847657,2.480469 0.0361,0.02097 0.07135,0.04344 0.107422,0.06445 0.06989,-0.06601 0.13986,-0.132739 0.208985,-0.199219 0.301154,-0.286154 0.614603,-0.559032 0.9375,-0.820312 0.217158,-0.15819 0.437031,-0.311693 0.634765,-0.494141 0.163773,-0.174646 0.324581,-0.350994 0.484375,-0.529297 0.138255,-0.151244 0.286387,-0.295345 0.423828,-0.447266 0.0171,-0.01812 0.03373,-0.03657 0.05078,-0.05469 z m 22.621093,0.306641 c -0.0432,0.05583 -0.09431,0.111644 -0.15039,0.167968 0.175211,0.03186 0.348853,0.121846 0.568359,0.28125 -0.135126,-0.153835 -0.277251,-0.300673 -0.417969,-0.449218 z M 8.7421875,32.736328 c -0.02886,0.02599 0.00925,0.157447 0.074219,0.34375 0.074297,-0.06931 0.1621344,-0.115697 0.2578126,-0.138672 C 8.8976334,32.796256 8.775155,32.706643 8.7421875,32.736328 Z m 36.5859375,1.341797 c -0.122446,0.05433 -0.239344,0.133699 -0.326172,0.228516 0.02151,0.03128 0.04274,0.06268 0.06445,0.09375 0.08505,-0.109136 0.173666,-0.215618 0.261719,-0.322266 z m -1.791016,0.722656 c 0.298442,0.695409 0.283799,1.028358 -0.208984,1.707031 0.114693,-0.118688 0.226047,-0.240407 0.328125,-0.371093 0.142678,-0.180431 0.288112,-0.358893 0.433594,-0.53711 -0.06816,-0.09499 -0.142488,-0.185701 -0.201172,-0.287109 -0.113985,-0.172718 -0.232857,-0.34194 -0.351563,-0.511719 z m -5.519531,0.94336 c -0.254795,0.24731 -0.516174,0.486466 -0.78125,0.722656 0.606026,-0.105002 1.122269,0.350732 2.023438,1.347656 l 1.138672,1.253906 c 0.07679,-0.121447 0.160364,-0.238428 0.251953,-0.347656 -0.317757,-0.235518 -0.626107,-0.484107 -0.902344,-0.769531 -0.480906,-0.520759 -0.868778,-1.106876 -1.289063,-1.675781 -0.143633,-0.18007 -0.295141,-0.353419 -0.441406,-0.53125 z m -23.154297,0.626953 c -0.0019,0.0027 -0.0036,0.0095 -0.0078,0.01953 -0.01467,0.0075 -0.01,0.02272 0,0.04102 0.0091,-0.03838 0.01494,-0.07083 0.0078,-0.06055 z m 30.863281,0.226562 c -0.152421,0.07 -0.34209,0.0823 -0.546874,0.01953 -0.0607,0.07474 -0.121398,0.149468 -0.181641,0.224609 0.412101,0.07892 0.679715,-0.04815 0.728515,-0.244141 z M 23.941406,38.40625 c -0.218519,0.25792 -0.437399,0.515465 -0.65625,0.773438 -0.103756,0.12553 -0.206067,0.252914 -0.30664,0.380859 0.368341,-0.455565 0.701621,-0.823361 0.992187,-1.121094 -0.0104,-0.01044 -0.01973,-0.02195 -0.0293,-0.0332 z m 10.152344,1.513672 c -0.01147,0.0029 -0.02342,0.0056 -0.03516,0.0078 0.0468,0.07646 0.08952,0.155442 0.138672,0.230469 -0.04729,-0.08825 -0.07322,-0.162053 -0.103516,-0.238281 z m 6.009766,0.380859 -0.619141,0.800781 c -0.710001,0.908519 -1.196091,1.731541 -1.083984,1.861329 0.09463,0.109544 1.054473,-0.885454 2.246093,-2.283203 -0.243807,-0.0033 -0.447933,-0.143529 -0.542968,-0.378907 z m -5.361328,0.607422 c 0.01182,0.01487 0.02328,0.03011 0.03516,0.04492 0.246486,0.328173 0.557913,0.594057 0.86914,0.857422 0.06083,-0.08776 0.132113,-0.15546 0.207032,-0.207031 -0.01745,-0.149095 -0.152509,-0.242188 -0.369141,-0.242188 -0.191947,0 -0.474257,-0.188215 -0.742187,-0.453125 z" />
    <path
       id="path136"
       style="fill:#000000;stroke:none;stroke-width:0.0402081"
       d="m 52.943359,34.398438 c -0.230969,-0.0038 -0.43179,0.03908 -0.585937,0.144531 -1.046333,0.692203 1.439364,2.363744 3.419922,3.445312 l 1.830078,0.951172 -1.71875,1.341797 c -1.681605,1.254619 -7.660968,6.705332 -9.230469,8.392578 -0.411058,0.432628 -1.158735,1.643629 -1.644531,2.638672 l -0.896484,1.859375 1.755859,-1.470703 c 0.934226,-0.821992 3.700178,-3.287741 6.091797,-5.494141 2.428985,-2.2064 5.380362,-4.584846 6.576172,-5.320312 2.092665,-1.25462 2.691383,-2.336611 1.570312,-2.8125 -0.298953,-0.173051 -0.560547,-0.519133 -0.560547,-0.865235 0,-0.605678 -0.448587,-0.778225 -1.382812,-0.648437 -0.261584,0.04326 -0.970454,-0.216104 -1.56836,-0.605469 -1.062681,-0.632717 -2.65538,-1.540322 -3.65625,-1.55664 z" />
    <path
       d="m 4.1698867,48.370595 c -2.8774208,3.3745 -4.03586295,5.06175 -4.03586295,5.797218 0,1.341147 0.71001292,1.341147 1.68160955,-0.04326 0.747382,-1.038308 0.7847511,-1.038308 2.7653135,-0.432628 1.121073,0.346102 2.0553005,0.605679 2.0926696,0.519153 0.037369,-0.04326 0.1868455,-0.605679 0.3363219,-1.254621 0.2242146,-1.081571 0.1121073,-1.211359 -1.0837039,-1.470936 L 4.5809468,51.225941 6.2251872,49.192588 C 7.9441659,47.029447 11.607922,41.843862 11.084755,41.238183 10.897909,41.065131 6.4120327,45.6883 4.1698867,48.370595 Z"
       id="path138"
       style="fill:#000000;stroke:none;stroke-width:0.0402081"
       sodipodi:nodetypes="csccccccccc" />
    <path
       d="m 42.211631,52.264249 c -1.345287,1.254621 -2.428991,2.552506 -2.46636,2.812083 0,0.30284 -0.224215,0.562416 -0.485799,0.562416 -0.261583,0 -1.046334,0.692206 -1.756347,1.514199 -0.934228,1.124833 -1.121073,1.514199 -0.635275,1.514199 0.336322,0 0.635275,0.216314 0.635275,0.475891 0,0.259577 -0.41106,0.346102 -1.046335,0.216314 -0.896859,-0.259577 -1.195811,-0.04326 -2.428992,1.860301 -0.747382,1.211359 -1.382656,2.292929 -1.382656,2.422718 0,0.735468 2.279515,-0.562417 3.512695,-2.033353 0.82212,-0.908519 2.690575,-2.985134 4.222709,-4.585858 1.532133,-1.600725 3.139004,-3.763866 3.662171,-4.931962 0.523168,-1.124833 2.505445,-2.537697 2.430707,-2.537697 -0.07474,0 -2.916505,1.49939 -4.261793,2.710749 z"
       id="path140"
       style="fill:#000000;stroke:none;stroke-width:0.0402081"
       sodipodi:nodetypes="ccscssccscscsc" />
    <path
       d="m 6.523643,52.859571 c -0.4110601,1.297884 1.1963083,1.870658 2.9900251,2.303286 2.6158369,0.648943 3.9466849,0.963974 4.2830069,-0.160859 0.41106,-1.211359 -0.620835,-1.612916 -2.526659,-1.959019 C 10.373157,52.869928 9.2147153,52.610351 8.6915479,52.4373 7.981535,52.220986 6.6357503,52.470223 6.523643,52.859571 Z"
       id="path142"
       style="fill:#000000;stroke:none;stroke-width:0.0402081"
       sodipodi:nodetypes="cccccc" />
    <path
       d="m 13.400055,54.816755 c -0.149477,0.475891 -0.186846,0.951782 -0.112108,0.995045 0.03737,0.08653 1.382657,0.648942 2.91479,1.254621 2.578468,1.038308 4.377637,1.159578 4.826066,0.510636 0.784751,-1.254622 -1.051787,-1.678732 -3.8171,-2.717039 -3.288481,-1.168096 -3.512696,-1.168096 -3.811648,-0.04326 z"
       id="path144"
       style="fill:#000000;stroke:none;stroke-width:0.0402081"
       sodipodi:nodetypes="cccccc" />
    <path
       d="m 20.388076,56.936633 c -0.523167,0.995045 -0.298952,1.730513 0.523168,1.730513 0.298953,0 1.420026,0.562416 2.466361,1.254622 l 1.943193,1.297884 1.956624,-0.62626 c 0.563768,-0.180444 -1.022397,-1.623407 -1.059766,-1.666669 -0.07474,-0.04326 -0.934227,-0.562417 -1.980562,-1.168096 -2.802683,-1.730513 -3.288481,-1.817039 -3.849018,-0.821994 z"
       id="path146"
       style="fill:#000000;stroke:none;stroke-width:0.0402081"
       sodipodi:nodetypes="csccsccc" />
    <path
       d="m 26.292394,60.354396 c -0.298952,0.735468 -0.298952,0.951782 0.07474,1.124833 0.261583,0.08653 1.569502,0.648942 2.91479,1.211359 l 2.428991,1.038308 2.327034,-0.428073 c 0.635275,-0.995045 -1.019115,-1.562017 -3.149154,-2.470536 -3.400588,-1.470936 -4.073232,-1.514199 -4.596401,-0.475891 z"
       id="path148"
       style="fill:#000000;stroke:none;stroke-width:0.0402081"
       sodipodi:nodetypes="ccccccc" />
    <path
       id="path2265"
       style="fill:#6f916f;stroke-width:0.484757;stroke-dashoffset:0.29;stroke-opacity:0.996073;fill-opacity:1"
       d="m 52.410156,35.939453 c -0.0571,-0.0079 -0.101217,0.0013 -0.132812,0.02734 -1.455508,1.199755 -3.929324,3.09436 -6.121094,4.689453 -1.49528,1.088214 -3.87338,2.855452 -5.283203,3.925781 -2.948241,2.238274 -5.551142,3.863282 -6.1875,3.863281 -0.24183,10e-7 -0.767489,0.249538 -1.167969,0.556641 -0.851798,0.653191 -0.951867,0.641864 -2.898437,-0.369141 -0.726285,-0.377175 -1.774684,-0.851483 -2.330079,-1.052734 -0.555382,-0.201252 -1.219975,-0.490009 -1.478515,-0.642578 -0.777349,-0.458735 -8.119456,-2.4294 -10.734375,-2.880859 -0.778718,-0.134447 -2.27603,-0.555383 -3.328125,-0.935547 -1.41576,-0.511588 -1.929996,-0.631394 -1.978516,-0.462891 -0.186568,0.647968 -2.5526452,4.09677 -4.7304685,6.896485 -1.3111206,1.68551 -1.3082684,1.609078 -0.044922,1.857421 0.7890825,0.155121 1.1679688,0.391191 1.1679688,0.728516 0,0.192744 0.1045688,0.237353 0.3769531,0.158203 0.4235219,-0.123064 5.2337095,0.92 5.8359375,1.265625 0.213614,0.122592 0.843043,0.323311 1.398438,0.445313 0.555382,0.122001 2.164394,0.653881 3.574218,1.18164 1.409835,0.527771 2.838913,1.013025 3.175782,1.078125 0.671315,0.129723 4.630652,2.422042 5.144531,2.978516 0.185563,0.200945 0.540981,0.347656 0.84375,0.347656 0.503611,0 3.111437,0.95729 5.050781,1.855469 0.512659,0.237436 0.970338,0.382704 1.017578,0.322266 0.04724,-0.06045 0.391298,-0.578519 0.763672,-1.152344 0.830805,-1.280297 1.018998,-1.402288 2.101562,-1.361328 1.026064,0.03882 1.251018,-0.129169 0.572266,-0.425782 -0.272063,-0.118886 -0.49414,-0.307105 -0.49414,-0.417968 -10e-7,-0.31516 1.835093,-2.359749 2.392578,-2.666016 0.275261,-0.151227 0.686946,-0.581777 0.916015,-0.957031 0.700091,-1.146897 2.708112,-3.021556 4.207031,-3.927735 0.949883,-0.574243 1.698715,-1.190417 2.271485,-1.86914 1.431669,-1.696551 7.662589,-7.411897 9.986328,-9.160156 0.574236,-0.432035 1.044922,-0.811587 1.044922,-0.841797 0,-0.03021 -0.743677,-0.466237 -1.652344,-0.96875 -0.908668,-0.502526 -2.006162,-1.205706 -2.4375,-1.564453 -0.387291,-0.322135 -0.670506,-0.49784 -0.841797,-0.521485 z" />
    <path
       id="path2348"
       style="fill:#6f916f;stroke-width:0.484757;stroke-dashoffset:0.29;stroke-opacity:0.996073"
       d="m 32.664062,3.8398438 c -0.244358,0 -1.227999,0.4461683 -2.185546,0.9902343 -0.957547,0.544066 -1.882017,0.9882813 -2.054688,0.9882813 -0.273074,0 -0.300258,-0.075553 -0.205078,-0.5839844 l 0.109375,-0.5859375 -0.330078,0.34375 c -0.181566,0.1884435 -0.330078,0.4881589 -0.330078,0.6660156 0,0.1778554 -0.08507,0.5394731 -0.189453,0.8046875 -0.234841,0.5967081 -6.479425,6.3991134 -12.238282,11.3710934 -6.0524852,5.225491 -9.3222652,8.305057 -9.3222652,8.78125 0,0.202726 0.8812366,0.602771 1.3339843,0.605469 0.092538,5.52e-4 0.8262249,0.249448 1.6308594,0.552735 1.4022845,0.528556 1.6249065,0.557262 5.3476565,0.710937 2.136127,0.08818 3.939925,0.163769 4.009765,0.167969 0.06984,0.0042 0.08353,0.169345 0.0293,0.367187 -0.145942,0.532344 0.151986,0.452765 1.226563,-0.332031 0.521902,-0.381164 1.576698,-0.977669 2.345703,-1.324219 0.769005,-0.346548 2.167526,-0.972696 3.107422,-1.392578 2.548568,-1.138527 5.784541,-3.06242 7.802734,-4.636719 0.985552,-0.768781 2.096597,-1.630669 2.46875,-1.916015 0.804736,-0.617033 1.804298,-0.745613 1.892578,-0.244141 0.03055,0.173546 -0.19513,0.652108 -0.5,1.064453 -0.644619,0.871871 -0.624735,1.070665 0.04883,0.494141 0.352821,-0.301999 0.550701,-0.362963 0.775391,-0.240234 0.165904,0.09062 0.869917,1.085751 1.564453,2.21289 1.691275,2.744702 3.516784,5.171448 4.287109,5.697266 0.453825,0.309771 1.11734,0.504601 2.371094,0.695312 0.956813,0.14554 1.860349,0.344569 2.009766,0.441406 0.271247,0.175801 0.835973,-0.125908 2.603516,-1.388671 0.794677,-0.567736 3.358321,-3.000033 5.746093,-5.451172 2.275389,-2.33577 5.75,-6.098078 5.75,-6.226563 0,-0.05161 -0.525178,-0.270106 -1.166015,-0.486328 C 59.242397,15.527084 58.755924,15.252429 55.943359,13.365234 53.562914,11.767989 49.858818,10.092065 43.4375,7.7050781 41.386818,6.9427805 38.22324,5.76171 36.408203,5.0800781 34.593165,4.398446 32.908426,3.8398438 32.664062,3.8398438 Z" />
    <path
       style="fill:#d38d5f;fill-opacity:1;stroke:none;stroke-width:0.401325"
       d="m 32.379424,46.45928 c -0.818747,-0.25606 -1.536887,-0.78089 -1.536887,-1.123184 0,-0.151664 -0.178654,-0.488069 -0.397008,-0.747568 l -0.397007,-0.471817 -0.202294,0.386092 c -0.250301,0.477716 -0.663371,0.494622 -1.284189,0.05256 -0.257623,-0.183444 -0.538706,-0.317389 -0.624631,-0.297656 -0.08593,0.01973 -1.022556,-0.223795 -2.081401,-0.54117 -1.058844,-0.317375 -2.273817,-0.624128 -2.699939,-0.681674 -1.0498,-0.141771 -1.938311,-0.7618 -3.127507,-2.182464 -0.536748,-0.641221 -1.019339,-1.165858 -1.072424,-1.165858 -0.05308,0 -0.223383,0.09277 -0.378439,0.206144 -0.269565,0.197112 -0.253937,0.243207 0.356589,1.051844 0.35118,0.465135 0.609002,0.875205 0.572939,0.911268 -0.03606,0.03606 -0.792522,-0.04243 -1.68102,-0.174427 -3.361232,-0.499358 -5.412809,-1.252439 -5.999931,-2.202422 -0.279922,-0.452925 -0.959496,-0.981517 -1.261865,-0.981517 -0.04291,0 -0.01279,0.171572 0.06694,0.381273 0.07973,0.2097 0.14496,0.436664 0.14496,0.504363 0,0.240823 -4.8952548,-0.936482 -5.4911821,-1.320627 -0.1796928,-0.115833 -0.1835935,-0.206343 -0.024034,-0.557676 0.3416899,-0.752364 3.3427056,-4.655127 3.4482399,-4.484369 0.05579,0.09027 0.1790499,0.11616 0.273911,0.05753 0.1285363,-0.07944 0.1296737,-0.158168 0.00447,-0.309035 -0.1298007,-0.1564 -0.062211,-0.356213 0.2972004,-0.8786 0.2558656,-0.371888 0.5007942,-0.67616 0.5442858,-0.67616 0.043492,0 0.647594,0.200663 1.342451,0.445917 1.394762,0.49229 2.1626,0.555452 2.814719,0.23154 0.237376,-0.117906 1.03358,-0.323689 1.769341,-0.457294 2.160123,-0.392253 4.282275,-0.805359 4.68212,-0.91144 0.360482,-0.09564 0.363816,-0.08976 0.11148,0.19657 -0.350795,0.398049 -0.327906,0.541446 0.05382,0.337155 0.172663,-0.09241 0.479156,-0.136428 0.681095,-0.09783 0.458002,0.08755 1.771647,-0.748867 2.204128,-1.403403 0.234583,-0.355029 0.561415,-0.54301 1.486387,-0.854914 1.990251,-0.67112 8.192257,-4.27137 9.807725,-5.693363 0.550314,-0.484405 0.751418,-0.583563 0.943728,-0.465322 0.255919,0.157351 0.502652,0.509077 2.62287,3.738996 3.187788,4.856242 5.911774,6.471232 8.697148,5.156342 4.917445,-2.321377 7.075687,-3.561321 8.197879,-4.709813 l 0.693669,-0.709924 0.747323,0.817691 0.747324,0.817691 -1.292353,1.235977 c -0.710793,0.679787 -1.79317,1.669252 -2.405279,2.198811 -0.612111,0.529559 -1.581978,1.508012 -2.155261,2.174339 -1.213781,1.410776 -1.926659,2.008527 -5.352859,4.48839 -1.389772,1.00591 -4.065269,3.011479 -5.945549,4.456822 -4.12412,3.170149 -5.123769,3.858558 -6.094188,4.196764 -0.876447,0.305458 -0.996305,0.309133 -1.807484,0.05544 z m 7.2932,-4.561252 c 0.539037,-0.582212 0.980069,-1.101221 0.980069,-1.153356 0,-0.05213 -0.138234,-0.181118 -0.307187,-0.28663 -0.271453,-0.169526 -0.344937,-0.145375 -0.631715,0.207615 -0.474354,0.583878 -1.439318,2.042915 -1.439318,2.176266 0,0.350664 0.532292,-0.0087 1.398151,-0.943895 z m -3.776371,-0.362275 c 0,-0.117803 -0.102684,-0.214186 -0.228187,-0.214186 -0.125503,0 -0.393053,-0.108023 -0.594555,-0.240053 -0.50968,-0.333955 -0.457823,-0.113289 0.09466,0.402808 0.462604,0.432138 0.728081,0.45089 0.728081,0.05143 z m -11.891098,-3.08568 c 0,-0.200324 -0.410699,0.172352 -0.774762,0.703032 l -0.314968,0.459117 0.544865,-0.512235 c 0.299677,-0.281728 0.544865,-0.574189 0.544865,-0.649914 z m 16.592689,0.421816 c 0.05162,-0.134525 -0.103628,-0.378361 -0.399318,-0.627169 -0.266078,-0.223888 -0.843916,-0.89405 -1.284086,-1.489248 -0.440168,-0.595197 -0.843529,-1.082177 -0.896355,-1.082177 -0.133288,0 -0.784083,0.622942 -0.784083,0.750524 0,0.05728 0.192487,0.142647 0.42775,0.189699 0.285144,0.05703 0.793076,0.483169 1.523547,1.278212 0.602688,0.655963 1.148061,1.19437 1.21194,1.196458 0.06388,0.0021 0.154152,-0.09525 0.200605,-0.216299 z m 5.108566,-2.158122 c 0,-0.08175 -0.129827,-0.148639 -0.288505,-0.148639 -0.158678,0 -0.329844,0.06689 -0.38037,0.148639 -0.0521,0.0843 0.07278,0.148638 0.288505,0.148638 0.209203,0 0.38037,-0.06689 0.38037,-0.148638 z m -1.887198,-0.643786 0.377667,-0.495148 -0.327207,-0.410357 -0.327209,-0.410358 -5.94e-4,0.645387 c -2.98e-4,0.354963 -0.05568,0.76244 -0.123039,0.905505 -0.193736,0.411484 -0.01089,0.304146 0.400358,-0.235029 z m -6.793703,-1.346936 c 0.04654,-0.121284 -0.578741,-0.998704 -1.509436,-2.118102 -2.516188,-3.026351 -2.772315,-3.184258 -0.809349,-0.498977 0.627491,0.858389 1.327942,1.844978 1.556559,2.192421 0.43556,0.661946 0.629672,0.770091 0.762226,0.424658 z M 17.355501,34.00111 c 0.981545,-0.844072 1.751572,-1.640417 1.667498,-1.724491 -0.06041,-0.06041 -2.647429,2.207396 -2.722285,2.386378 -0.112968,0.270109 0.197678,0.07518 1.054787,-0.661887 z m 27.992793,0.07541 c -0.103081,-0.103081 -0.385078,0.106357 -0.385078,0.285995 0,0.09856 0.08529,0.08729 0.226551,-0.02995 0.124602,-0.103411 0.19594,-0.21863 0.158527,-0.256042 z M 41.99478,32.63143 c -0.102663,-0.123702 -0.256103,-0.181996 -0.340976,-0.129542 -0.09453,0.05843 -0.04903,0.172358 0.117471,0.294105 0.335036,0.244984 0.476784,0.140618 0.223505,-0.164563 z M 22.114206,31.702062 c -0.04024,-0.104858 -0.121588,-0.190651 -0.180779,-0.190651 -0.184748,0 -0.495511,0.706244 -0.387596,0.880854 0.135137,0.218657 0.668566,-0.429109 0.568375,-0.690203 z m 6.42443,0.255265 c 0.05053,-0.08175 -0.04981,-0.148639 -0.222958,-0.148639 -0.173152,0 -0.273483,0.06689 -0.222958,0.148639 0.05053,0.08175 0.150857,0.148639 0.222958,0.148639 0.0721,0 0.172433,-0.06689 0.222958,-0.148639 z"
       id="path1267" />
  </g>
</svg>
